{
.appVersion = "1346";
copyright = "Copyright 2020 The JetBrains Mono Project Authors (https://github.com/JetBrains/JetBrainsMono)";
customParameters = (
{
name = license;
value = "This Font Software is licensed under the SIL Open Font License, Version 1.1. This license is available with a FAQ at: https://scripts.sil.org/OFL";
},
{
name = licenseURL;
value = "https://scripts.sil.org/OFL";
},
{
name = trademark;
value = "JetBrains Mono is a trademark of JetBrains s.r.o.";
},
{
name = vendorID;
value = JB;
},
{
name = fsType;
value = (
);
},
{
name = Axes;
value = (
{
Name = Weight;
Tag = wght;
}
);
},
{
name = "Variable Font Origin";
value = "CCC0BD40-BA8C-414E-B576-CF0B94E6C996";
},
{
name = "Family Alignment Zones";
value = (
"{830, 10}",
"{730, 10}",
"{550, 10}",
"{0, -10}",
"{-110, -10}",
"{-180, -10}"
);
},
{
name = isFixedPitch;
value = 1;
},
{
name = "Use Typo Metrics";
value = 1;
},
{
name = "Enforce Compatibility Check";
value = 1;
},
{
name = "Use Line Breaks";
value = 1;
},
{
name = "Disable Last Change";
value = 1;
}
);
date = "2020-09-14 14:37:18 +0000";
designer = "Philipp Nurullin, Konstantin Bulenkov";
designerURL = "https://www.jetbrains.com";
familyName = "JetBrains Mono";
featurePrefixes = (
{
code = "languagesystem DFLT dflt;
languagesystem latn dflt;
languagesystem cyrl dflt;
";
name = Languagesystems;
}
);
features = (
{
code = "lookup at_underscore.liga {
ignore sub at at' underscore;
ignore sub at' underscore underscore;
sub SPC underscore' by at_underscore.liga;
sub at' underscore by SPC;
} at_underscore.liga;

lookup numbersign_numbersign.liga {
ignore sub numbersign numbersign' numbersign;
ignore sub numbersign' numbersign numbersign;
sub SPC numbersign' by numbersign_numbersign.liga;
sub numbersign' numbersign by SPC;
} numbersign_numbersign.liga;

lookup numbersign_numbersign_numbersign.liga {
ignore sub numbersign numbersign' numbersign numbersign;
ignore sub numbersign' numbersign numbersign numbersign;

glyphs = (
{
color = (153,255,154,255);
glyphname = A;
layers = (
{
associatedMasterId = "76E9374A-352D-4379-9771-A49E7E8AA0DC";
layerId = "4D1F24A9-7F62-4711-AC2F-D8EB6C907C30";
name = public.background;
paths = (
{
closed = 1;
nodes = (
"160 175 LINE",
"450 175 LINE",
"450 295 LINE",
"160 295 LINE"
);
},
{
closed = 1;
nodes = (
"25 0 LINE",
"177 0 LINE",
"274.225 462 LINE SMOOTH",
"285.587 515.993 OFFCURVE",
"287 585 OFFCURVE",
"287 585 CURVE",
"309 585 LINE",
"309 583.768 OFFCURVE",
"311.015 516.204 OFFCURVE",
"322.777 461 CURVE SMOOTH",
"421 0 LINE",
"575 0 LINE",
"394 730 LINE",
"204 730 LINE"
);
}
);
width = 600;
},
{
hints = (
{
horizontal = 1;
place = "{131, 76}";
type = Stem;
},
{
horizontal = 1;
place = "{-44, 21}";
target = up;
type = BottomGhost;
},
{
horizontal = 1;
place = "{686, -20}";
target = down;
type = TopGhost;
}
);
layerId = "681EDAF7-11DB-44DD-9204-6ED8688B749D";
paths = (
{
closed = 1;
nodes = (
"138 0 LINE",
"199 165 LINE",
"373 165 LINE",
"382 0 LINE",
"531 0 LINE",
"466 730 LINE",
"276 730 LINE",
"-19 0 LINE"
);
},
{
closed = 1;
nodes = (
"308 462 LINE SMOOTH",
"333 531 OFFCURVE",
"353 595 OFFCURVE",
"353 595 CURVE",
"353 595 OFFCURVE",
"356 531 OFFCURVE",
"359 461 CURVE SMOOTH",
"366 285 LINE",
"243 285 LINE"
);
}
);
width = 600;
},
{
hints = (
{
horizontal = 1;
place = "{158, 32}";
type = Stem;
},
{
horizontal = 1;
place = "{-44, -23}";
type = Stem;
},
{
horizontal = 1;
place = "{686, -20}";
target = down;
type = TopGhost;
}
);
layerId = "03C02FE7-7458-4762-A27C-0F6E25AC479F";
paths = (
{
closed = 1;
nodes = (
"100 0 LINE",
"179 194 LINE",
"400 194 LINE",
"417 0 LINE",
"506 0 LINE",
"433 730 LINE",
"312 730 LINE",
"6 0 LINE"
);
},
{
closed = 1;
nodes = (
"301 496 LINE SMOOTH",
"335 580 OFFCURVE",
"353 640 OFFCURVE",
"359 658 CURVE",
"359 640 OFFCURVE",
"364 580 OFFCURVE",
"372 495 CURVE SMOOTH",
"393 270 LINE",
"209 270 LINE"
);
}
);
width = 600;
},
{
hints = (
{
horizontal = 1;
place = "{176, 1}";
type = Stem;
},
{
horizontal = 1;
place = "{-44, -23}";
type = Stem;
},
{
horizontal = 1;
place = "{687, -20}";
target = down;
type = TopGhost;
}
);
layerId = "76E9374A-352D-4379-9771-A49E7E8AA0DC";
paths = (
{
closed = 1;
nodes = (
"77 0 LINE",
"166 210 LINE",
"416 210 LINE",
"439 0 LINE",
"488 0 LINE",
"403 730 LINE",
"341 730 LINE",
"24 0 LINE"
);
},
{
closed = 1;
nodes = (
"312 550 LINE SMOOTH",
"343 622 OFFCURVE",
"361 673 OFFCURVE",
"366 688 CURVE",
"367 673 OFFCURVE",
"371 622 OFFCURVE",
"379 550 CURVE SMOOTH",
"411 255 LINE",
"185 255 LINE"
);
}
);
width = 600;
}
);
unicode = 0041;
},
{
color = (255,204,153,255);
glyphname = AE;
layers = (
{
layerId = "681EDAF7-11DB-44DD-9204-6ED8688B749D";
paths = (
{
closed = 1;
nodes = (
"101 0 LINE",
"153 165 LINE",
"275 165 LINE",
"249 0 LINE",
"536 0 LINE",
"556 126 LINE",
"392 126 LINE",
"420 305 LINE",
"559 305 LINE",
"580 436 LINE",
"441 436 LINE",
"468 605 LINE",
"632 605 LINE",
"652 730 LINE",
"209 730 LINE",
"-44 0 LINE"
);
},
{
closed = 1;
nodes = (
"296 605 LINE",
"345 605 LINE",
"292 270 LINE",
"187 270 LINE"
);
}
);
width = 600;
},
{
hints = (
{
place = "{256, 44}";
type = Stem;
},
{
place = "{256, 201}";
type = Stem;
},
{
horizontal = 1;
place = "{-44, 38}";
type = Stem;
},
{
horizontal = 1;
place = "{159, 31}";
type = Stem;
},
{
horizontal = 1;
place = "{286, 38}";
type = Stem;
},
{
horizontal = 1;
place = "{594, 38}";
type = Stem;
}
);
layerId = "03C02FE7-7458-4762-A27C-0F6E25AC479F";
paths = (
{
closed = 1;
nodes = (
"77 0 LINE",
"149 203 LINE",
"290 203 LINE",
"258 0 LINE",
"526 0 LINE",
"539 82 LINE",
"357 82 LINE",
"398 338 LINE",
"555 338 LINE",
"568 420 LINE",
"411 420 LINE",
"447 648 LINE",
"629 648 LINE",
"642 730 LINE",
"247 730 LINE",
"-14 0 LINE"
);
},
{
closed = 1;
nodes = (
"305 648 LINE",
"361 648 LINE",
"302 278 LINE",
"175 278 LINE"
);
}
);
width = 600;
},
{
layerId = "76E9374A-352D-4379-9771-A49E7E8AA0DC";
paths = (
{
closed = 1;
nodes = (
"40 0 LINE",
"130 215 LINE",
"301 215 LINE",
"267 0 LINE",
"525 0 LINE",
"532 45 LINE",
"323 45 LINE",
"373 357 LINE",
"546 357 LINE",
"553 402 LINE",
"380 402 LINE",
"425 685 LINE",
"634 685 LINE",
"641 730 LINE",
"294 730 LINE",
"-10 0 LINE"
);
},
{
closed = 1;
nodes = (
"324 685 LINE",
"376 685 LINE",
"308 260 LINE",
"150 260 LINE"
);
}
);
width = 600;
}
);
unicode = 00C6;
},
{
glyphname = B;
layers = (
{
layerId = "681EDAF7-11DB-44DD-9204-6ED8688B749D";
paths = (
{
closed = 1;
nodes = (
"266 0 LINE SMOOTH",
"419 0 OFFCURVE",
"529 83 OFFCURVE",
"549 211 CURVE SMOOTH",
"567 323 OFFCURVE",
"495 397 OFFCURVE",
"369 395 CURVE",
"367 385 LINE",
"485 385 OFFCURVE",
"574 448 OFFCURVE",
"589 543 CURVE SMOOTH",
"607 657 OFFCURVE",
"524 730 OFFCURVE",
"376 730 CURVE SMOOTH",
"138 730 LINE",
"22 0 LINE"
);
},
{
closed = 1;
nodes = (
"217 318 LINE",
"310 318 LINE SMOOTH",
"376 318 OFFCURVE",
"409 280 OFFCURVE",
"400 219 CURVE SMOOTH",
"390 158 OFFCURVE",
"344 121 OFFCURVE",
"279 121 CURVE SMOOTH",
"186 121 LINE"
);
},
{
closed = 1;
nodes = (
"263 609 LINE",
"354 609 LINE SMOOTH",
"413 609 OFFCURVE",
"443 577 OFFCURVE",
"435 523 CURVE SMOOTH",
"426 469 OFFCURVE",
"385 436 OFFCURVE",
"327 436 CURVE SMOOTH",
"236 436 LINE"
);
}
);
width = 600;
},
{
hints = (
{
place = "{46, 45}";
type = Stem;
},
{
place = "{380, 51}";
type = Stem;
},
{
place = "{393, 51}";
type = Stem;
},
{
horizontal = 1;
place = "{-44, 38}";
type = Stem;
},
{
horizontal = 1;
place = "{286, 34}";
type = Stem;
},
{
horizontal = 1;
place = "{594, 38}";
type = Stem;
}
);
layerId = "03C02FE7-7458-4762-A27C-0F6E25AC479F";
paths = (
{
closed = 1;
nodes = (
"271 0 LINE SMOOTH",
"404 0 OFFCURVE",
"498 78 OFFCURVE",
"518 203 CURVE SMOOTH",
"537 320 OFFCURVE",
"473 395 OFFCURVE",
"358 393 CURVE",
"356 378 LINE",
"462 376 OFFCURVE",
"542 440 OFFCURVE",
"558 541 CURVE SMOOTH",
"576 659 OFFCURVE",
"508 730 OFFCURVE",
"375 730 CURVE SMOOTH",
"166 730 LINE",
"50 0 LINE"
);
},
{
closed = 1;
nodes = (
"192 341 LINE",
"315 341 LINE SMOOTH",
"399 341 OFFCURVE",
"442 286 OFFCURVE",
"430 206 CURVE SMOOTH",
"417 129 OFFCURVE",
"358 81 OFFCURVE",
"274 81 CURVE SMOOTH",
"151 81 LINE"
);
},
{
closed = 1;
nodes = (
"241 649 LINE",
"362 649 LINE SMOOTH",
"439 649 OFFCURVE",
"479 605 OFFCURVE",
"468 534 CURVE SMOOTH",
"456 463 OFFCURVE",
"401 419 OFFCURVE",
"324 419 CURVE SMOOTH",
"204 419 LINE"
);
}
);
width = 600;
},
{
layerId = "76E9374A-352D-4379-9771-A49E7E8AA0DC";
paths = (
{
closed = 1;
nodes = (
"257 0 LINE SMOOTH",
"389 0 OFFCURVE",
"484 78 OFFCURVE",
"504 200 CURVE SMOOTH",
"521 310 OFFCURVE",
"464 380 OFFCURVE",
"356 380 CURVE",
"355 370 LINE",
"451 370 OFFCURVE",
"527 439 OFFCURVE",
"543 542 CURVE SMOOTH",
"561 656 OFFCURVE",
"494 730 OFFCURVE",
"373 730 CURVE SMOOTH",
"182 730 LINE",
"66 0 LINE"
);
},
{
closed = 1;
nodes = (
"172 353 LINE",
"313 353 LINE SMOOTH",
"415 353 OFFCURVE",
"469 294 OFFCURVE",
"454 199 CURVE SMOOTH",
"438 104 OFFCURVE",
"366 45 OFFCURVE",
"264 45 CURVE SMOOTH",
"123 45 LINE"
);
},
{
closed = 1;
nodes = (
"225 685 LINE",
"366 685 LINE SMOOTH",
"459 685 OFFCURVE",
"507 630 OFFCURVE",
"493 541 CURVE SMOOTH",
"479 452 OFFCURVE",
"414 398 OFFCURVE",
"320 398 CURVE SMOOTH",
"179 398 LINE"
);
}
);
width = 600;
}
);
unicode = 0042;
},
{
glyphname = C;
layers = (
{
layerId = "681EDAF7-11DB-44DD-9204-6ED8688B749D";
paths = (
{
closed = 1;
nodes = (
"406 -10 OFFCURVE",
"516 77 OFFCURVE",
"537 210 CURVE",
"387 210 LINE",
"378 152 OFFCURVE",
"339 120 OFFCURVE",
"279 120 CURVE SMOOTH",
"219 120 OFFCURVE",
"190 152 OFFCURVE",
"199 210 CURVE SMOOTH",
"248 520 LINE SMOOTH",
"258 578 OFFCURVE",
"297 610 OFFCURVE",
"357 610 CURVE SMOOTH",
"417 610 OFFCURVE",
"445 578 OFFCURVE",
"436 520 CURVE",
"586 520 LINE",
"607 653 OFFCURVE",
"524 740 OFFCURVE",
"377 740 CURVE SMOOTH",
"230 740 OFFCURVE",
"119 653 OFFCURVE",
"98 520 CURVE SMOOTH",
"49 210 LINE SMOOTH",
"28 78 OFFCURVE",
"111 -10 OFFCURVE",
"258 -10 CURVE SMOOTH"
);
}
);
width = 600;
},
{
hints = (
{
place = "{42, 46}";
type = Stem;
},
{
horizontal = 1;
place = "{-54, 36}";
type = Stem;
},
{
horizontal = 1;
place = "{606, 36}";
type = Stem;
}
);
layerId = "03C02FE7-7458-4762-A27C-0F6E25AC479F";
paths = (
{
closed = 1;
nodes = (
"389 -10 OFFCURVE",
"483 71 OFFCURVE",
"504 200 CURVE",
"414 200 LINE",
"401 117 OFFCURVE",
"349 70 OFFCURVE",
"271 70 CURVE SMOOTH",
"192 70 OFFCURVE",
"155 117 OFFCURVE",
"168 200 CURVE SMOOTH",
"220 531 LINE SMOOTH",
"233 613 OFFCURVE",
"285 660 OFFCURVE",
"365 660 CURVE SMOOTH",
"443 660 OFFCURVE",
"479 613 OFFCURVE",
"466 530 CURVE",
"556 530 LINE",
"576 659 OFFCURVE",
"508 740 OFFCURVE",
"377 740 CURVE SMOOTH",
"244 740 OFFCURVE",
"151 661 OFFCURVE",
"130 530 CURVE SMOOTH",
"78 200 LINE SMOOTH",
"57 69 OFFCURVE",
"125 -10 OFFCURVE",
"258 -10 CURVE SMOOTH"
);
}
);
width = 600;
},
{
guideLines = (
{
position = "{-88, -10}";
}
);
layerId = "76E9374A-352D-4379-9771-A49E7E8AA0DC";
paths = (
{
closed = 1;
nodes = (
"385 -10 OFFCURVE",
"477 72 OFFCURVE",
"498 200 CURVE",
"448 200 LINE",
"431 98 OFFCURVE",
"363 35 OFFCURVE",
"268 35 CURVE SMOOTH",
"174 35 OFFCURVE",
"126 94 OFFCURVE",
"141 190 CURVE SMOOTH",
"197 540 LINE SMOOTH",
"212 636 OFFCURVE",
"279 695 OFFCURVE",
"372 695 CURVE SMOOTH",
"467 695 OFFCURVE",
"516 632 OFFCURVE",
"500 530 CURVE",
"550 530 LINE",
"570 658 OFFCURVE",
"503 740 OFFCURVE",
"379 740 CURVE SMOOTH",
"257 740 OFFCURVE",
"166 662 OFFCURVE",
"147 540 CURVE SMOOTH",
"91 190 LINE SMOOTH",
"72 69 OFFCURVE",
"138 -10 OFFCURVE",
"260 -10 CURVE SMOOTH"
);
}
);
width = 600;
}
);
unicode = 0043;
},
{
glyphname = D;
layers = (
{
layerId = "681EDAF7-11DB-44DD-9204-6ED8688B749D";
paths = (
{
closed = 1;
nodes = (
"256 0 LINE SMOOTH",
"407 0 OFFCURVE",
"523 94 OFFCURVE",
"545 235 CURVE SMOOTH",
"587 496 LINE SMOOTH",
"609 637 OFFCURVE",
"523 730 OFFCURVE",
"372 730 CURVE SMOOTH",
"135 730 LINE",
"19 0 LINE"
);
},
{
closed = 1;
nodes = (
"262 590 LINE",
"349 590 LINE SMOOTH",
"410 590 OFFCURVE",
"445 552 OFFCURVE",
"437 496 CURVE SMOOTH",
"395 235 LINE SMOOTH",
"386 178 OFFCURVE",
"339 140 OFFCURVE",
"278 140 CURVE SMOOTH",
"191 140 LINE"
);
}
);
width = 600;
},
{
associatedMasterId = "76E9374A-352D-4379-9771-A49E7E8AA0DC";
layerId = "4D1F24A9-7F62-4711-AC2F-D8EB6C907C30";
name = public.background;
paths = (
{
closed = 1;
nodes = (
"178 80 LINE",
"178 640 LINE",
"289 640 LINE SMOOTH",
"373 640 OFFCURVE",
"429 584 OFFCURVE",
"429 501 CURVE SMOOTH",
"429 220 LINE SMOOTH",
"429 136 OFFCURVE",
"373 80 OFFCURVE",
"289 80 CURVE SMOOTH"
);
},
{
closed = 1;
nodes = (
"88 0 LINE",
"289 0 LINE SMOOTH",
"428 0 OFFCURVE",
"520 88 OFFCURVE",
"520 220 CURVE SMOOTH",
"520 501 LINE SMOOTH",
"520 632 OFFCURVE",
"428 720 OFFCURVE",
"289 720 CURVE SMOOTH",
"88 720 LINE"
);
}
);
width = 600;
},
{
hints = (
{
place = "{44, 46}";
type = Stem;
},
{
place = "{385, 47}";
type = Stem;
},
{
horizontal = 1;
place = "{-44, 36}";
type = Stem;
},
{
horizontal = 1;
place = "{596, 36}";
type = Stem;
}
);
layerId = "03C02FE7-7458-4762-A27C-0F6E25AC479F";
paths = (
{
closed = 1;
nodes = (
"235 0 LINE SMOOTH",
"376 0 OFFCURVE",
"480 86 OFFCURVE",
"501 220 CURVE SMOOTH",
"547 511 LINE SMOOTH",
"568 644 OFFCURVE",
"491 730 OFFCURVE",
"351 730 CURVE SMOOTH",
"166 730 LINE",
"50 0 LINE"
);
},
{
closed = 1;
nodes = (
"243 650 LINE",
"338 650 LINE SMOOTH",
"426 650 OFFCURVE",
"471 598 OFFCURVE",
"457 511 CURVE SMOOTH",
"411 220 LINE SMOOTH",
"397 132 OFFCURVE",
"336 80 OFFCURVE",
"248 80 CURVE SMOOTH",
"153 80 LINE"
);
}
);
width = 600;
},
{
layerId = "76E9374A-352D-4379-9771-A49E7E8AA0DC";
paths = (
{
closed = 1;
nodes = (
"226 0 LINE SMOOTH",
"361 0 OFFCURVE",
"465 88 OFFCURVE",
"486 220 CURVE SMOOTH",
"532 510 LINE SMOOTH",
"553 642 OFFCURVE",
"476 730 OFFCURVE",
"342 730 CURVE SMOOTH",
"182 730 LINE",
"66 0 LINE"
);
},
{
closed = 1;
nodes = (
"225 685 LINE",
"335 685 LINE SMOOTH",
"439 685 OFFCURVE",
"498 614 OFFCURVE",
"482 510 CURVE SMOOTH",
"436 220 LINE SMOOTH",
"419 115 OFFCURVE",
"338 45 OFFCURVE",
"233 45 CURVE SMOOTH",
"123 45 LINE"
);
}
);
width = 600;
}
);
unicode = 0044;
},
{
glyphname = Dcroat;
layers = (
{
components = (
{
alignment = -1;
name = D;
}
);
layerId = "681EDAF7-11DB-44DD-9204-6ED8688B749D";
paths = (
{
closed = 1;
nodes = (
"302 290 LINE",
"323 425 LINE",
"43 425 LINE",
"22 290 LINE"
);
}
);
width = 600;
},
{
components = (
{
alignment = -1;
name = D;
}
);
hints = (
{
place = "{44, 46}";
type = Stem;
},
{
place = "{385, 47}";
type = Stem;
},
{
horizontal = 1;
place = "{-44, 36}";
type = Stem;
},
{
horizontal = 1;
place = "{596, 36}";
type = Stem;
}
);
layerId = "03C02FE7-7458-4762-A27C-0F6E25AC479F";
paths = (
{
closed = 1;
nodes = (
"307 320 LINE",
"319 395 LINE",
"54 395 LINE",
"42 320 LINE"
);
}
);
width = 600;
},
{
components = (
{
alignment = -1;
name = D;
}
);
layerId = "76E9374A-352D-4379-9771-A49E7E8AA0DC";
paths = (
{
closed = 1;
nodes = (
"299 335 LINE",
"307 385 LINE",
"62 385 LINE",
"54 335 LINE"
);
}
);
width = 600;
}
);
unicode = 0110;
},
{
glyphname = E;
layers = (
{
layerId = "681EDAF7-11DB-44DD-9204-6ED8688B749D";
paths = (
{
closed = 1;
nodes = (
"486 0 LINE",
"506 128 LINE",
"203 128 LINE",
"232 310 LINE",
"500 310 LINE",
"520 438 LINE",
"252 438 LINE",
"278 602 LINE",
"581 602 LINE",
"602 730 LINE",
"152 730 LINE",
"36 0 LINE"
);
}
);
width = 600;
},
{
hints = (
{
place = "{51, 46}";
type = Stem;
},
{
horizontal = 1;
place = "{-44, 38}";
type = Stem;
},
{
horizontal = 1;
place = "{286, 38}";
type = Stem;
},
{
horizontal = 1;
place = "{594, 38}";
type = Stem;
}
);
layerId = "03C02FE7-7458-4762-A27C-0F6E25AC479F";
paths = (
{
closed = 1;
nodes = (
"476 0 LINE",
"489 81 LINE",
"158 81 LINE",
"199 341 LINE",
"495 341 LINE",
"508 422 LINE",
"212 422 LINE",
"248 649 LINE",
"579 649 LINE",
"592 730 LINE",
"172 730 LINE",
"56 0 LINE"
);
}
);
width = 600;
},
{
layerId = "76E9374A-352D-4379-9771-A49E7E8AA0DC";
paths = (
{
closed = 1;
nodes = (
"466 0 LINE",
"473 45 LINE",
"133 45 LINE",
"183 358 LINE",
"488 358 LINE",
"495 403 LINE",
"190 403 LINE",
"234 685 LINE",
"574 685 LINE",
"582 730 LINE",
"192 730 LINE",
"76 0 LINE"
);
}
);
width = 600;
}
);
unicode = 0045;
},
{
glyphname = F;
layers = (
{
layerId = "681EDAF7-11DB-44DD-9204-6ED8688B749D";
paths = (
{
closed = 1;
nodes = (
"176 0 LINE",
"222 288 LINE",
"516 288 LINE",
"538 428 LINE",
"242 428 LINE",
"267 590 LINE",
"589 590 LINE",
"612 730 LINE",
"142 730 LINE",
"26 0 LINE"
);
}
);
width = 600;
},
{
hints = (
{
place = "{51, 46}";
type = Stem;
},
{
horizontal = 1;
place = "{284, 36}";
type = Stem;
},
{
horizontal = 1;
place = "{597, 36}";
type = Stem;
},
{
horizontal = 1;
place = "{-44, 21}";
target = up;
type = BottomGhost;
}
);
layerId = "03C02FE7-7458-4762-A27C-0F6E25AC479F";
paths = (
{
closed = 1;
nodes = (
"141 0 LINE",
"192 323 LINE",
"506 323 LINE",
"519 405 LINE",
"203 405 LINE",
"242 649 LINE",
"584 649 LINE",
"597 731 LINE",
"167 731 LINE",
"51 0 LINE"
);
}
);
width = 600;
},
{
layerId = "76E9374A-352D-4379-9771-A49E7E8AA0DC";
paths = (
{
closed = 1;
nodes = (
"121 0 LINE",
"176 347 LINE",
"501 347 LINE",
"508 392 LINE",
"183 392 LINE",
"229 685 LINE",
"589 685 LINE",
"597 730 LINE",
"187 730 LINE",
"71 0 LINE"
);
}
);
width = 600;
}
);
unicode = 0046;
},
{
glyphname = G;
layers = (
{
hints = (
{
place = "{4, 106}";
type = Stem;
},
{
place = "{354, 106}";
type = Stem;
},
{
horizontal = 1;
place = "{-54, 87}";
type = Stem;
},
{
horizontal = 1;
place = "{546, 91}";
type = Stem;
},
{
horizontal = 1;
place = "{229, 83}";
type = Stem;
}
);
layerId = "681EDAF7-11DB-44DD-9204-6ED8688B749D";
paths = (
{
closed = 1;
nodes = (
"406 -10 OFFCURVE",
"516 77 OFFCURVE",
"537 210 CURVE SMOOTH",
"567 400 LINE",
"309 400 LINE",
"289 273 LINE",
"397 273 LINE",
"387 210 LINE SMOOTH",
"378 152 OFFCURVE",
"339 120 OFFCURVE",
"279 120 CURVE SMOOTH",
"219 120 OFFCURVE",
"190 152 OFFCURVE",
"199 210 CURVE SMOOTH",
"248 520 LINE SMOOTH",
"258 578 OFFCURVE",
"297 610 OFFCURVE",
"357 610 CURVE SMOOTH",
"417 610 OFFCURVE",
"445 578 OFFCURVE",
"436 520 CURVE",
"586 520 LINE",
"607 653 OFFCURVE",
"524 740 OFFCURVE",
"377 740 CURVE SMOOTH",
"230 740 OFFCURVE",
"119 653 OFFCURVE",
"98 520 CURVE SMOOTH",
"49 210 LINE SMOOTH",
"28 78 OFFCURVE",
"111 -10 OFFCURVE",
"258 -10 CURVE SMOOTH"
);
}
);
width = 600;
},
{
hints = (
{
place = "{36, 46}";
type = Stem;
},
{
place = "{386, 46}";
type = Stem;
},
{
horizontal = 1;
place = "{-54, 36}";
type = Stem;
},
{
horizontal = 1;
place = "{606, 36}";
type = Stem;
},
{
horizontal = 1;
place = "{246, 36}";
type = Stem;
}
);
layerId = "03C02FE7-7458-4762-A27C-0F6E25AC479F";
paths = (
{
closed = 1;
nodes = (
"389 -10 OFFCURVE",
"483 71 OFFCURVE",
"504 200 CURVE SMOOTH",
"531 370 LINE",
"295 370 LINE",
"282 290 LINE",
"428 290 LINE",
"414 200 LINE SMOOTH",
"401 117 OFFCURVE",
"349 70 OFFCURVE",
"271 70 CURVE SMOOTH",
"192 70 OFFCURVE",
"155 117 OFFCURVE",
"168 200 CURVE SMOOTH",
"220 531 LINE SMOOTH",
"233 613 OFFCURVE",
"285 660 OFFCURVE",
"365 660 CURVE SMOOTH",
"443 660 OFFCURVE",
"479 613 OFFCURVE",
"466 530 CURVE",
"556 530 LINE",
"576 659 OFFCURVE",
"508 740 OFFCURVE",
"377 740 CURVE SMOOTH",
"244 740 OFFCURVE",
"151 661 OFFCURVE",
"130 530 CURVE SMOOTH",
"78 200 LINE SMOOTH",
"57 69 OFFCURVE",
"125 -10 OFFCURVE",
"258 -10 CURVE SMOOTH"
);
}
);
width = 600;
},
{
layerId = "76E9374A-352D-4379-9771-A49E7E8AA0DC";
paths = (
{
closed = 1;
nodes = (
"385 -10 OFFCURVE",
"477 72 OFFCURVE",
"498 200 CURVE SMOOTH",
"522 355 LINE",
"299 355 LINE",
"292 310 LINE",
"465 310 LINE",
"448 200 LINE SMOOTH",
"431 98 OFFCURVE",
"363 35 OFFCURVE",
"268 35 CURVE SMOOTH",
"174 35 OFFCURVE",
"126 94 OFFCURVE",
"141 190 CURVE SMOOTH",
"197 540 LINE SMOOTH",
"212 636 OFFCURVE",
"279 695 OFFCURVE",
"372 695 CURVE SMOOTH",
"467 695 OFFCURVE",
"516 632 OFFCURVE",
"500 530 CURVE",
"550 530 LINE",
"570 658 OFFCURVE",
"503 740 OFFCURVE",
"379 740 CURVE SMOOTH",
"257 740 OFFCURVE",
"166 662 OFFCURVE",
"147 540 CURVE SMOOTH",
"91 190 LINE SMOOTH",
"72 69 OFFCURVE",
"138 -10 OFFCURVE",
"260 -10 CURVE SMOOTH"
);
}
);
width = 600;
}
);
unicode = 0047;
},
{
glyphname = H;
layers = (
{
hints = (
{
place = "{138, 106}";
type = Stem;
},
{
place = "{456, 106}";
type = Stem;
},
{
horizontal = 1;
place = "{266, 96}";
type = Stem;
},
{
horizontal = 1;
place = "{686, -20}";
target = down;
type = TopGhost;
},
{
horizontal = 1;
place = "{-44, 21}";
target = up;
type = BottomGhost;
}
);
layerId = "681EDAF7-11DB-44DD-9204-6ED8688B749D";
paths = (
{
closed = 1;
nodes = (
"172 0 LINE",
"221 310 LINE",
"389 310 LINE",
"340 0 LINE",
"490 0 LINE",
"606 730 LINE",
"456 730 LINE",
"411 450 LINE",
"243 450 LINE",
"288 730 LINE",
"138 730 LINE",
"22 0 LINE"
);
}
);
width = 600;
},
{
hints = (
{
place = "{166, 46}";
type = Stem;
},
{
place = "{488, 46}";
type = Stem;
},
{
horizontal = 1;
place = "{292, 38}";
type = Stem;
},
{
horizontal = 1;
place = "{686, -20}";
target = down;
type = TopGhost;
},
{
horizontal = 1;
place = "{-44, 21}";
target = up;
type = BottomGhost;
}
);
layerId = "03C02FE7-7458-4762-A27C-0F6E25AC479F";
paths = (
{
closed = 1;
nodes = (
"140 0 LINE",
"193 336 LINE",
"425 336 LINE",
"372 0 LINE",
"462 0 LINE",
"578 730 LINE",
"488 730 LINE",
"438 418 LINE",
"206 418 LINE",
"256 730 LINE",
"166 730 LINE",
"50 0 LINE"
);
}
);
width = 600;
},
{
layerId = "76E9374A-352D-4379-9771-A49E7E8AA0DC";
paths = (
{
closed = 1;
nodes = (
"116 0 LINE",
"172 356 LINE",
"452 356 LINE",
"396 0 LINE",
"446 0 LINE",
"562 730 LINE",
"512 730 LINE",
"460 401 LINE",
"180 401 LINE",
"232 730 LINE",
"182 730 LINE",
"66 0 LINE"
);
}
);
width = 600;
}
);
unicode = 0048;
},
{
glyphname = Hbar;
layers = (
{
components = (
{
alignment = -1;
name = H;
}
);
layerId = "681EDAF7-11DB-44DD-9204-6ED8688B749D";
paths = (
{
closed = 1;
nodes = (
"629 525 LINE",
"644 620 LINE",
"64 620 LINE",
"49 525 LINE"
);
}
);
width = 600;
},
{
components = (
{
alignment = -1;
name = H;
}
);
hints = (
{
place = "{46, 46}";
type = Stem;
},
{
place = "{376, 46}";
type = Stem;
},
{
horizontal = 1;
place = "{290, 38}";
type = Stem;
},
{
horizontal = 1;
place = "{676, -20}";
target = down;
type = TopGhost;
},
{
horizontal = 1;
place = "{-44, 21}";
target = up;
type = BottomGhost;
}
);
layerId = "03C02FE7-7458-4762-A27C-0F6E25AC479F";
paths = (
{
closed = 1;
nodes = (
"629 525 LINE",
"641 600 LINE",
"61 600 LINE",
"49 525 LINE"
);
}
);
width = 600;
},
{
components = (
{
alignment = -1;
name = H;
}
);
layerId = "76E9374A-352D-4379-9771-A49E7E8AA0DC";
paths = (
{
closed = 1;
nodes = (
"632 540 LINE",
"638 584 LINE",
"58 584 LINE",
"52 540 LINE"
);
}
);
width = 600;
}
);
unicode = 0126;
},
{
glyphname = I;
layers = (
{
layerId = "681EDAF7-11DB-44DD-9204-6ED8688B749D";
paths = (
{
closed = 1;
nodes = (
"481 0 LINE",
"502 130 LINE",
"352 130 LINE",
"426 600 LINE",
"576 600 LINE",
"597 730 LINE",
"147 730 LINE",
"126 600 LINE",
"276 600 LINE",
"202 130 LINE",
"52 130 LINE",
"31 0 LINE"
);
}
);
width = 600;
},
{
hints = (
{
place = "{210, 48}";
type = Stem;
},
{
horizontal = 1;
place = "{-44, 35}";
type = Stem;
},
{
horizontal = 1;
place = "{597, 35}";
type = Stem;
}
);
layerId = "03C02FE7-7458-4762-A27C-0F6E25AC479F";
paths = (
{
closed = 1;
nodes = (
"459 0 LINE",
"472 81 LINE",
"315 81 LINE",
"405 649 LINE",
"562 649 LINE",
"575 730 LINE",
"169 730 LINE",
"156 649 LINE",
"313 649 LINE",
"223 81 LINE",
"66 81 LINE",
"53 0 LINE"
);
}
);
width = 600;
},
{
layerId = "76E9374A-352D-4379-9771-A49E7E8AA0DC";
paths = (
{
closed = 1;
nodes = (
"446 0 LINE",
"453 46 LINE",
"289 46 LINE",
"391 685 LINE",
"555 685 LINE",
"562 731 LINE",
"182 731 LINE",
"175 685 LINE",
"341 685 LINE",
"239 46 LINE",
"73 46 LINE",
"66 0 LINE"
);
}
);
width = 600;
}
);
unicode = 0049;
},
{
glyphname = J;
layers = (
{
layerId = "681EDAF7-11DB-44DD-9204-6ED8688B749D";
paths = (
{
closed = 1;
nodes = (
"379 -11 OFFCURVE",
"489 77 OFFCURVE",
"511 218 CURVE SMOOTH",
"592 730 LINE",
"277 730 LINE",
"255 590 LINE",
"420 590 LINE",
"361 218 LINE SMOOTH",
"351 158 OFFCURVE",
"307 119 OFFCURVE",
"246 119 CURVE SMOOTH",
"184 119 OFFCURVE",
"152 158 OFFCURVE",
"162 220 CURVE",
"12 220 LINE",
"-11 80 OFFCURVE",
"73 -11 OFFCURVE",
"225 -11 CURVE SMOOTH"
);
}
);
width = 600;
},
{
layerId = "03C02FE7-7458-4762-A27C-0F6E25AC479F";
paths = (
{
closed = 1;
nodes = (
"364 -10 OFFCURVE",
"464 74 OFFCURVE",
"485 210 CURVE SMOOTH",
"567 730 LINE",
"302 730 LINE",
"289 648 LINE",
"464 648 LINE",
"395 210 LINE SMOOTH",
"381 121 OFFCURVE",
"323 70 OFFCURVE",
"238 70 CURVE SMOOTH",
"152 70 OFFCURVE",
"111 121 OFFCURVE",
"125 210 CURVE",
"35 210 LINE",
"13 74 OFFCURVE",
"85 -10 OFFCURVE",
"225 -10 CURVE SMOOTH"
);
}
);
width = 600;
},
{
associatedMasterId = "76E9374A-352D-4379-9771-A49E7E8AA0DC";
layerId = "4D1F24A9-7F62-4711-AC2F-D8EB6C907C30";
name = public.background;
paths = (
{
closed = 1;
nodes = (
"255 0 LINE SMOOTH",
"388.91 0 OFFCURVE",
"475 81.99 OFFCURVE",
"475 209 CURVE SMOOTH",
"475 730 LINE",
"130 730 LINE",
"130 680 LINE",
"425 680 LINE",
"425 209 LINE SMOOTH",
"425 109.408 OFFCURVE",
"358.64 45 OFFCURVE",
"255 45 CURVE SMOOTH",
"85 45 LINE",
"84.748 -0.396 LINE"
);
}
);
width = 600;
},
{
layerId = "76E9374A-352D-4379-9771-A49E7E8AA0DC";
paths = (
{
closed = 1;
nodes = (
"362 -10 OFFCURVE",
"447 65 OFFCURVE",
"468 199 CURVE SMOOTH",
"552 730 LINE",
"315 730 LINE",
"307 680 LINE",
"494 680 LINE",
"418 199 LINE SMOOTH",
"402 99 OFFCURVE",
"331 35 OFFCURVE",
"237 35 CURVE SMOOTH",
"141 35 OFFCURVE",
"92 97 OFFCURVE",
"108 200 CURVE",
"58 200 LINE",
"38 69 OFFCURVE",
"102 -10 OFFCURVE",
"230 -10 CURVE SMOOTH"
);
}
);
width = 600;
}
);
unicode = 004A;
},
{
color = (153,255,154,255);
glyphname = K;
layers = (
{
layerId = "681EDAF7-11DB-44DD-9204-6ED8688B749D";
paths = (
{
closed = 1;
nodes = (
"171 0 LINE",
"220 311 LINE",
"294 311 LINE",
"368 0 LINE",
"531 0 LINE",
"432 375 LINE",
"641 730 LINE",
"479 730 LINE",
"312 449 LINE",
"242 449 LINE",
"287 730 LINE",
"137 730 LINE",
"21 0 LINE"
);
}
);
width = 600;
},
{
hints = (
{
place = "{46, 46}";
type = Stem;
},
{
horizontal = 1;
place = "{291, 35}";
type = Stem;
},
{
horizontal = 1;
place = "{676, -20}";
target = down;
type = TopGhost;
},
{
horizontal = 1;
place = "{-44, 21}";
target = up;
type = BottomGhost;
}
);
layerId = "03C02FE7-7458-4762-A27C-0F6E25AC479F";
paths = (
{
closed = 1;
nodes = (
"140 0 LINE",
"194 338 LINE",
"301 338 LINE",
"416 0 LINE",
"516 0 LINE",
"384 376 LINE",
"622 730 LINE",
"521 730 LINE",
"306 417 LINE",
"206 417 LINE",
"256 730 LINE",
"166 730 LINE",
"50 0 LINE"
);
}
);
width = 600;
},
{
layerId = "76E9374A-352D-4379-9771-A49E7E8AA0DC";
paths = (
{
closed = 1;
nodes = (
"116 0 LINE",
"172 356 LINE",
"326 356 LINE",
"439 0 LINE",
"496 0 LINE",
"373 378 LINE",
"602 731 LINE",
"543 731 LINE",
"331 401 LINE",
"180 401 LINE",
"232 731 LINE",
"182 731 LINE",
"66 0 LINE"
);
}
);
width = 600;
}
);
unicode = 004B;
},
{
glyphname = L;
layers = (
{
layerId = "681EDAF7-11DB-44DD-9204-6ED8688B749D";
paths = (
{
closed = 1;
nodes = (
"496 0 LINE",
"518 140 LINE",
"223 140 LINE",
"317 730 LINE",
"167 730 LINE",
"51 0 LINE"
);
}
);
width = 600;
},
{
hints = (
{
place = "{61, 46}";
type = Stem;
},
{
horizontal = 1;
place = "{-44, 38}";
type = Stem;
},
{
horizontal = 1;
place = "{676, -20}";
target = down;
type = TopGhost;
}
);
layerId = "03C02FE7-7458-4762-A27C-0F6E25AC479F";
paths = (
{
closed = 1;
nodes = (
"491 0 LINE",
"504 82 LINE",
"169 82 LINE",
"272 730 LINE",
"182 730 LINE",
"66 0 LINE"
);
}
);
width = 600;
},
{
layerId = "76E9374A-352D-4379-9771-A49E7E8AA0DC";
paths = (
{
closed = 1;
nodes = (
"481 0 LINE",
"488 45 LINE",
"133 45 LINE",
"242 730 LINE",
"192 730 LINE",
"76 0 LINE"
);
}
);
width = 600;
}
);
unicode = 004C;
},
{
color = (153,255,154,255);
glyphname = Lslash;
layers = (
{
components = (
{
alignment = -1;
name = L;
transform = "{1, 0, 0, 1, 10, 0}";
}
);
layerId = "681EDAF7-11DB-44DD-9204-6ED8688B749D";
paths = (
{
closed = 1;
nodes = (
"423 420 LINE",
"445 560 LINE",
"35 370 LINE",
"12 230 LINE"
);
}
);
width = 600;
},
{
components = (
{
alignment = -1;
name = L;
}
);
hints = (
{
place = "{61, 46}";
type = Stem;
},
{
horizontal = 1;
place = "{-44, 38}";
type = Stem;
},
{
horizontal = 1;
place = "{676, -20}";
target = down;
type = TopGhost;
}
);
layerId = "03C02FE7-7458-4762-A27C-0F6E25AC479F";
paths = (
{
closed = 1;
nodes = (
"422 480 LINE",
"435 560 LINE",
"25 310 LINE",
"12 230 LINE"
);
}
);
width = 600;
},
{
components = (
{
alignment = -1;
name = L;
transform = "{1, 0, 0, 1, 10, 0}";
}
);
layerId = "76E9374A-352D-4379-9771-A49E7E8AA0DC";
paths = (
{
closed = 1;
nodes = (
"424 495 LINE",
"433 550 LINE",
"23 295 LINE",
"14 240 LINE"
);
}
);
width = 600;
}
);
unicode = 0141;
},
{
glyphname = M;
layers = (
{
layerId = "681EDAF7-11DB-44DD-9204-6ED8688B749D";
paths = (
{
closed = 1;
nodes = (
"135 0 LINE",
"179 280 LINE SMOOTH",
"200 410 OFFCURVE",
"209 650 OFFCURVE",
"209 650 CURVE",
"241 300 LINE",
"368 300 LINE",
"506 650 LINE",
"506 650 OFFCURVE",
"440 400 OFFCURVE",
"421 280 CURVE SMOOTH",
"377 0 LINE",
"514 0 LINE",
"630 730 LINE",
"461 730 LINE",
"357 490 LINE SMOOTH",
"329 424 OFFCURVE",
"318 384 OFFCURVE",
"318 384 CURVE",
"318 384 OFFCURVE",
"320 424 OFFCURVE",
"312 490 CURVE SMOOTH",
"283 730 LINE",
"114 730 LINE",
"-2 0 LINE"
);
}
);
width = 600;
},
{
hints = (
{
place = "{31, 39}";
type = Stem;
},
{
place = "{398, 39}";
type = Stem;
},
{
horizontal = 1;
place = "{676, -20}";
target = down;
type = TopGhost;
},
{
horizontal = 1;
place = "{-44, 21}";
target = up;
type = BottomGhost;
}
);
layerId = "03C02FE7-7458-4762-A27C-0F6E25AC479F";
paths = (
{
closed = 1;
nodes = (
"120 0 LINE",
"162 265 LINE SMOOTH",
"190 445 OFFCURVE",
"200 685 OFFCURVE",
"200 685 CURVE",
"261 320 LINE",
"356 320 LINE",
"532 685 LINE",
"532 685 OFFCURVE",
"461 435 OFFCURVE",
"434 265 CURVE SMOOTH",
"392 0 LINE",
"480 0 LINE",
"596 730 LINE",
"478 730 LINE",
"368 495 LINE SMOOTH",
"340 435 OFFCURVE",
"319 382 OFFCURVE",
"320 382 CURVE",
"320 382 OFFCURVE",
"314 435 OFFCURVE",
"304 494 CURVE SMOOTH",
"266 730 LINE",
"148 730 LINE",
"32 0 LINE"
);
}
);
width = 600;
},
{
layerId = "76E9374A-352D-4379-9771-A49E7E8AA0DC";
paths = (
{
closed = 1;
nodes = (
"97 0 LINE",
"167 440 LINE SMOOTH",
"189 580 OFFCURVE",
"203 705 OFFCURVE",
"203 705 CURVE",
"281 325 LINE",
"334 325 LINE",
"532 705 LINE",
"532 705 OFFCURVE",
"507 580 OFFCURVE",
"485 440 CURVE SMOOTH",
"415 0 LINE",
"464 0 LINE",
"580 730 LINE",
"506 730 LINE",
"361 450 LINE SMOOTH",
"339 409 OFFCURVE",
"314 359 OFFCURVE",
"314 359 CURVE",
"314 359 OFFCURVE",
"305 410 OFFCURVE",
"297 450 CURVE SMOOTH",
"239 730 LINE",
"164 730 LINE",
"48 0 LINE"
);
}
);
width = 600;
}
);
unicode = 004D;
},
{
glyphname = N;
layers = (
{
associatedMasterId = "76E9374A-352D-4379-9771-A49E7E8AA0DC";
layerId = "4D1F24A9-7F62-4711-AC2F-D8EB6C907C30";
name = public.background;
paths = (
{
closed = 1;
nodes = (
"60 0 LINE",
"192 0 LINE",
"192 360 LINE SMOOTH",
"192 455 OFFCURVE",
"160 560 OFFCURVE",
"160 560 CURVE",
"186 560 LINE",
"186 560 OFFCURVE",
"207.353 474.726 OFFCURVE",
"222.205 430 CURVE SMOOTH",
"365 0 LINE",
"540 0 LINE",
"540 730 LINE",
"408 730 LINE",
"408 390 LINE SMOOTH",
"408 294.8 OFFCURVE",
"443 170 OFFCURVE",
"442 170 CURVE",
"416 170 LINE",
"416 170 OFFCURVE",
"389.247 275.139 OFFCURVE",
"376.755 311.976 CURVE SMOOTH",
"235 730 LINE",
"60 730 LINE"
);
}
);
width = 600;
},
{
layerId = "681EDAF7-11DB-44DD-9204-6ED8688B749D";
paths = (
{
closed = 1;
nodes = (
"148 0 LINE",
"199 320 LINE SMOOTH",
"214 415 OFFCURVE",
"224 565 OFFCURVE",
"223 565 CURVE",
"321 0 LINE",
"496 0 LINE",
"612 730 LINE",
"480 730 LINE",
"432 430 LINE SMOOTH",
"417 335 OFFCURVE",
"406 165 OFFCURVE",
"406 165 CURVE",
"307 730 LINE",
"132 730 LINE",
"16 0 LINE"
);
}
);
width = 600;
},
{
layerId = "03C02FE7-7458-4762-A27C-0F6E25AC479F";
paths = (
{
closed = 1;
nodes = (
"133 0 LINE",
"198 410 LINE SMOOTH",
"214 510 OFFCURVE",
"223 625 OFFCURVE",
"223 625 CURVE",
"346 0 LINE",
"466 0 LINE",
"582 730 LINE",
"495 730 LINE",
"430 320 LINE SMOOTH",
"414 220 OFFCURVE",
"406 105 OFFCURVE",
"406 105 CURVE",
"282 730 LINE",
"162 730 LINE",
"46 0 LINE"
);
}
);
width = 600;
},
{
layerId = "76E9374A-352D-4379-9771-A49E7E8AA0DC";
paths = (
{
closed = 1;
nodes = (
"114 0 LINE",
"203 560 LINE SMOOTH",
"214 630 OFFCURVE",
"219 675 OFFCURVE",
"219 675 CURVE",
"376 0 LINE",
"446 0 LINE",
"562 730 LINE",
"514 730 LINE",
"425 170 LINE SMOOTH",
"422 149 OFFCURVE",
"411 55 OFFCURVE",
"411 55 CURVE",
"251 730 LINE",
"182 730 LINE",
"66 0 LINE"
);
}
);
width = 600;
}
);
unicode = 004E;
},
{
glyphname = Eng;
layers = (
{
layerId = "681EDAF7-11DB-44DD-9204-6ED8688B749D";
paths = (
{
closed = 1;
nodes = (
"227 -180 LINE SMOOTH",
"368 -180 OFFCURVE",
"481 -96 OFFCURVE",
"500 25 CURVE SMOOTH",
"612 730 LINE",
"612 730 OFFCURVE",
"511 730 OFFCURVE",
"480 730 CURVE",
"447 526 LINE SMOOTH",
"432 431 OFFCURVE",
"421 261 OFFCURVE",
"421 261 CURVE",
"307 730 LINE",
"132 730 LINE",
"16 0 LINE",
"16 0 OFFCURVE",
"117 0 OFFCURVE",
"148 0 CURVE",
"199 320 LINE SMOOTH",
"214 415 OFFCURVE",
"224 565 OFFCURVE",
"223 565 CURVE",
"352 41 LINE",
"345 -7 OFFCURVE",
"311 -35 OFFCURVE",
"260 -35 CURVE SMOOTH",
"200 -35 LINE",
"177 -180 LINE"
);
}
);
width = 600;
},
{
hints = (
{
place = "{41, 42}";
type = Stem;
},
{
place = "{385, 42}";
type = Stem;
},
{
horizontal = 1;
place = "{-214, 38}";
type = Stem;
},
{
horizontal = 1;
place = "{676, -20}";
target = down;
type = TopGhost;
}
);
layerId = "03C02FE7-7458-4762-A27C-0F6E25AC479F";
paths = (
{
closed = 1;
nodes = (
"232 -180 LINE SMOOTH",
"356 -180 OFFCURVE",
"450 -103 OFFCURVE",
"468 15 CURVE SMOOTH",
"582 730 LINE",
"582 730 OFFCURVE",
"512 730 OFFCURVE",
"495 730 CURVE",
"442 397 LINE SMOOTH",
"426 297 OFFCURVE",
"418 181 OFFCURVE",
"418 181 CURVE",
"282 730 LINE",
"162 730 LINE",
"46 0 LINE",
"46 0 OFFCURVE",
"117 0 OFFCURVE",
"133 0 CURVE",
"198 410 LINE SMOOTH",
"214 510 OFFCURVE",
"223 625 OFFCURVE",
"223 625 CURVE",
"378 15 LINE",
"367 -55 OFFCURVE",
"316 -98 OFFCURVE",
"245 -98 CURVE SMOOTH",
"180 -98 LINE",
"167 -180 LINE"
);
}
);
width = 600;
},
{
layerId = "76E9374A-352D-4379-9771-A49E7E8AA0DC";
paths = (
{
closed = 1;
nodes = (
"234 -180 LINE SMOOTH",
"352 -180 OFFCURVE",
"429 -115 OFFCURVE",
"447 0 CURVE SMOOTH",
"563 730 LINE",
"563 730 OFFCURVE",
"524 730 OFFCURVE",
"515 730 CURVE",
"434 219 LINE SMOOTH",
"423 149 OFFCURVE",
"418 94 OFFCURVE",
"418 94 CURVE",
"250 730 LINE",
"181 730 LINE",
"65 0 LINE",
"65 0 OFFCURVE",
"104 0 OFFCURVE",
"113 0 CURVE",
"202 560 LINE SMOOTH",
"213 630 OFFCURVE",
"218 675 OFFCURVE",
"218 675 CURVE",
"397 0 LINE",
"383 -88 OFFCURVE",
"329 -135 OFFCURVE",
"242 -135 CURVE SMOOTH",
"162 -135 LINE",
"154 -180 LINE"
);
}
);
width = 600;
}
);
unicode = 014A;
},
{
color = (153,255,154,255);
glyphname = O;
layers = (
{
layerId = "681EDAF7-11DB-44DD-9204-6ED8688B749D";
paths = (
{
closed = 1;
nodes = (
"405 -10 OFFCURVE",
"507 71 OFFCURVE",
"529 210 CURVE SMOOTH",
"578 520 LINE SMOOTH",
"599 652 OFFCURVE",
"521 740 OFFCURVE",
"373 740 CURVE SMOOTH",
"223 740 OFFCURVE",
"120 658 OFFCURVE",
"98 520 CURVE SMOOTH",
"49 210 LINE SMOOTH",
"28 78 OFFCURVE",
"107 -10 OFFCURVE",
"254 -10 CURVE SMOOTH"
);
},
{
closed = 1;
nodes = (
"215 120 OFFCURVE",
"190 152 OFFCURVE",
"199 210 CURVE SMOOTH",
"248 520 LINE SMOOTH",
"257 578 OFFCURVE",
"294 610 OFFCURVE",
"353 610 CURVE SMOOTH",
"414 610 OFFCURVE",
"438 578 OFFCURVE",
"428 520 CURVE SMOOTH",
"379 210 LINE SMOOTH",
"370 152 OFFCURVE",
"333 120 OFFCURVE",
"275 120 CURVE SMOOTH"
);
}
);
width = 600;
},
{
hints = (
{
place = "{36, 46}";
type = Stem;
},
{
place = "{386, 46}";
type = Stem;
},
{
horizontal = 1;
place = "{-54, 36}";
type = Stem;
},
{
horizontal = 1;
place = "{606, 36}";
type = Stem;
}
);
layerId = "03C02FE7-7458-4762-A27C-0F6E25AC479F";
paths = (
{
closed = 1;
nodes = (
"391 -10 OFFCURVE",
"476 63 OFFCURVE",
"498 200 CURVE SMOOTH",
"550 531 LINE SMOOTH",
"571 661 OFFCURVE",
"504 740 OFFCURVE",
"373 740 CURVE SMOOTH",
"238 740 OFFCURVE",
"151 664 OFFCURVE",
"130 530 CURVE SMOOTH",
"78 200 LINE SMOOTH",
"57 69 OFFCURVE",
"124 -10 OFFCURVE",
"254 -10 CURVE SMOOTH"
);
},
{
closed = 1;
nodes = (
"189 70 OFFCURVE",
"154 115 OFFCURVE",
"168 200 CURVE SMOOTH",
"220 530 LINE SMOOTH",
"233 614 OFFCURVE",
"282 660 OFFCURVE",
"361 660 CURVE SMOOTH",
"438 660 OFFCURVE",
"473 615 OFFCURVE",
"460 530 CURVE SMOOTH",
"408 200 LINE SMOOTH",
"395 117 OFFCURVE",
"344 70 OFFCURVE",
"267 70 CURVE SMOOTH"
);
}
);
width = 600;
},
{
layerId = "76E9374A-352D-4379-9771-A49E7E8AA0DC";
paths = (
{
closed = 1;
nodes = (
"377 -10 OFFCURVE",
"461 64 OFFCURVE",
"481 190 CURVE SMOOTH",
"537 540 LINE SMOOTH",
"556 661 OFFCURVE",
"491 740 OFFCURVE",
"373 740 CURVE SMOOTH",
"255 740 OFFCURVE",
"166 661 OFFCURVE",
"147 540 CURVE SMOOTH",
"91 190 LINE SMOOTH",
"72 68 OFFCURVE",
"136 -10 OFFCURVE",
"254 -10 CURVE SMOOTH"
);
},
{
closed = 1;
nodes = (
"170 34 OFFCURVE",
"125 91 OFFCURVE",
"141 190 CURVE SMOOTH",
"197 540 LINE SMOOTH",
"212 638 OFFCURVE",
"275 696 OFFCURVE",
"366 696 CURVE SMOOTH",
"457 696 OFFCURVE",
"502 638 OFFCURVE",
"487 540 CURVE SMOOTH",
"431 190 LINE SMOOTH",
"415 93 OFFCURVE",
"351 34 OFFCURVE",
"261 34 CURVE SMOOTH"
);
}
);
width = 600;
}
);
unicode = 004F;
},
{
glyphname = Ohorn;
layers = (
{
layerId = "681EDAF7-11DB-44DD-9204-6ED8688B749D";
paths = (
{
closed = 1;
nodes = (
"402 -10 OFFCURVE",
"508 78 OFFCURVE",
"529 210 CURVE SMOOTH",
"578 520 LINE SMOOTH",
"599 652 OFFCURVE",
"521 740 OFFCURVE",
"373 740 CURVE SMOOTH",
"226 740 OFFCURVE",
"119 652 OFFCURVE",
"98 520 CURVE SMOOTH",
"49 210 LINE SMOOTH",
"28 78 OFFCURVE",
"107 -10 OFFCURVE",
"254 -10 CURVE SMOOTH"
);
},
{
closed = 1;
nodes = (
"215 120 OFFCURVE",
"190 152 OFFCURVE",
"199 210 CURVE SMOOTH",
"248 520 LINE SMOOTH",
"258 578 OFFCURVE",
"292 610 OFFCURVE",
"353 610 CURVE SMOOTH",
"414 610 OFFCURVE",
"438 578 OFFCURVE",
"428 520 CURVE SMOOTH",
"379 210 LINE SMOOTH",
"370 152 OFFCURVE",
"335 120 OFFCURVE",
"275 120 CURVE SMOOTH"
);
},
{
closed = 1;
nodes = (
"494 590 LINE SMOOTH",
"584 590 OFFCURVE",
"654 648 OFFCURVE",
"667 735 CURVE SMOOTH",
"684 840 LINE",
"564 840 LINE",
"546 729 LINE SMOOTH",
"543 706 OFFCURVE",
"525 690 OFFCURVE",
"503 690 CURVE SMOOTH",
"475 690 LINE",
"459 590 LINE"
);
}
);
width = 600;
},
{
hints = (
{
place = "{36, 46}";
type = Stem;
},
{
place = "{386, 46}";
type = Stem;
},
{
horizontal = 1;
place = "{-54, 36}";
type = Stem;
},
{
horizontal = 1;
place = "{606, 36}";
type = Stem;
}
);
layerId = "03C02FE7-7458-4762-A27C-0F6E25AC479F";
paths = (
{
closed = 1;
nodes = (
"385 -10 OFFCURVE",
"477 69 OFFCURVE",
"498 200 CURVE SMOOTH",
"550 531 LINE SMOOTH",
"571 661 OFFCURVE",
"504 740 OFFCURVE",
"373 740 CURVE SMOOTH",
"243 740 OFFCURVE",
"151 661 OFFCURVE",
"130 530 CURVE SMOOTH",
"78 200 LINE SMOOTH",
"57 69 OFFCURVE",
"124 -10 OFFCURVE",
"254 -10 CURVE SMOOTH"
);
},
{
closed = 1;
nodes = (
"189 70 OFFCURVE",
"154 115 OFFCURVE",
"168 200 CURVE SMOOTH",
"220 530 LINE SMOOTH",
"233 615 OFFCURVE",
"283 660 OFFCURVE",
"361 660 CURVE SMOOTH",
"438 660 OFFCURVE",
"473 615 OFFCURVE",
"460 530 CURVE SMOOTH",
"408 200 LINE SMOOTH",
"394 115 OFFCURVE",
"345 70 OFFCURVE",
"267 70 CURVE SMOOTH"
);
},
{
closed = 1;
nodes = (
"497 625 LINE SMOOTH",
"569 625 OFFCURVE",
"623 669 OFFCURVE",
"634 735 CURVE SMOOTH",
"651 840 LINE",
"576 840 LINE",
"560 740 LINE SMOOTH",
"555 708 OFFCURVE",
"533 690 OFFCURVE",
"502 690 CURVE SMOOTH",
"465 690 LINE",
"455 625 LINE"
);
}
);
width = 600;
},
{
layerId = "76E9374A-352D-4379-9771-A49E7E8AA0DC";
paths = (
{
closed = 1;
nodes = (
"373 -10 OFFCURVE",
"462 68 OFFCURVE",
"481 190 CURVE SMOOTH",
"537 540 LINE SMOOTH",
"556 661 OFFCURVE",
"491 740 OFFCURVE",
"373 740 CURVE SMOOTH",
"255 740 OFFCURVE",
"166 661 OFFCURVE",
"147 540 CURVE SMOOTH",
"91 190 LINE SMOOTH",
"72 68 OFFCURVE",
"136 -10 OFFCURVE",
"254 -10 CURVE SMOOTH"
);
},
{
closed = 1;
nodes = (
"170 34 OFFCURVE",
"125 91 OFFCURVE",
"141 190 CURVE SMOOTH",
"197 540 LINE SMOOTH",
"212 638 OFFCURVE",
"275 696 OFFCURVE",
"366 696 CURVE SMOOTH",
"457 696 OFFCURVE",
"502 638 OFFCURVE",
"487 540 CURVE SMOOTH",
"431 190 LINE SMOOTH",
"415 91 OFFCURVE",
"353 34 OFFCURVE",
"261 34 CURVE SMOOTH"
);
},
{
closed = 1;
nodes = (
"519 685 LINE SMOOTH",
"570 685 OFFCURVE",
"610 719 OFFCURVE",
"618 770 CURVE SMOOTH",
"629 840 LINE",
"589 840 LINE",
"578 770 LINE SMOOTH",
"573 740 OFFCURVE",
"552 720 OFFCURVE",
"525 720 CURVE SMOOTH",
"450 720 LINE",
"445 685 LINE"
);
}
);
width = 600;
}
);
unicode = 01A0;
},
{
color = (255,204,153,255);
glyphname = Oslash;
layers = (
{
components = (
{
alignment = -1;
name = O;
}
);
guideLines = (
{
angle = 90;
position = "{31, -20}";
},
{
angle = 90;
position = "{386, -20}";
}
);
layerId = "681EDAF7-11DB-44DD-9204-6ED8688B749D";
paths = (
{
closed = 1;
nodes = (
"83 -40 LINE",
"660 750 LINE",
"542 750 LINE",
"-35 -40 LINE"
);
}
);
width = 600;
},
{
components = (
{
alignment = -1;
name = O;
}
);
hints = (
{
place = "{36, 46}";
type = Stem;
},
{
place = "{386, 46}";
type = Stem;
},
{
horizontal = 1;
place = "{-54, 36}";
type = Stem;
},
{
horizontal = 1;
place = "{606, 36}";
type = Stem;
}
);
layerId = "03C02FE7-7458-4762-A27C-0F6E25AC479F";
paths = (
{
closed = 1;
nodes = (
"69 -40 LINE",
"640 750 LINE",
"556 750 LINE",
"-15 -40 LINE"
);
}
);
width = 600;
},
{
components = (
{
alignment = -1;
name = O;
}
);
layerId = "76E9374A-352D-4379-9771-A49E7E8AA0DC";
paths = (
{
closed = 1;
nodes = (
"47 -40 LINE",
"626 750 LINE",
"578 750 LINE",
"-1 -40 LINE"
);
}
);
width = 600;
}
);
unicode = 00D8;
},
{
color = (255,204,153,255);
glyphname = OE;
layers = (
{
layerId = "681EDAF7-11DB-44DD-9204-6ED8688B749D";
paths = (
{
closed = 1;
nodes = (
"229 -4 OFFCURVE",
"255 86 OFFCURVE",
"255 86 CURVE",
"260 86 LINE",
"246 0 LINE",
"536 0 LINE",
"556 126 LINE",
"395 126 LINE",
"424 311 LINE",
"560 311 LINE",
"580 437 LINE",
"444 437 LINE",
"471 605 LINE",
"632 605 LINE",
"652 730 LINE",
"362 730 LINE",
"349 650 LINE",
"344 650 LINE",
"344 650 OFFCURVE",
"347 740 OFFCURVE",
"248 740 CURVE SMOOTH",
"157 740 OFFCURVE",
"91 666 OFFCURVE",
"72 541 CURVE SMOOTH",
"17 195 LINE SMOOTH",
"-3 70 OFFCURVE",
"39 -4 OFFCURVE",
"130 -4 CURVE SMOOTH"
);
},
{
closed = 1;
nodes = (
"167 121 OFFCURVE",
"150 149 OFFCURVE",
"157 195 CURVE SMOOTH",
"212 541 LINE SMOOTH",
"219 587 OFFCURVE",
"245 615 OFFCURVE",
"280 615 CURVE SMOOTH",
"316 615 OFFCURVE",
"333 588 OFFCURVE",
"326 541 CURVE SMOOTH",
"271 195 LINE SMOOTH",
"263 148 OFFCURVE",
"238 121 OFFCURVE",
"202 121 CURVE SMOOTH"
);
}
);
width = 600;
},
{
hints = (
{
place = "{-4, 46}";
type = Stem;
},
{
place = "{266, 44}";
type = Stem;
},
{
place = "{266, 196}";
type = Stem;
},
{
horizontal = 1;
place = "{-54, 36}";
type = Stem;
},
{
horizontal = 1;
place = "{287, 38}";
type = Stem;
},
{
horizontal = 1;
place = "{594, 38}";
type = Stem;
},
{
horizontal = 1;
place = "{606, 26}";
type = Stem;
},
{
horizontal = 1;
place = "{-54, 48}";
type = Stem;
}
);
layerId = "03C02FE7-7458-4762-A27C-0F6E25AC479F";
paths = (
{
closed = 1;
nodes = (
"244 -10 OFFCURVE",
"274 80 OFFCURVE",
"274 80 CURVE",
"279 80 LINE",
"266 0 LINE",
"531 0 LINE",
"544 82 LINE",
"367 82 LINE",
"407 336 LINE",
"559 336 LINE",
"572 418 LINE",
"420 418 LINE",
"457 648 LINE",
"634 648 LINE",
"647 730 LINE",
"382 730 LINE",
"369 650 LINE",
"364 650 LINE",
"364 650 OFFCURVE",
"363 740 OFFCURVE",
"268 740 CURVE SMOOTH",
"172 740 OFFCURVE",
"102 667 OFFCURVE",
"83 550 CURVE SMOOTH",
"25 180 LINE SMOOTH",
"6 63 OFFCURVE",
"53 -10 OFFCURVE",
"149 -10 CURVE SMOOTH"
);
},
{
closed = 1;
nodes = (
"131 70 OFFCURVE",
"104 112 OFFCURVE",
"115 180 CURVE SMOOTH",
"173 550 LINE SMOOTH",
"184 618 OFFCURVE",
"225 660 OFFCURVE",
"281 660 CURVE SMOOTH",
"337 660 OFFCURVE",
"364 618 OFFCURVE",
"353 550 CURVE SMOOTH",
"295 180 LINE SMOOTH",
"284 112 OFFCURVE",
"243 70 OFFCURVE",
"187 70 CURVE SMOOTH"
);
}
);
width = 600;
},
{
layerId = "76E9374A-352D-4379-9771-A49E7E8AA0DC";
paths = (
{
closed = 1;
nodes = (
"245 -10 OFFCURVE",
"284 80 OFFCURVE",
"284 80 CURVE",
"289 80 LINE",
"276 0 LINE",
"525 0 LINE",
"533 50 LINE",
"339 50 LINE",
"387 352 LINE",
"545 352 LINE",
"553 402 LINE",
"395 402 LINE",
"439 680 LINE",
"633 680 LINE",
"641 730 LINE",
"392 730 LINE",
"379 650 LINE",
"374 650 LINE",
"374 650 OFFCURVE",
"364 740 OFFCURVE",
"269 740 CURVE SMOOTH",
"178 740 OFFCURVE",
"101 664 OFFCURVE",
"84 557 CURVE SMOOTH",
"23 173 LINE SMOOTH",
"6 66 OFFCURVE",
"59 -10 OFFCURVE",
"150 -10 CURVE SMOOTH"
);
},
{
closed = 1;
nodes = (
"102 40 OFFCURVE",
"66 94 OFFCURVE",
"78 173 CURVE SMOOTH",
"139 557 LINE SMOOTH",
"152 636 OFFCURVE",
"205 690 OFFCURVE",
"272 690 CURVE SMOOTH",
"338 690 OFFCURVE",
"377 638 OFFCURVE",
"364 557 CURVE SMOOTH",
"303 173 LINE SMOOTH",
"291 92 OFFCURVE",
"235 40 OFFCURVE",
"169 40 CURVE SMOOTH"
);
}
);
width = 600;
}
);
unicode = 0152;
},
{
glyphname = P;
layers = (
{
layerId = "681EDAF7-11DB-44DD-9204-6ED8688B749D";
paths = (
{
closed = 1;
nodes = (
"172 0 LINE",
"214 266 LINE",
"313 266 LINE SMOOTH",
"466 266 OFFCURVE",
"583 359 OFFCURVE",
"605 498 CURVE SMOOTH",
"627 638 OFFCURVE",
"540 730 OFFCURVE",
"387 730 CURVE SMOOTH",
"138 730 LINE",
"22 0 LINE"
);
},
{
closed = 1;
nodes = (
"266 595 LINE",
"365 595 LINE SMOOTH",
"429 595 OFFCURVE",
"464 557 OFFCURVE",
"455 498 CURVE SMOOTH",
"446 439 OFFCURVE",
"399 401 OFFCURVE",
"335 401 CURVE SMOOTH",
"236 401 LINE"
);
}
);
width = 600;
},
{
hints = (
{
place = "{46, 46}";
type = Stem;
},
{
place = "{413, 49}";
type = Stem;
},
{
horizontal = 1;
place = "{256, 36}";
type = Stem;
},
{
horizontal = 1;
place = "{596, 36}";
type = Stem;
},
{
horizontal = 1;
place = "{-44, 21}";
target = up;
type = BottomGhost;
}
);
layerId = "03C02FE7-7458-4762-A27C-0F6E25AC479F";
paths = (
{
closed = 1;
nodes = (
"140 0 LINE",
"188 300 LINE",
"331 300 LINE SMOOTH",
"466 300 OFFCURVE",
"567 384 OFFCURVE",
"588 515 CURVE SMOOTH",
"608 646 OFFCURVE",
"535 730 OFFCURVE",
"399 730 CURVE SMOOTH",
"166 730 LINE",
"50 0 LINE"
);
},
{
closed = 1;
nodes = (
"243 650 LINE",
"386 650 LINE SMOOTH",
"465 650 OFFCURVE",
"508 597 OFFCURVE",
"495 515 CURVE SMOOTH",
"482 433 OFFCURVE",
"422 380 OFFCURVE",
"343 380 CURVE SMOOTH",
"200 380 LINE"
);
}
);
width = 600;
},
{
layerId = "76E9374A-352D-4379-9771-A49E7E8AA0DC";
paths = (
{
closed = 1;
nodes = (
"116 0 LINE",
"167 324 LINE",
"332 324 LINE SMOOTH",
"459 324 OFFCURVE",
"555 404 OFFCURVE",
"574 527 CURVE SMOOTH",
"594 650 OFFCURVE",
"524 730 OFFCURVE",
"397 730 CURVE SMOOTH",
"182 730 LINE",
"66 0 LINE"
);
},
{
closed = 1;
nodes = (
"225 685 LINE",
"390 685 LINE SMOOTH",
"487 685 OFFCURVE",
"540 624 OFFCURVE",
"524 527 CURVE SMOOTH",
"509 431 OFFCURVE",
"437 369 OFFCURVE",
"339 369 CURVE SMOOTH",
"174 369 LINE"
);
}
);
width = 600;
}
);
unicode = 0050;
},
{
color = (153,255,154,255);
glyphname = Thorn;
layers = (
{
layerId = "681EDAF7-11DB-44DD-9204-6ED8688B749D";
paths = (
{
closed = 1;
nodes = (
"176 0 LINE",
"202 165 LINE",
"322 165 LINE SMOOTH",
"465 165 OFFCURVE",
"565 246 OFFCURVE",
"586 380 CURVE SMOOTH",
"608 515 OFFCURVE",
"534 595 OFFCURVE",
"390 595 CURVE SMOOTH",
"270 595 LINE",
"292 730 LINE",
"142 730 LINE",
"26 0 LINE"
);
},
{
closed = 1;
nodes = (
"250 470 LINE",
"345 470 LINE SMOOTH",
"413 470 OFFCURVE",
"445 438 OFFCURVE",
"436 380 CURVE SMOOTH",
"427 322 OFFCURVE",
"385 290 OFFCURVE",
"317 290 CURVE SMOOTH",
"222 290 LINE"
);
}
);
width = 600;
},
{
hints = (
{
place = "{46, 46}";
type = Stem;
},
{
place = "{413, 49}";
type = Stem;
},
{
horizontal = 1;
place = "{131, 36}";
type = Stem;
},
{
horizontal = 1;
place = "{451, 36}";
type = Stem;
},
{
horizontal = 1;
place = "{-44, 21}";
target = up;
type = BottomGhost;
},
{
horizontal = 1;
place = "{666, -20}";
target = down;
type = TopGhost;
}
);
layerId = "03C02FE7-7458-4762-A27C-0F6E25AC479F";
paths = (
{
closed = 1;
nodes = (
"136 0 LINE",
"165 180 LINE",
"318 180 LINE SMOOTH",
"450 180 OFFCURVE",
"547 258 OFFCURVE",
"566 380 CURVE SMOOTH",
"585 500 OFFCURVE",
"512 580 OFFCURVE",
"381 580 CURVE SMOOTH",
"228 580 LINE",
"252 730 LINE",
"162 730 LINE",
"46 0 LINE"
);
},
{
closed = 1;
nodes = (
"215 500 LINE",
"368 500 LINE SMOOTH",
"444 500 OFFCURVE",
"485 454 OFFCURVE",
"473 380 CURVE SMOOTH",
"461 306 OFFCURVE",
"407 260 OFFCURVE",
"330 260 CURVE SMOOTH",
"177 260 LINE"
);
}
);
width = 600;
},
{
layerId = "76E9374A-352D-4379-9771-A49E7E8AA0DC";
paths = (
{
closed = 1;
nodes = (
"111 0 LINE",
"142 195 LINE",
"320 195 LINE SMOOTH",
"441 195 OFFCURVE",
"528 266 OFFCURVE",
"546 380 CURVE SMOOTH",
"564 494 OFFCURVE",
"500 565 OFFCURVE",
"378 565 CURVE SMOOTH",
"200 565 LINE",
"227 730 LINE",
"177 730 LINE",
"61 0 LINE"
);
},
{
closed = 1;
nodes = (
"193 520 LINE",
"371 520 LINE SMOOTH",
"462 520 OFFCURVE",
"510 467 OFFCURVE",
"496 380 CURVE SMOOTH",
"483 294 OFFCURVE",
"418 241 OFFCURVE",
"327 241 CURVE SMOOTH",
"149 241 LINE"
);
}
);
width = 600;
}
);
unicode = 00DE;
},
{
glyphname = Q;
layers = (
{
associatedMasterId = "76E9374A-352D-4379-9771-A49E7E8AA0DC";
layerId = "4D1F24A9-7F62-4711-AC2F-D8EB6C907C30";
name = public.background;
paths = (
{
closed = 1;
nodes = (
"208.427 34 OFFCURVE",
"155 91.48 OFFCURVE",
"155 190 CURVE SMOOTH",
"155 540 LINE SMOOTH",
"155 638.005 OFFCURVE",
"208.906 696 OFFCURVE",
"300 696 CURVE SMOOTH",
"391.094 696 OFFCURVE",
"445 638.005 OFFCURVE",
"445 540 CURVE SMOOTH",
"445 190 LINE SMOOTH",
"445 91.48 OFFCURVE",
"391.573 34 OFFCURVE",
"300 34 CURVE SMOOTH"
);
},
{
closed = 1;
nodes = (
"418.5 -10 OFFCURVE",
"495 68.462 OFFCURVE",
"495 190 CURVE SMOOTH",
"495 540 LINE SMOOTH",
"495 661.235 OFFCURVE",
"418.204 740 OFFCURVE",
"300 740 CURVE SMOOTH",
"181.796 740 OFFCURVE",
"105 661.235 OFFCURVE",
"105 540 CURVE SMOOTH",
"105 190 LINE SMOOTH",
"105 68.462 OFFCURVE",
"181.5 -10 OFFCURVE",
"300 -10 CURVE SMOOTH"
);
}
);
width = 600;
},
{
layerId = "681EDAF7-11DB-44DD-9204-6ED8688B749D";
paths = (
{
closed = 1;
nodes = (
"483 -180 LINE",
"392 20 LINE",
"466 55 OFFCURVE",
"516 123 OFFCURVE",
"529 210 CURVE SMOOTH",
"578 520 LINE SMOOTH",
"599 652 OFFCURVE",
"517 740 OFFCURVE",
"373 740 CURVE SMOOTH",
"228 740 OFFCURVE",
"119 653 OFFCURVE",
"98 520 CURVE SMOOTH",
"49 210 LINE SMOOTH",
"29 79 OFFCURVE",
"110 -10 OFFCURVE",
"254 -10 CURVE SMOOTH",
"262 -10 OFFCURVE",
"274 -9 OFFCURVE",
"274 -9 CURVE",
"245 4 LINE",
"327 -180 LINE"
);
},
{
closed = 1;
nodes = (
"213 121 OFFCURVE",
"190 153 OFFCURVE",
"199 210 CURVE SMOOTH",
"248 520 LINE SMOOTH",
"257 578 OFFCURVE",
"295 610 OFFCURVE",
"353 610 CURVE SMOOTH",
"411 610 OFFCURVE",
"438 578 OFFCURVE",
"428 520 CURVE SMOOTH",
"379 210 LINE SMOOTH",
"370 153 OFFCURVE",
"337 121 OFFCURVE",
"275 121 CURVE SMOOTH"
);
}
);
width = 600;
},
{
hints = (
{
place = "{36, 46}";
type = Stem;
},
{
place = "{386, 46}";
type = Stem;
},
{
horizontal = 1;
place = "{-54, 36}";
type = Stem;
},
{
horizontal = 1;
place = "{606, 36}";
type = Stem;
},
{
horizontal = 1;
place = "{-209, 21}";
target = up;
type = BottomGhost;
}
);
layerId = "03C02FE7-7458-4762-A27C-0F6E25AC479F";
paths = (
{
closed = 1;
nodes = (
"453 -180 LINE",
"367 13 LINE",
"442 46 OFFCURVE",
"494 115 OFFCURVE",
"508 205 CURVE SMOOTH",
"559 525 LINE SMOOTH",
"580 656 OFFCURVE",
"508 740 OFFCURVE",
"373 740 CURVE SMOOTH",
"238 740 OFFCURVE",
"140 656 OFFCURVE",
"119 525 CURVE SMOOTH",
"68 205 LINE SMOOTH",
"48 74 OFFCURVE",
"119 -10 OFFCURVE",
"254 -10 CURVE SMOOTH",
"268 -10 OFFCURVE",
"280 -9 OFFCURVE",
"280 -9 CURVE",
"271 -3 LINE",
"349 -180 LINE"
);
},
{
closed = 1;
nodes = (
"188 70 OFFCURVE",
"145 123 OFFCURVE",
"158 205 CURVE SMOOTH",
"209 525 LINE SMOOTH",
"222 607 OFFCURVE",
"282 660 OFFCURVE",
"361 660 CURVE SMOOTH",
"440 660 OFFCURVE",
"482 607 OFFCURVE",
"469 525 CURVE SMOOTH",
"418 205 LINE SMOOTH",
"405 123 OFFCURVE",
"346 70 OFFCURVE",
"267 70 CURVE SMOOTH"
);
}
);
width = 600;
},
{
layerId = "76E9374A-352D-4379-9771-A49E7E8AA0DC";
paths = (
{
closed = 1;
nodes = (
"437 -180 LINE",
"353 10 LINE",
"421 40 OFFCURVE",
"468 106 OFFCURVE",
"481 190 CURVE SMOOTH",
"537 540 LINE SMOOTH",
"555 656 OFFCURVE",
"493 740 OFFCURVE",
"374 740 CURVE SMOOTH",
"254 740 OFFCURVE",
"166 662 OFFCURVE",
"147 540 CURVE SMOOTH",
"91 190 LINE SMOOTH",
"72 69 OFFCURVE",
"137 -10 OFFCURVE",
"255 -10 CURVE SMOOTH",
"283 -10 OFFCURVE",
"309 -5 OFFCURVE",
"309 -5 CURVE",
"295 0 LINE",
"376 -180 LINE"
);
},
{
closed = 1;
nodes = (
"170 35 OFFCURVE",
"126 92 OFFCURVE",
"141 190 CURVE SMOOTH",
"197 540 LINE SMOOTH",
"212 638 OFFCURVE",
"275 695 OFFCURVE",
"367 695 CURVE SMOOTH",
"457 695 OFFCURVE",
"502 637 OFFCURVE",
"487 540 CURVE SMOOTH",
"431 190 LINE SMOOTH",
"416 92 OFFCURVE",
"353 35 OFFCURVE",
"263 35 CURVE SMOOTH"
);
}
);
width = 600;
}
);
unicode = 0051;
},
{
glyphname = R;
layers = (
{
associatedMasterId = "76E9374A-352D-4379-9771-A49E7E8AA0DC";
layerId = "4D1F24A9-7F62-4711-AC2F-D8EB6C907C30";
name = public.background;
paths = (
{
closed = 1;
nodes = (
"214 0 LINE",
"65 0 LINE",
"65 730 LINE",
"305 730 LINE SMOOTH",
"461 730 OFFCURVE",
"560 645 OFFCURVE",
"560 510 CURVE SMOOTH",
"560 376 OFFCURVE",
"460 290 OFFCURVE",
"305 290 CURVE SMOOTH",
"214 290 LINE"
);
},
{
closed = 1;
nodes = (
"305 405 LINE SMOOTH",
"370 405 OFFCURVE",
"410 443 OFFCURVE",
"410 503 CURVE SMOOTH",
"410 565 OFFCURVE",
"369 605 OFFCURVE",
"305 605 CURVE SMOOTH",
"214 605 LINE",
"214 405 LINE"
);
},
{
closed = 1;
nodes = (
"269 333 LINE",
"423 333 LINE",
"570 0 LINE",
"410 0 LINE"
);
}
);
width = 600;
},
{
layerId = "681EDAF7-11DB-44DD-9204-6ED8688B749D";
paths = (
{
closed = 1;
nodes = (
"170 0 LINE",
"214 276 LINE",
"284 276 LINE",
"358 0 LINE",
"521 0 LINE",
"431 300 LINE",
"514 333 OFFCURVE",
"576 413 OFFCURVE",
"591 508 CURVE SMOOTH",
"613 644 OFFCURVE",
"527 730 OFFCURVE",
"372 730 CURVE SMOOTH",
"137 730 LINE",
"21 0 LINE"
);
},
{
closed = 1;
nodes = (
"265 600 LINE",
"351 600 LINE SMOOTH",
"417 600 OFFCURVE",
"450 563 OFFCURVE",
"440 501 CURVE SMOOTH",
"431 441 OFFCURVE",
"386 406 OFFCURVE",
"320 406 CURVE SMOOTH",
"234 406 LINE"
);
}
);
width = 600;
},
{
hints = (
{
place = "{46, 46}";
type = Stem;
},
{
place = "{400, 49}";
type = Stem;
},
{
horizontal = 1;
place = "{256, 36}";
type = Stem;
},
{
horizontal = 1;
place = "{596, 36}";
type = Stem;
},
{
horizontal = 1;
place = "{-44, 21}";
target = up;
type = BottomGhost;
}
);
layerId = "03C02FE7-7458-4762-A27C-0F6E25AC479F";
paths = (
{
closed = 1;
nodes = (
"140 0 LINE",
"189 310 LINE",
"304 310 LINE",
"395 0 LINE",
"501 0 LINE",
"399 320 LINE",
"491 347 OFFCURVE",
"558 421 OFFCURVE",
"573 520 CURVE SMOOTH",
"593 645 OFFCURVE",
"520 730 OFFCURVE",
"390 730 CURVE SMOOTH",
"166 730 LINE",
"50 0 LINE"
);
},
{
closed = 1;
nodes = (
"243 650 LINE",
"377 650 LINE SMOOTH",
"451 650 OFFCURVE",
"493 598 OFFCURVE",
"480 520 CURVE SMOOTH",
"468 442 OFFCURVE",
"411 390 OFFCURVE",
"336 390 CURVE SMOOTH",
"202 390 LINE"
);
}
);
width = 600;
},
{
layerId = "76E9374A-352D-4379-9771-A49E7E8AA0DC";
paths = (
{
closed = 1;
nodes = (
"116 0 LINE",
"168 330 LINE",
"313 330 LINE",
"426 0 LINE",
"486 0 LINE",
"368 332 LINE",
"472 347 OFFCURVE",
"548 422 OFFCURVE",
"565 528 CURVE SMOOTH",
"584 652 OFFCURVE",
"516 730 OFFCURVE",
"387 730 CURVE SMOOTH",
"182 730 LINE",
"66 0 LINE"
);
},
{
closed = 1;
nodes = (
"225 685 LINE",
"380 685 LINE SMOOTH",
"477 685 OFFCURVE",
"530 624 OFFCURVE",
"515 530 CURVE SMOOTH",
"500 436 OFFCURVE",
"427 375 OFFCURVE",
"330 375 CURVE SMOOTH",
"175 375 LINE"
);
}
);
width = 600;
}
);
unicode = 0052;
},
{
color = (153,255,154,255);
glyphname = S;
layers = (
{
associatedMasterId = "76E9374A-352D-4379-9771-A49E7E8AA0DC";
layerId = "4D1F24A9-7F62-4711-AC2F-D8EB6C907C30";
name = public.background;
paths = (
{
closed = 1;
nodes = (
"151.256 -10 OFFCURVE",
"52.012 69.784 OFFCURVE",
"45 195 CURVE",
"195 195 LINE",
"199.979 146.209 OFFCURVE",
"237.72 120 OFFCURVE",
"303 120 CURVE SMOOTH",
"366.978 120 OFFCURVE",
"405 149.434 OFFCURVE",
"405 199 CURVE SMOOTH",
"405 241.797 OFFCURVE",
"376.285 274.199 OFFCURVE",
"328 285 CURVE SMOOTH",
"252 302 LINE SMOOTH",
"125.82 330.224 OFFCURVE",
"55 415.394 OFFCURVE",
"55 535 CURVE SMOOTH",
"55 658.968 OFFCURVE",
"152.359 740 OFFCURVE",
"298.197 740 CURVE SMOOTH",
"443 740 OFFCURVE",
"534 665 OFFCURVE",
"543 541 CURVE",
"393 541 LINE",
"387.926 585.654 OFFCURVE",
"352.151 610 OFFCURVE",
"294.197 610 CURVE SMOOTH",
"240.827 610 OFFCURVE",
"205 581.465 OFFCURVE",
"205 536 CURVE SMOOTH",
"205 495.79 OFFCURVE",
"233.407 459.808 OFFCURVE",
"277 450 CURVE SMOOTH",
"357 432 LINE SMOOTH",
"485.862 403.006 OFFCURVE",
"555 324.121 OFFCURVE",
"555 206 CURVE SMOOTH",
"555 76.776 OFFCURVE",
"452.556 -10 OFFCURVE",
"300 -10 CURVE SMOOTH"
);
}
);
width = 600;
},
{
layerId = "681EDAF7-11DB-44DD-9204-6ED8688B749D";
paths = (
{
closed = 1;
nodes = (
"410 -10 OFFCURVE",
"520 72 OFFCURVE",
"542 206 CURVE SMOOTH",
"560 322 OFFCURVE",
"506 397 OFFCURVE",
"380 427 CURVE SMOOTH",
"304 445 LINE SMOOTH",
"262 455 OFFCURVE",
"240 489 OFFCURVE",
"248 535 CURVE SMOOTH",
"255 581 OFFCURVE",
"294 610 OFFCURVE",
"349 610 CURVE SMOOTH",
"409 610 OFFCURVE",
"439 582 OFFCURVE",
"432 535 CURVE",
"582 535 LINE",
"602 660 OFFCURVE",
"519 740 OFFCURVE",
"371 740 CURVE SMOOTH",
"224 740 OFFCURVE",
"117 658 OFFCURVE",
"97 529 CURVE SMOOTH",
"79 419 OFFCURVE",
"141 335 OFFCURVE",
"258 307 CURVE SMOOTH",
"329 290 LINE SMOOTH",
"373 279 OFFCURVE",
"398 244 OFFCURVE",
"390 199 CURVE SMOOTH",
"383 150 OFFCURVE",
"340 120 OFFCURVE",
"278 120 CURVE SMOOTH",
"213 120 OFFCURVE",
"177 151 OFFCURVE",
"185 200 CURVE",
"35 200 LINE",
"14 72 OFFCURVE",
"100 -10 OFFCURVE",
"254 -10 CURVE SMOOTH"
);
}
);
width = 600;
},
{
hints = (
{
place = "{26, 51}";
type = Stem;
},
{
place = "{47, 47}";
type = Stem;
},
{
place = "{382, 60}";
type = Stem;
},
{
place = "{395, 47}";
type = Stem;
},
{
horizontal = 1;
place = "{-54, 36}";
type = Stem;
},
{
horizontal = 1;
place = "{606, 36}";
type = Stem;
}
);
layerId = "03C02FE7-7458-4762-A27C-0F6E25AC479F";
paths = (
{
closed = 1;
nodes = (
"396 -10 OFFCURVE",
"494 66 OFFCURVE",
"514 190 CURVE SMOOTH",
"530 288 OFFCURVE",
"484 362 OFFCURVE",
"390 394 CURVE SMOOTH",
"295 426 LINE SMOOTH",
"241 444 OFFCURVE",
"216 491 OFFCURVE",
"226 554 CURVE SMOOTH",
"236 620 OFFCURVE",
"290 661 OFFCURVE",
"366 661 CURVE SMOOTH",
"445 661 OFFCURVE",
"483 617 OFFCURVE",
"471 545 CURVE",
"561 545 LINE",
"578 663 OFFCURVE",
"507 741 OFFCURVE",
"379 741 CURVE SMOOTH",
"248 741 OFFCURVE",
"153 666 OFFCURVE",
"134 546 CURVE SMOOTH",
"119 450 OFFCURVE",
"166 375 OFFCURVE",
"259 344 CURVE SMOOTH",
"354 313 LINE SMOOTH",
"407 296 OFFCURVE",
"433 249 OFFCURVE",
"424 188 CURVE SMOOTH",
"412 116 OFFCURVE",
"353 70 OFFCURVE",
"271 70 CURVE SMOOTH",
"181 70 OFFCURVE",
"136 116 OFFCURVE",
"148 190 CURVE",
"58 190 LINE",
"41 66 OFFCURVE",
"115 -10 OFFCURVE",
"258 -10 CURVE SMOOTH"
);
}
);
width = 600;
},
{
layerId = "76E9374A-352D-4379-9771-A49E7E8AA0DC";
paths = (
{
closed = 1;
nodes = (
"390 -10 OFFCURVE",
"481 62 OFFCURVE",
"500 180 CURVE SMOOTH",
"515 276 OFFCURVE",
"465 353 OFFCURVE",
"371 384 CURVE SMOOTH",
"291 410 LINE SMOOTH",
"222 433 OFFCURVE",
"188 489 OFFCURVE",
"200 563 CURVE SMOOTH",
"213 645 OFFCURVE",
"278 695 OFFCURVE",
"371 695 CURVE SMOOTH",
"464 695 OFFCURVE",
"512 639 OFFCURVE",
"498 548 CURVE",
"548 548 LINE",
"566 662 OFFCURVE",
"497 740 OFFCURVE",
"379 740 CURVE SMOOTH",
"254 740 OFFCURVE",
"167 672 OFFCURVE",
"150 559 CURVE SMOOTH",
"135 467 OFFCURVE",
"182 393 OFFCURVE",
"273 365 CURVE SMOOTH",
"353 340 LINE SMOOTH",
"425 317 OFFCURVE",
"461 254 OFFCURVE",
"449 177 CURVE SMOOTH",
"435 89 OFFCURVE",
"366 35 OFFCURVE",
"267 35 CURVE SMOOTH",
"163 35 OFFCURVE",
"106 93 OFFCURVE",
"120 185 CURVE",
"70 185 LINE",
"52 67 OFFCURVE",
"126 -10 OFFCURVE",
"259 -10 CURVE SMOOTH"
);
}
);
width = 600;
}
);
unicode = 0053;
},
{
glyphname = Germandbls;
layers = (
{
layerId = "76E9374A-352D-4379-9771-A49E7E8AA0DC";
paths = (
{
closed = 1;
nodes = (
"117 0 LINE",
"203 543 LINE SMOOTH",
"217 629 OFFCURVE",
"283 685 OFFCURVE",
"371 685 CURVE SMOOTH",
"526 685 LINE",
"292 411 LINE",
"285 368 LINE",
"325 368 LINE SMOOTH",
"422 368 OFFCURVE",
"475 305 OFFCURVE",
"460 208 CURVE SMOOTH",
"444 109 OFFCURVE",
"371 45 OFFCURVE",
"274 45 CURVE SMOOTH",
"212 45 LINE",
"205 0 LINE",
"267 0 LINE SMOOTH",
"395 0 OFFCURVE",
"490 82 OFFCURVE",
"510 210 CURVE SMOOTH",
"529 330 OFFCURVE",
"460 407 OFFCURVE",
"332 407 CURVE",
"330 392 LINE",
"583 684 LINE",
"590 730 LINE",
"378 730 LINE SMOOTH",
"260 730 OFFCURVE",
"171 657 OFFCURVE",
"153 543 CURVE SMOOTH",
"67 0 LINE"
);
}
);
width = 600;
},
{
layerId = "03C02FE7-7458-4762-A27C-0F6E25AC479F";
paths = (
{
closed = 1;
nodes = (
"138 0 LINE",
"221 524 LINE SMOOTH",
"233 601 OFFCURVE",
"287 648 OFFCURVE",
"361 648 CURVE SMOOTH",
"488 648 LINE",
"293 423 LINE",
"281 345 LINE",
"326 345 LINE SMOOTH",
"406 345 OFFCURVE",
"448 295 OFFCURVE",
"435 215 CURVE SMOOTH",
"422 133 OFFCURVE",
"364 82 OFFCURVE",
"284 82 CURVE SMOOTH",
"227 82 LINE",
"214 0 LINE",
"281 0 LINE SMOOTH",
"410 0 OFFCURVE",
"510 86 OFFCURVE",
"530 215 CURVE SMOOTH",
"550 342 OFFCURVE",
"488 425 OFFCURVE",
"373 423 CURVE",
"370 395 LINE",
"587 642 LINE",
"601 730 LINE",
"374 730 LINE SMOOTH",
"248 730 OFFCURVE",
"151 648 OFFCURVE",
"131 524 CURVE SMOOTH",
"48 0 LINE"
);
}
);
width = 600;
},
{
layerId = "681EDAF7-11DB-44DD-9204-6ED8688B749D";
paths = (
{
closed = 1;
nodes = (
"151 0 LINE",
"232 511 LINE SMOOTH",
"241 568 OFFCURVE",
"286 605 OFFCURVE",
"347 605 CURVE SMOOTH",
"459 605 LINE",
"285 438 LINE",
"267 328 LINE",
"314 328 LINE SMOOTH",
"377 328 OFFCURVE",
"410 287 OFFCURVE",
"400 227 CURVE SMOOTH",
"391 167 OFFCURVE",
"346 125 OFFCURVE",
"282 125 CURVE SMOOTH",
"235 125 LINE",
"215 0 LINE",
"267 0 LINE SMOOTH",
"418 0 OFFCURVE",
"528 84 OFFCURVE",
"549 215 CURVE SMOOTH",
"570 344 OFFCURVE",
"495 427 OFFCURVE",
"360 425 CURVE",
"365 369 LINE",
"595 589 LINE",
"618 730 LINE",
"368 730 LINE SMOOTH",
"225 730 OFFCURVE",
"118 644 OFFCURVE",
"97 511 CURVE SMOOTH",
"16 0 LINE"
);
}
);
width = 600;
}
);
unicode = 1E9E;
},
{
glyphname = uni018F;
layers = (
{
associatedMasterId = "76E9374A-352D-4379-9771-A49E7E8AA0DC";
layerId = "4D1F24A9-7F62-4711-AC2F-D8EB6C907C30";
name = public.background;
paths = (
{
closed = 1;
nodes = (
"195 305 LINE",
"405 305 LINE",
"405 214 LINE SMOOTH",
"405 150 OFFCURVE",
"365 110 OFFCURVE",
"300 110 CURVE SMOOTH",
"235 110 OFFCURVE",
"195 150 OFFCURVE",
"195 215 CURVE SMOOTH"
);
},
{
closed = 1;
nodes = (
"150 730 OFFCURVE",
"50 640 OFFCURVE",
"50 505 CURVE",
"195 505 LINE",
"195 560 OFFCURVE",
"239 600 OFFCURVE",
"300 600 CURVE SMOOTH",
"363 600 OFFCURVE",
"405 559 OFFCURVE",
"405 505 CURVE SMOOTH",
"405 400 LINE",
"50 400 LINE",
"50 215 LINE SMOOTH",
"50 75 OFFCURVE",
"145 -10 OFFCURVE",
"300 -10 CURVE SMOOTH",
"454 -10 OFFCURVE",
"550 76 OFFCURVE",
"550 214 CURVE SMOOTH",
"550 505 LINE SMOOTH",
"550 642 OFFCURVE",
"451 730 OFFCURVE",
"300 730 CURVE SMOOTH"
);
}
);
width = 600;
},
{
layerId = "681EDAF7-11DB-44DD-9204-6ED8688B749D";
paths = (
{
closed = 1;
nodes = (
"402 -10 OFFCURVE",
"508 78 OFFCURVE",
"529 210 CURVE SMOOTH",
"578 520 LINE SMOOTH",
"599 653 OFFCURVE",
"521 740 OFFCURVE",
"374 740 CURVE SMOOTH",
"229 740 OFFCURVE",
"122 654 OFFCURVE",
"100 520 CURVE",
"250 520 LINE",
"259 578 OFFCURVE",
"293 610 OFFCURVE",
"354 610 CURVE SMOOTH",
"413 610 OFFCURVE",
"438 578 OFFCURVE",
"428 520 CURVE",
"412 416 LINE",
"82 416 LINE",
"49 210 LINE SMOOTH",
"28 78 OFFCURVE",
"110 -10 OFFCURVE",
"255 -10 CURVE SMOOTH"
);
},
{
closed = 1;
nodes = (
"212 105 OFFCURVE",
"188 138 OFFCURVE",
"199 210 CURVE SMOOTH",
"216 316 LINE",
"204 306 LINE",
"394 306 LINE",
"379 210 LINE SMOOTH",
"368 142 OFFCURVE",
"339 105 OFFCURVE",
"274 105 CURVE SMOOTH"
);
}
);
width = 600;
},
{
layerId = "03C02FE7-7458-4762-A27C-0F6E25AC479F";
paths = (
{
closed = 1;
nodes = (
"385 -10 OFFCURVE",
"478 73 OFFCURVE",
"498 200 CURVE SMOOTH",
"550 530 LINE SMOOTH",
"571 661 OFFCURVE",
"507 740 OFFCURVE",
"373 740 CURVE SMOOTH",
"242 740 OFFCURVE",
"150 659 OFFCURVE",
"130 530 CURVE",
"220 530 LINE",
"233 613 OFFCURVE",
"282 660 OFFCURVE",
"361 660 CURVE SMOOTH",
"440 660 OFFCURVE",
"473 613 OFFCURVE",
"460 531 CURVE SMOOTH",
"439 400 LINE",
"109 400 LINE",
"78 200 LINE SMOOTH",
"58 73 OFFCURVE",
"124 -10 OFFCURVE",
"254 -10 CURVE SMOOTH"
);
},
{
closed = 1;
nodes = (
"184 65 OFFCURVE",
"154 113 OFFCURVE",
"168 200 CURVE SMOOTH",
"190 338 LINE",
"181 330 LINE",
"428 330 LINE",
"408 200 LINE SMOOTH",
"394 113 OFFCURVE",
"348 65 OFFCURVE",
"266 65 CURVE SMOOTH"
);
}
);
width = 600;
},
{
guideLines = (
{
angle = 90;
position = "{211, 0}";
}
);
layerId = "76E9374A-352D-4379-9771-A49E7E8AA0DC";
paths = (
{
closed = 1;
nodes = (
"375 -10 OFFCURVE",
"462 69 OFFCURVE",
"481 190 CURVE SMOOTH",
"537 540 LINE SMOOTH",
"556 662 OFFCURVE",
"494 740 OFFCURVE",
"372 740 CURVE SMOOTH",
"248 740 OFFCURVE",
"165 658 OFFCURVE",
"145 530 CURVE",
"195 530 LINE",
"211 632 OFFCURVE",
"270 695 OFFCURVE",
"365 695 CURVE SMOOTH",
"458 695 OFFCURVE",
"502 636 OFFCURVE",
"487 540 CURVE SMOOTH",
"461 378 LINE",
"121 378 LINE",
"91 190 LINE SMOOTH",
"72 69 OFFCURVE",
"133 -10 OFFCURVE",
"253 -10 CURVE SMOOTH"
);
},
{
closed = 1;
nodes = (
"169 34 OFFCURVE",
"126 94 OFFCURVE",
"141 190 CURVE SMOOTH",
"165 344 LINE",
"153 335 LINE",
"454 335 LINE",
"431 190 LINE SMOOTH",
"416 93 OFFCURVE",
"354 34 OFFCURVE",
"260 34 CURVE SMOOTH"
);
}
);
width = 600;
}
);
unicode = 018F;
},
{
glyphname = T;
layers = (
{
layerId = "681EDAF7-11DB-44DD-9204-6ED8688B749D";
paths = (
{
closed = 1;
nodes = (
"331 0 LINE",
"424 590 LINE",
"609 590 LINE",
"632 730 LINE",
"112 730 LINE",
"89 590 LINE",
"274 590 LINE",
"181 0 LINE"
);
}
);
width = 600;
},
{
hints = (
{
place = "{210, 48}";
type = Stem;
},
{
horizontal = 1;
place = "{597, 35}";
type = Stem;
},
{
horizontal = 1;
place = "{-44, 21}";
target = up;
type = BottomGhost;
}
);
layerId = "03C02FE7-7458-4762-A27C-0F6E25AC479F";
paths = (
{
closed = 1;
nodes = (
"301 0 LINE",
"404 649 LINE",
"609 649 LINE",
"622 731 LINE",
"122 731 LINE",
"109 649 LINE",
"314 649 LINE",
"211 0 LINE"
);
}
);
width = 600;
},
{
layerId = "76E9374A-352D-4379-9771-A49E7E8AA0DC";
paths = (
{
closed = 1;
nodes = (
"282 0 LINE",
"391 685 LINE",
"605 685 LINE",
"612 730 LINE",
"132 730 LINE",
"125 685 LINE",
"341 685 LINE",
"232 0 LINE"
);
}
);
width = 600;
}
);
unicode = 0054;
},
{
color = (154,153,255,255);
glyphname = Tbar;
layers = (
{
components = (
{
alignment = -1;
name = T;
}
);
layerId = "681EDAF7-11DB-44DD-9204-6ED8688B749D";
paths = (
{
closed = 1;
nodes = (
"500 275 LINE",
"518 390 LINE",
"118 390 LINE",
"100 275 LINE"
);
}
);
width = 600;
},
{
components = (
{
alignment = -1;
name = T;
}
);
layerId = "03C02FE7-7458-4762-A27C-0F6E25AC479F";
paths = (
{
closed = 1;
nodes = (
"493 295 LINE",
"505 370 LINE",
"125 370 LINE",
"113 295 LINE"
);
}
);
width = 600;
},
{
components = (
{
alignment = -1;
name = T;
}
);
layerId = "76E9374A-352D-4379-9771-A49E7E8AA0DC";
paths = (
{
closed = 1;
nodes = (
"485 310 LINE",
"492 355 LINE",
"132 355 LINE",
"125 310 LINE"
);
}
);
width = 600;
}
);
unicode = 0166;
},
{
glyphname = U;
layers = (
{
layerId = "681EDAF7-11DB-44DD-9204-6ED8688B749D";
paths = (
{
closed = 1;
nodes = (
"402 -10 OFFCURVE",
"508 76 OFFCURVE",
"530 214 CURVE SMOOTH",
"612 730 LINE",
"462 730 LINE",
"380 215 LINE SMOOTH",
"370 154 OFFCURVE",
"331 120 OFFCURVE",
"275 120 CURVE SMOOTH",
"218 120 OFFCURVE",
"190 154 OFFCURVE",
"200 215 CURVE SMOOTH",
"282 730 LINE",
"132 730 LINE",
"50 214 LINE SMOOTH",
"28 75 OFFCURVE",
"106 -10 OFFCURVE",
"254 -10 CURVE SMOOTH"
);
}
);
width = 600;
},
{
hints = (
{
place = "{41, 46}";
type = Stem;
},
{
place = "{381, 46}";
type = Stem;
},
{
horizontal = 1;
place = "{-54, 36}";
type = Stem;
},
{
horizontal = 1;
place = "{676, -20}";
target = down;
type = TopGhost;
}
);
layerId = "03C02FE7-7458-4762-A27C-0F6E25AC479F";
paths = (
{
closed = 1;
nodes = (
"391 -10 OFFCURVE",
"478 69 OFFCURVE",
"499 200 CURVE SMOOTH",
"583 730 LINE",
"493 730 LINE",
"409 200 LINE SMOOTH",
"396 120 OFFCURVE",
"347 70 OFFCURVE",
"267 70 CURVE SMOOTH",
"186 70 OFFCURVE",
"154 120 OFFCURVE",
"167 200 CURVE SMOOTH",
"251 730 LINE",
"161 730 LINE",
"77 200 LINE SMOOTH",
"56 70 OFFCURVE",
"118 -10 OFFCURVE",
"254 -10 CURVE SMOOTH"
);
}
);
width = 600;
},
{
layerId = "76E9374A-352D-4379-9771-A49E7E8AA0DC";
paths = (
{
closed = 1;
nodes = (
"372 -10 OFFCURVE",
"459 69 OFFCURVE",
"478 190 CURVE SMOOTH",
"564 730 LINE",
"514 730 LINE",
"428 190 LINE SMOOTH",
"413 93 OFFCURVE",
"352 35 OFFCURVE",
"263 35 CURVE SMOOTH",
"172 35 OFFCURVE",
"129 92 OFFCURVE",
"144 190 CURVE SMOOTH",
"230 730 LINE",
"180 730 LINE",
"94 190 LINE SMOOTH",
"75 69 OFFCURVE",
"139 -10 OFFCURVE",
"255 -10 CURVE SMOOTH"
);
}
);
width = 600;
}
);
unicode = 0055;
},
{
color = (153,255,154,255);
glyphname = V;
layers = (
{
associatedMasterId = "76E9374A-352D-4379-9771-A49E7E8AA0DC";
layerId = "4D1F24A9-7F62-4711-AC2F-D8EB6C907C30";
name = public.background;
paths = (
{
closed = 1;
nodes = (
"206 0 LINE",
"396 0 LINE",
"575 730 LINE",
"423 730 LINE",
"324.161 269.797 LINE SMOOTH",
"314.628 225.411 OFFCURVE",
"313 155 OFFCURVE",
"313 155 CURVE",
"291 155 LINE",
"291 156.232 OFFCURVE",
"288.833 224.795 OFFCURVE",
"279.223 269 CURVE SMOOTH",
"179 730 LINE",
"25 730 LINE"
);
}
);
width = 600;
},
{
hints = (
{
horizontal = 1;
place = "{-44, -23}";
type = Stem;
},
{
horizontal = 1;
place = "{686, -20}";
target = down;
type = TopGhost;
}
);
layerId = "681EDAF7-11DB-44DD-9204-6ED8688B749D";
paths = (
{
closed = 1;
nodes = (
"352 0 LINE",
"647 730 LINE",
"492 730 LINE",
"321 270 LINE SMOOTH",
"304 225 OFFCURVE",
"280 145 OFFCURVE",
"280 145 CURVE",
"280 145 OFFCURVE",
"279 225 OFFCURVE",
"276 269 CURVE SMOOTH",
"248 730 LINE",
"97 730 LINE",
"162 0 LINE"
);
}
);
width = 600;
},
{
hints = (
{
horizontal = 1;
place = "{-44, 21}";
target = up;
type = BottomGhost;
},
{
horizontal = 1;
place = "{686, -20}";
target = down;
type = TopGhost;
}
);
layerId = "03C02FE7-7458-4762-A27C-0F6E25AC479F";
paths = (
{
closed = 1;
nodes = (
"317 0 LINE",
"622 730 LINE",
"528 730 LINE",
"326 234 LINE SMOOTH",
"288 140 OFFCURVE",
"267 70 OFFCURVE",
"267 70 CURVE",
"267 70 OFFCURVE",
"266 140 OFFCURVE",
"257 235 CURVE SMOOTH",
"212 730 LINE",
"122 730 LINE",
"194 0 LINE"
);
}
);
width = 600;
},
{
hints = (
{
horizontal = 1;
place = "{-44, -23}";
type = Stem;
},
{
horizontal = 1;
place = "{686, -20}";
target = down;
type = TopGhost;
}
);
layerId = "76E9374A-352D-4379-9771-A49E7E8AA0DC";
paths = (
{
closed = 1;
nodes = (
"288 0 LINE",
"604 730 LINE",
"552 730 LINE",
"317 180 LINE SMOOTH",
"283 100 OFFCURVE",
"261 40 OFFCURVE",
"261 40 CURVE",
"261 40 OFFCURVE",
"259 100 OFFCURVE",
"250 180 CURVE SMOOTH",
"190 730 LINE",
"140 730 LINE",
"224 0 LINE"
);
}
);
width = 600;
}
);
unicode = 0056;
},
{
color = (255,204,153,255);
glyphname = W;
layers = (
{
associatedMasterId = "76E9374A-352D-4379-9771-A49E7E8AA0DC";
layerId = "4D1F24A9-7F62-4711-AC2F-D8EB6C907C30";
name = public.background;
paths = (
{
closed = 1;
nodes = (
"370 720 LINE",
"423 242 LINE SMOOTH",
"427 202 OFFCURVE",
"428 100 OFFCURVE",
"428 100 CURVE",
"439 100 LINE",
"439 100 OFFCURVE",
"438 202 OFFCURVE",
"441 242 CURVE SMOOTH",
"476 720 LINE",
"590 720 LINE",
"517 0 LINE",
"361 0 LINE",
"310 475 LINE SMOOTH",
"305 522 OFFCURVE",
"306 620 OFFCURVE",
"306 620 CURVE",
"296 620 LINE",
"296 620 OFFCURVE",
"297 522 OFFCURVE",
"291 475 CURVE SMOOTH",
"235 0 LINE",
"82 0 LINE",
"10 720 LINE",
"123 720 LINE",
"160 242 LINE SMOOTH",
"163 202 OFFCURVE",
"162 100 OFFCURVE",
"162 100 CURVE",
"173 100 LINE",
"173 100 OFFCURVE",
"171 202 OFFCURVE",
"176 242 CURVE SMOOTH",
"232 720 LINE"
);
},
{
closed = 1;
nodes = (
"10 730 LINE",
"133 730 LINE",
"170 242 LINE SMOOTH",
"173.033 202.002 OFFCURVE",
"171 100 OFFCURVE",
"171 100 CURVE",
"184 100 LINE",
"184 100 OFFCURVE",
"185.566 201.933 OFFCURVE",
"190 242 CURVE SMOOTH",
"244 730 LINE",
"358 730 LINE",
"410 242 LINE SMOOTH",
"414.259 202.027 OFFCURVE",
"418 100 OFFCURVE",
"418 100 CURVE",
"431 100 LINE",
"431 100 OFFCURVE",
"429.212 201.985 OFFCURVE",
"432 242 CURVE SMOOTH",
"466 730 LINE",
"590 730 LINE",
"517 0 LINE",
"361 0 LINE",
"312 485 LINE SMOOTH",
"307.249 532.026 OFFCURVE",
"308 640 OFFCURVE",
"308 640 CURVE",
"294 640 LINE",
"294 640 OFFCURVE",
"294.23 531.975 OFFCURVE",
"289 485 CURVE SMOOTH",
"235 0 LINE",
"78 0 LINE"
);
}
);
width = 600;
},
{
layerId = "681EDAF7-11DB-44DD-9204-6ED8688B749D";
paths = (
{
closed = 1;
nodes = (
"191 0 LINE",
"322 485 LINE SMOOTH",
"334 532 OFFCURVE",
"357 645 OFFCURVE",
"357 645 CURVE",
"357 645 OFFCURVE",
"348 532 OFFCURVE",
"345 485 CURVE SMOOTH",
"317 0 LINE",
"473 0 LINE",
"662 730 LINE",
"538 730 LINE",
"426 242 LINE SMOOTH",
"417 202 OFFCURVE",
"397 95 OFFCURVE",
"397 95 CURVE",
"397 95 OFFCURVE",
"402 202 OFFCURVE",
"404 242 CURVE SMOOTH",
"430 730 LINE",
"314 730 LINE",
"182 242 LINE SMOOTH",
"172 202 OFFCURVE",
"145 95 OFFCURVE",
"145 95 CURVE",
"145 95 OFFCURVE",
"159 202 OFFCURVE",
"162 242 CURVE SMOOTH",
"203 730 LINE",
"82 730 LINE",
"34 0 LINE"
);
}
);
width = 600;
},
{
hints = (
{
horizontal = 1;
place = "{676, -20}";
target = down;
type = TopGhost;
},
{
horizontal = 1;
place = "{-44, 21}";
target = up;
type = BottomGhost;
}
);
layerId = "03C02FE7-7458-4762-A27C-0F6E25AC479F";
paths = (
{
closed = 1;
nodes = (
"178 0 LINE",
"332 550 LINE SMOOTH",
"349 612 OFFCURVE",
"364 667 OFFCURVE",
"364 667 CURVE",
"364 667 OFFCURVE",
"360 612 OFFCURVE",
"357 550 CURVE SMOOTH",
"332 0 LINE",
"445 0 LINE",
"647 730 LINE",
"565 730 LINE",
"422 190 LINE SMOOTH",
"406 130 OFFCURVE",
"391 65 OFFCURVE",
"391 65 CURVE",
"391 65 OFFCURVE",
"395 130 OFFCURVE",
"397 190 CURVE SMOOTH",
"421 730 LINE",
"326 730 LINE",
"172 190 LINE SMOOTH",
"155 130 OFFCURVE",
"139 65 OFFCURVE",
"139 65 CURVE",
"139 65 OFFCURVE",
"147 130 OFFCURVE",
"150 190 CURVE SMOOTH",
"181 730 LINE",
"97 730 LINE",
"65 0 LINE"
);
}
);
width = 600;
},
{
layerId = "76E9374A-352D-4379-9771-A49E7E8AA0DC";
paths = (
{
closed = 1;
nodes = (
"156 0 LINE",
"319 530 LINE SMOOTH",
"341 601 OFFCURVE",
"368 690 OFFCURVE",
"368 690 CURVE",
"368 690 OFFCURVE",
"364 600 OFFCURVE",
"363 530 CURVE SMOOTH",
"353 0 LINE",
"425 0 LINE",
"631 730 LINE",
"584 730 LINE",
"436 190 LINE SMOOTH",
"422 139 OFFCURVE",
"391 35 OFFCURVE",
"391 35 CURVE",
"391 35 OFFCURVE",
"393 139 OFFCURVE",
"394 190 CURVE SMOOTH",
"406 730 LINE",
"341 730 LINE",
"178 190 LINE SMOOTH",
"163 140 OFFCURVE",
"132 35 OFFCURVE",
"132 35 CURVE",
"132 35 OFFCURVE",
"136 140 OFFCURVE",
"138 190 CURVE SMOOTH",
"156 730 LINE",
"112 730 LINE",
"86 0 LINE"
);
}
);
width = 600;
}
);
unicode = 0057;
},
{
color = (153,255,154,255);
glyphname = X;
layers = (
{
layerId = "681EDAF7-11DB-44DD-9204-6ED8688B749D";
paths = (
{
closed = 1;
nodes = (
"140 0 LINE",
"257 180 LINE SMOOTH",
"282 220 OFFCURVE",
"296 250 OFFCURVE",
"296 250 CURVE",
"296 250 OFFCURVE",
"302 220 OFFCURVE",
"315 180 CURVE SMOOTH",
"374 0 LINE",
"536 0 LINE",
"399 375 LINE",
"639 730 LINE",
"475 730 LINE",
"371 570 LINE SMOOTH",
"346 530 OFFCURVE",
"335 504 OFFCURVE",
"335 504 CURVE",
"335 504 OFFCURVE",
"330 530 OFFCURVE",
"317 570 CURVE SMOOTH",
"267 730 LINE",
"105 730 LINE",
"232 379 LINE",
"-24 0 LINE"
);
}
);
width = 600;
},
{
hints = (
{
horizontal = 1;
place = "{676, -20}";
target = down;
type = TopGhost;
},
{
horizontal = 1;
place = "{-44, 21}";
target = up;
type = BottomGhost;
}
);
layerId = "03C02FE7-7458-4762-A27C-0F6E25AC479F";
paths = (
{
closed = 1;
nodes = (
"100 0 LINE",
"263 233 LINE SMOOTH",
"284 263 OFFCURVE",
"307 300 OFFCURVE",
"307 300 CURVE",
"307 300 OFFCURVE",
"317 263 OFFCURVE",
"329 232 CURVE SMOOTH",
"417 0 LINE",
"516 0 LINE",
"366 376 LINE",
"621 730 LINE",
"518 730 LINE",
"368 514 LINE SMOOTH",
"346 482 OFFCURVE",
"325 447 OFFCURVE",
"325 447 CURVE",
"325 447 OFFCURVE",
"313 483 OFFCURVE",
"301 514 CURVE SMOOTH",
"223 730 LINE",
"123 730 LINE",
"265 370 LINE",
"-4 0 LINE"
);
}
);
width = 600;
},
{
associatedMasterId = "76E9374A-352D-4379-9771-A49E7E8AA0DC";
layerId = "4D1F24A9-7F62-4711-AC2F-D8EB6C907C30";
name = public.background;
paths = (
{
closed = 1;
nodes = (
"45 0 LINE",
"270 380 LINE",
"60 730 LINE",
"116 730 LINE",
"246 508 LINE SMOOTH",
"263.896 477.439 OFFCURVE",
"295 423 OFFCURVE",
"295 423 CURVE",
"306 423 LINE",
"306 423 OFFCURVE",
"335.31 476.566 OFFCURVE",
"354 508 CURVE SMOOTH",
"486 730 LINE",
"540 730 LINE",
"330 382 LINE",
"555 0 LINE",
"499 0 LINE",
"355 252 LINE SMOOTH",
"338.681 280.558 OFFCURVE",
"306 338 OFFCURVE",
"306 338 CURVE",
"295 338 LINE",
"295 338 OFFCURVE",
"264.681 280.402 OFFCURVE",
"248 252 CURVE SMOOTH",
"100 0 LINE"
);
}
);
width = 600;
},
{
layerId = "76E9374A-352D-4379-9771-A49E7E8AA0DC";
paths = (
{
closed = 1;
nodes = (
"66 0 LINE",
"246 252 LINE SMOOTH",
"267 281 OFFCURVE",
"312 345 OFFCURVE",
"312 345 CURVE",
"312 345 OFFCURVE",
"340 281 OFFCURVE",
"351 252 CURVE SMOOTH",
"449 0 LINE",
"503 0 LINE",
"344 380 LINE",
"604 730 LINE",
"548 730 LINE",
"388 508 LINE SMOOTH",
"365 476 OFFCURVE",
"322 415 OFFCURVE",
"322 415 CURVE",
"322 415 OFFCURVE",
"295 477 OFFCURVE",
"282 508 CURVE SMOOTH",
"194 730 LINE",
"140 730 LINE",
"290 382 LINE",
"9 0 LINE"
);
}
);
width = 600;
}
);
unicode = 0058;
},
{
color = (153,255,154,255);
glyphname = Y;
layers = (
{
associatedMasterId = "76E9374A-352D-4379-9771-A49E7E8AA0DC";
layerId = "4D1F24A9-7F62-4711-AC2F-D8EB6C907C30";
name = public.background;
paths = (
{
closed = 1;
nodes = (
"477 730 LINE",
"570 730 LINE",
"345 250 LINE",
"345 0 LINE",
"255 0 LINE",
"255 250 LINE",
"30 730 LINE",
"122 730 LINE",
"201 563 LINE SMOOTH",
"246.338 467.159 OFFCURVE",
"291 349 OFFCURVE",
"291 349 CURVE",
"311 349 LINE",
"311 349 OFFCURVE",
"355.783 467.1 OFFCURVE",
"400 563 CURVE SMOOTH"
);
}
);
width = 600;
},
{
layerId = "681EDAF7-11DB-44DD-9204-6ED8688B749D";
paths = (
{
closed = 1;
nodes = (
"331 0 LINE",
"372 260 LINE",
"657 730 LINE",
"499 730 LINE",
"375 510 LINE SMOOTH",
"341 450 OFFCURVE",
"318 380 OFFCURVE",
"318 380 CURVE",
"318 380 OFFCURVE",
"314 450 OFFCURVE",
"299 510 CURVE SMOOTH",
"242 730 LINE",
"87 730 LINE",
"222 260 LINE",
"181 0 LINE"
);
}
);
width = 600;
},
{
hints = (
{
place = "{211, 46}";
type = Stem;
},
{
horizontal = 1;
place = "{676, -20}";
target = down;
type = TopGhost;
},
{
horizontal = 1;
place = "{-44, 21}";
target = up;
type = BottomGhost;
}
);
layerId = "03C02FE7-7458-4762-A27C-0F6E25AC479F";
paths = (
{
closed = 1;
nodes = (
"301 0 LINE",
"344 273 LINE",
"637 730 LINE",
"543 730 LINE",
"353 430 LINE SMOOTH",
"325 385 OFFCURVE",
"313 362 OFFCURVE",
"313 362 CURVE",
"313 362 OFFCURVE",
"311 385 OFFCURVE",
"296 430 CURVE SMOOTH",
"199 730 LINE",
"107 730 LINE",
"254 273 LINE",
"211 0 LINE"
);
}
);
width = 600;
},
{
layerId = "76E9374A-352D-4379-9771-A49E7E8AA0DC";
paths = (
{
closed = 1;
nodes = (
"281 0 LINE",
"325 280 LINE",
"621 730 LINE",
"569 730 LINE",
"353 400 LINE SMOOTH",
"327 359 OFFCURVE",
"308 330 OFFCURVE",
"308 330 CURVE",
"308 330 OFFCURVE",
"299 360 OFFCURVE",
"285 400 CURVE SMOOTH",
"173 730 LINE",
"122 730 LINE",
"275 280 LINE",
"231 0 LINE"
);
}
);
width = 600;
}
);
unicode = 0059;
},
{
color = (153,255,154,255);
glyphname = Z;
layers = (
{
layerId = "681EDAF7-11DB-44DD-9204-6ED8688B749D";
paths = (
{
closed = 1;
nodes = (
"481 0 LINE",
"503 140 LINE",
"221 140 LINE",
"563 590 LINE",
"586 730 LINE",
"155 730 LINE",
"132 590 LINE",
"394 590 LINE",
"53 140 LINE",
"31 0 LINE"
);
}
);
width = 600;
},
{
hints = (
{
horizontal = 1;
place = "{-44, 35}";
type = Stem;
},
{
horizontal = 1;
place = "{597, 35}";
type = Stem;
}
);
layerId = "03C02FE7-7458-4762-A27C-0F6E25AC479F";
paths = (
{
closed = 1;
nodes = (
"471 0 LINE",
"484 82 LINE",
"145 82 LINE",
"562 640 LINE",
"577 730 LINE",
"162 730 LINE",
"149 648 LINE",
"473 649 LINE",
"55 90 LINE",
"41 0 LINE"
);
}
);
width = 600;
},
{
layerId = "76E9374A-352D-4379-9771-A49E7E8AA0DC";
paths = (
{
closed = 1;
nodes = (
"464 0 LINE",
"471 45 LINE",
"105 45 LINE",
"558 674 LINE",
"567 730 LINE",
"167 730 LINE",
"160 685 LINE",
"512 685 LINE",
"55 49 LINE",
"47 0 LINE"
);
}
);
width = 600;
}
);
unicode = 005A;
},
{
color = 0;
export = 0;
glyphname = IJ;
layers = (
{
layerId = "681EDAF7-11DB-44DD-9204-6ED8688B749D";
paths = (
{
closed = 1;
nodes = (
"261 0 LINE SMOOTH",
"421 0 OFFCURVE",
"524 81 OFFCURVE",
"546 224 CURVE SMOOTH",
"625 720 LINE",
"335 720 LINE",
"313 580 LINE",
"453 580 LINE",
"396 224 LINE SMOOTH",
"387 164 OFFCURVE",
"346 130 OFFCURVE",
"282 130 CURVE SMOOTH",
"232 130 LINE",
"211 0 LINE"
);
},
{
closed = 1;
nodes = (
"151 0 LINE",
"265 720 LINE",
"115 720 LINE",
"1 0 LINE"
);
}
);
width = 600;
},
{
hints = (
{
place = "{26, 48}";
type = Stem;
},
{
place = "{256, 191}";
type = Stem;
},
{
place = "{401, 46}";
type = Stem;
},
{
horizontal = 1;
place = "{-44, 36}";
type = Stem;
},
{
horizontal = 1;
place = "{596, 36}";
type = Stem;
}
);
layerId = "03C02FE7-7458-4762-A27C-0F6E25AC479F";
paths = (
{
closed = 1;
nodes = (
"276 0 LINE SMOOTH",
"413 0 OFFCURVE",
"502 72 OFFCURVE",
"523 201 CURVE SMOOTH",
"605 720 LINE",
"370 720 LINE",
"357 640 LINE",
"502 640 LINE",
"433 201 LINE SMOOTH",
"421 124 OFFCURVE",
"369 80 OFFCURVE",
"289 80 CURVE SMOOTH",
"229 80 LINE",
"216 0 LINE"
);
},
{
closed = 1;
nodes = (
"118 0 LINE",
"232 720 LINE",
"140 720 LINE",
"26 0 LINE"
);
}
);
width = 600;
},
{
layerId = "76E9374A-352D-4379-9771-A49E7E8AA0DC";
paths = (
{
closed = 1;
nodes = (
"266 0 LINE SMOOTH",
"406 0 OFFCURVE",
"505 87 OFFCURVE",
"527 230 CURVE SMOOTH",
"605 720 LINE",
"380 720 LINE",
"372 670 LINE",
"542 670 LINE",
"472 230 LINE SMOOTH",
"455 117 OFFCURVE",
"380 50 OFFCURVE",
"274 50 CURVE SMOOTH",
"219 50 LINE",
"211 0 LINE"
);
},
{
closed = 1;
nodes = (
"113 0 LINE",
"227 720 LINE",
"172 720 LINE",
"58 0 LINE"
);
}
);
width = 600;
}
);
unicode = 0132;
},
{
color = (154,153,255,255);
glyphname = a;
layers = (
{
layerId = "681EDAF7-11DB-44DD-9204-6ED8688B749D";
paths = (
{
closed = 1;
nodes = (
"279 -10 OFFCURVE",
"335 45 OFFCURVE",
"350 140 CURVE",
"314 125 LINE",
"349 125 LINE",
"337 50 OFFCURVE",
"374 0 OFFCURVE",
"442 0 CURVE SMOOTH",
"546 0 LINE",
"564 114 LINE",
"520 114 LINE SMOOTH",
"506 114 OFFCURVE",
"493 126 OFFCURVE",
"495 140 CURVE SMOOTH",
"559 550 LINE",
"415 550 LINE",
"398 445 LINE",
"364 445 LINE",
"393 410 LINE",
"408 505 OFFCURVE",
"369 560 OFFCURVE",
"277 560 CURVE SMOOTH",
"166 560 OFFCURVE",
"91 476 OFFCURVE",
"69 345 CURVE SMOOTH",
"46 205 LINE SMOOTH",
"24 74 OFFCURVE",
"77 -10 OFFCURVE",
"187 -10 CURVE SMOOTH"
);
},
{
closed = 1;
nodes = (
"209 118 OFFCURVE",
"186 149 OFFCURVE",
"196 210 CURVE SMOOTH",
"217 340 LINE SMOOTH",
"227 401 OFFCURVE",
"258 432 OFFCURVE",
"311 432 CURVE SMOOTH",
"358 432 OFFCURVE",
"386 394 OFFCURVE",
"377 340 CURVE SMOOTH",
"356 210 LINE SMOOTH",
"346 150 OFFCURVE",
"314 118 OFFCURVE",
"262 118 CURVE SMOOTH"
);
}
);
width = 600;
},
{
layerId = "03C02FE7-7458-4762-A27C-0F6E25AC479F";
paths = (
{
closed = 1;
nodes = (
"304 -10 OFFCURVE",
"367 41 OFFCURVE",
"380 126 CURVE",
"362 116 LINE",
"378 116 LINE",
"367 47 OFFCURVE",
"406 0 OFFCURVE",
"476 0 CURVE SMOOTH",
"532 0 LINE",
"543 71 LINE",
"499 71 LINE SMOOTH",
"476 71 OFFCURVE",
"463 91 OFFCURVE",
"468 120 CURVE SMOOTH",
"537 550 LINE",
"447 550 LINE",
"430 445 LINE",
"412 445 LINE",
"427 424 LINE",
"440 510 OFFCURVE",
"395 560 OFFCURVE",
"306 560 CURVE SMOOTH",
"198 560 OFFCURVE",
"121 484 OFFCURVE",
"101 356 CURVE SMOOTH",
"76 195 LINE SMOOTH",
"56 65 OFFCURVE",
"107 -10 OFFCURVE",
"215 -10 CURVE SMOOTH"
);
},
{
closed = 1;
nodes = (
"185 66 OFFCURVE",
"154 112 OFFCURVE",
"167 200 CURVE SMOOTH",
"190 350 LINE SMOOTH",
"203 437 OFFCURVE",
"249 484 OFFCURVE",
"323 484 CURVE SMOOTH",
"395 484 OFFCURVE",
"428 436 OFFCURVE",
"415 350 CURVE SMOOTH",
"392 200 LINE SMOOTH",
"379 114 OFFCURVE",
"331 66 OFFCURVE",
"258 66 CURVE SMOOTH"
);
}
);
width = 600;
},
{
associatedMasterId = "76E9374A-352D-4379-9771-A49E7E8AA0DC";
hints = (
{
place = "{82, 50}";
type = Stem;
},
{
place = "{423, 50}";
type = Stem;
},
{
horizontal = 1;
place = "{-10, 44}";
type = Stem;
},
{
horizontal = 1;
place = "{260, 44}";
type = Stem;
},
{
horizontal = 1;
place = "{515, 45}";
type = Stem;
}
);
layerId = "4D1F24A9-7F62-4711-AC2F-D8EB6C907C30";
name = public.background;
paths = (
{
closed = 1;
nodes = (
"375.4 -10 OFFCURVE",
"430 44 OFFCURVE",
"430 125 CURVE",
"411.638 105 LINE",
"423 105 LINE",
"423 87 LINE SMOOTH",
"423 33.839 OFFCURVE",
"461.915 -3 OFFCURVE",
"518.072 -3 CURVE SMOOTH",
"566.374 -3 LINE",
"565.825 41.912 LINE",
"516.146 42.404 LINE SMOOTH",
"490.25 42.661 OFFCURVE",
"473 60.939 OFFCURVE",
"473 87 CURVE SMOOTH",
"473 375 LINE SMOOTH",
"473 489.995 OFFCURVE",
"412.617 560 OFFCURVE",
"297 560 CURVE SMOOTH",
"190.889 560 OFFCURVE",
"124.229 501.45 OFFCURVE",
"109 405 CURVE",
"159 405 LINE",
"168.132 472.842 OFFCURVE",
"216 515 OFFCURVE",
"296 515 CURVE SMOOTH",
"383 515 OFFCURVE",
"423 464.346 OFFCURVE",
"423 375 CURVE SMOOTH",
"423 304 LINE",
"253 304 LINE SMOOTH",
"147.252 304 OFFCURVE",
"82 245.224 OFFCURVE",
"82 149.972 CURVE SMOOTH",
"82 51.378 OFFCURVE",
"150.638 -10 OFFCURVE",
"263.5 -10 CURVE SMOOTH"
);
},
{
closed = 1;
nodes = (
"185.071 34 OFFCURVE",
"132.003 78.624 OFFCURVE",
"132.003 150.126 CURVE SMOOTH",
"132.003 218.808 OFFCURVE",
"176.991 260 OFFCURVE",
"252 260 CURVE SMOOTH",
"423 260 LINE",
"423 160.172 LINE SMOOTH",
"423 83.745 OFFCURVE",
"374.833 34 OFFCURVE",
"270.103 34 CURVE SMOOTH"
);
}
);
width = 600;
},
{
layerId = "76E9374A-352D-4379-9771-A49E7E8AA0DC";
paths = (
{
closed = 1;
nodes = (
"327 -10 OFFCURVE",
"397 48 OFFCURVE",
"411 140 CURVE",
"389 89 LINE",
"393 89 LINE",
"384 36 OFFCURVE",
"411 0 OFFCURVE",
"461 0 CURVE SMOOTH",
"515 0 LINE",
"522 44 LINE",
"475 44 LINE SMOOTH",
"450 44 OFFCURVE",
"439 61 OFFCURVE",
"443 89 CURVE SMOOTH",
"516 550 LINE",
"466 550 LINE",
"454 475 LINE",
"426 475 LINE",
"454 410 LINE",
"468 502 OFFCURVE",
"417 560 OFFCURVE",
"323 560 CURVE SMOOTH",
"217 560 OFFCURVE",
"136 482 OFFCURVE",
"117 361 CURVE SMOOTH",
"90 190 LINE SMOOTH",
"71 68 OFFCURVE",
"126 -10 OFFCURVE",
"232 -10 CURVE SMOOTH"
);
},
{
closed = 1;
nodes = (
"164 31 OFFCURVE",
"124 90 OFFCURVE",
"140 190 CURVE SMOOTH",
"167 361 LINE SMOOTH",
"183 461 OFFCURVE",
"241 519 OFFCURVE",
"325 519 CURVE SMOOTH",
"410 519 OFFCURVE",
"452 460 OFFCURVE",
"436 361 CURVE SMOOTH",
"409 190 LINE SMOOTH",
"393 91 OFFCURVE",
"333 31 OFFCURVE",
"248 31 CURVE SMOOTH"
);
}
);
width = 600;
}
);
unicode = 0061;
},
{
color = (255,204,153,255);
glyphname = ae;
layers = (
{
layerId = "681EDAF7-11DB-44DD-9204-6ED8688B749D";
paths = (
{
closed = 1;
nodes = (
"237 -10 OFFCURVE",
"262 65 OFFCURVE",
"262 65 CURVE",
"270 65 LINE",
"270 65 OFFCURVE",
"269 -10 OFFCURVE",
"374 -10 CURVE SMOOTH",
"461 -10 OFFCURVE",
"529 50 OFFCURVE",
"543 140 CURVE",
"428 140 LINE",
"423 106 OFFCURVE",
"403 87 OFFCURVE",
"374 87 CURVE SMOOTH",
"344 87 OFFCURVE",
"330 107 OFFCURVE",
"335 140 CURVE SMOOTH",
"353 250 LINE",
"561 250 LINE",
"586 410 LINE SMOOTH",
"600 500 OFFCURVE",
"552 560 OFFCURVE",
"465 560 CURVE SMOOTH",
"360 560 OFFCURVE",
"337 485 OFFCURVE",
"337 485 CURVE",
"329 485 LINE",
"329 485 OFFCURVE",
"330 560 OFFCURVE",
"226 560 CURVE SMOOTH",
"138 560 OFFCURVE",
"70 496 OFFCURVE",
"54 400 CURVE",
"169 400 LINE",
"176 440 OFFCURVE",
"197 463 OFFCURVE",
"228 463 CURVE SMOOTH",
"256 463 OFFCURVE",
"269 443 OFFCURVE",
"264 410 CURVE SMOOTH",
"251 330 LINE",
"208 330 LINE SMOOTH",
"109 330 OFFCURVE",
"34 274 OFFCURVE",
"21 190 CURVE SMOOTH",
"13 140 LINE SMOOTH",
"-1 50 OFFCURVE",
"44 -10 OFFCURVE",
"126 -10 CURVE SMOOTH"
);
},
{
closed = 1;
nodes = (
"138 87 OFFCURVE",
"123 107 OFFCURVE",
"128 140 CURVE SMOOTH",
"136 190 LINE SMOOTH",
"142 228 OFFCURVE",
"164 250 OFFCURVE",
"196 250 CURVE SMOOTH",
"239 250 LINE",
"221 140 LINE SMOOTH",
"216 107 OFFCURVE",
"196 87 OFFCURVE",
"169 87 CURVE SMOOTH"
);
},
{
closed = 1;
nodes = (
"378 410 LINE SMOOTH",
"383 443 OFFCURVE",
"404 463 OFFCURVE",
"433 463 CURVE SMOOTH",
"462 463 OFFCURVE",
"476 444 OFFCURVE",
"471 410 CURVE SMOOTH",
"458 330 LINE",
"365 330 LINE"
);
}
);
width = 600;
},
{
hints = (
{
place = "{-9, 46}";
type = Stem;
},
{
place = "{218, 37}";
type = Stem;
},
{
place = "{436, 41}";
type = Stem;
},
{
horizontal = 1;
place = "{-54, 33}";
type = Stem;
},
{
horizontal = 1;
place = "{211, 26}";
type = Stem;
},
{
horizontal = 1;
place = "{381, 91}";
type = Stem;
},
{
horizontal = 1;
place = "{439, 33}";
type = Stem;
},
{
horizontal = 1;
place = "{-54, 91}";
type = Stem;
}
);
layerId = "03C02FE7-7458-4762-A27C-0F6E25AC479F";
paths = (
{
closed = 1;
nodes = (
"241 -10 OFFCURVE",
"268 70 OFFCURVE",
"268 70 CURVE",
"272 70 LINE",
"272 70 OFFCURVE",
"271 -10 OFFCURVE",
"374 -10 CURVE SMOOTH",
"461 -10 OFFCURVE",
"528 46 OFFCURVE",
"542 130 CURVE",
"457 130 LINE",
"450 91 OFFCURVE",
"419 67 OFFCURVE",
"377 67 CURVE SMOOTH",
"337 67 OFFCURVE",
"315 100 OFFCURVE",
"323 150 CURVE SMOOTH",
"339 255 LINE",
"561 255 LINE",
"584 400 LINE SMOOTH",
"600 499 OFFCURVE",
"555 560 OFFCURVE",
"465 560 CURVE SMOOTH",
"364 560 OFFCURVE",
"337 480 OFFCURVE",
"337 480 CURVE",
"333 480 LINE",
"333 480 OFFCURVE",
"332 560 OFFCURVE",
"225 560 CURVE SMOOTH",
"145 560 OFFCURVE",
"83 504 OFFCURVE",
"70 420 CURVE",
"155 420 LINE",
"161 458 OFFCURVE",
"189 483 OFFCURVE",
"228 483 CURVE SMOOTH",
"274 483 OFFCURVE",
"290 457 OFFCURVE",
"281 399 CURVE SMOOTH",
"269 325 LINE",
"195 325 LINE SMOOTH",
"102 325 OFFCURVE",
"34 272 OFFCURVE",
"21 190 CURVE SMOOTH",
"12 130 LINE SMOOTH",
"-2 44 OFFCURVE",
"41 -10 OFFCURVE",
"124 -10 CURVE SMOOTH"
);
},
{
closed = 1;
nodes = (
"117 67 OFFCURVE",
"95 91 OFFCURVE",
"102 130 CURVE SMOOTH",
"111 190 LINE SMOOTH",
"117 230 OFFCURVE",
"145 255 OFFCURVE",
"186 255 CURVE SMOOTH",
"258 255 LINE",
"242 150 LINE SMOOTH",
"234 100 OFFCURVE",
"200 67 OFFCURVE",
"157 67 CURVE SMOOTH"
);
},
{
closed = 1;
nodes = (
"362 400 LINE SMOOTH",
"370 450 OFFCURVE",
"401 483 OFFCURVE",
"443 483 CURVE SMOOTH",
"487 483 OFFCURVE",
"507 450 OFFCURVE",
"499 400 CURVE SMOOTH",
"487 325 LINE",
"350 325 LINE"
);
}
);
width = 600;
},
{
layerId = "76E9374A-352D-4379-9771-A49E7E8AA0DC";
paths = (
{
closed = 1;
nodes = (
"239 -10 OFFCURVE",
"269 75 OFFCURVE",
"269 75 CURVE",
"272 75 LINE",
"272 75 OFFCURVE",
"275 -10 OFFCURVE",
"380 -10 CURVE SMOOTH",
"461 -10 OFFCURVE",
"517 43 OFFCURVE",
"537 125 CURVE",
"487 125 LINE",
"473 72 OFFCURVE",
"437 35 OFFCURVE",
"385 35 CURVE SMOOTH",
"328 35 OFFCURVE",
"297 79 OFFCURVE",
"306 140 CURVE SMOOTH",
"326 268 LINE",
"558 268 LINE",
"581 410 LINE SMOOTH",
"595 500 OFFCURVE",
"552 560 OFFCURVE",
"468 560 CURVE SMOOTH",
"371 560 OFFCURVE",
"335 474 OFFCURVE",
"335 474 CURVE",
"333 474 LINE",
"333 474 OFFCURVE",
"330 560 OFFCURVE",
"225 560 CURVE SMOOTH",
"144 560 OFFCURVE",
"83 507 OFFCURVE",
"63 425 CURVE",
"113 425 LINE",
"127 478 OFFCURVE",
"169 516 OFFCURVE",
"221 516 CURVE SMOOTH",
"277 516 OFFCURVE",
"309 471 OFFCURVE",
"299 410 CURVE SMOOTH",
"284 313 LINE",
"176 313 LINE SMOOTH",
"95 313 OFFCURVE",
"38 263 OFFCURVE",
"25 185 CURVE SMOOTH",
"18 139 LINE SMOOTH",
"4 50 OFFCURVE",
"45 -10 OFFCURVE",
"128 -10 CURVE SMOOTH"
);
},
{
closed = 1;
nodes = (
"88 32 OFFCURVE",
"58 77 OFFCURVE",
"68 139 CURVE SMOOTH",
"75 185 LINE SMOOTH",
"83 234 OFFCURVE",
"121 268 OFFCURVE",
"168 268 CURVE SMOOTH",
"276 268 LINE",
"256 140 LINE SMOOTH",
"246 78 OFFCURVE",
"199 32 OFFCURVE",
"144 32 CURVE SMOOTH"
);
},
{
closed = 1;
nodes = (
"349 410 LINE SMOOTH",
"358 470 OFFCURVE",
"404 516 OFFCURVE",
"458 516 CURVE SMOOTH",
"512 516 OFFCURVE",
"540 470 OFFCURVE",
"531 410 CURVE SMOOTH",
"516 313 LINE",
"334 313 LINE"
);
}
);
width = 600;
}
);
unicode = 00E6;
},
{
glyphname = b;
layers = (
{
associatedMasterId = "76E9374A-352D-4379-9771-A49E7E8AA0DC";
layerId = "4D1F24A9-7F62-4711-AC2F-D8EB6C907C30";
name = public.background;
paths = (
{
closed = 1;
nodes = (
"228.108 68 OFFCURVE",
"185 118.299 OFFCURVE",
"185 200 CURVE SMOOTH",
"185 350 LINE SMOOTH",
"185 432.21 OFFCURVE",
"227.885 482 OFFCURVE",
"303 482 CURVE SMOOTH",
"383.377 482 OFFCURVE",
"420 433.541 OFFCURVE",
"420 350 CURVE SMOOTH",
"420 200 LINE SMOOTH",
"420 116.914 OFFCURVE",
"382.939 68 OFFCURVE",
"303 68 CURVE SMOOTH"
);
},
{
closed = 1;
nodes = (
"95 0 LINE",
"186 0 LINE",
"186 100 LINE",
"208 100 LINE",
"185 120 LINE",
"185 38.862 OFFCURVE",
"243.651 -10 OFFCURVE",
"332.741 -10 CURVE SMOOTH",
"445.87 -10 OFFCURVE",
"510 69.17 OFFCURVE",
"510 194 CURVE SMOOTH",
"510 355 LINE SMOOTH",
"510 478 OFFCURVE",
"447.656 560 OFFCURVE",
"333.264 560 CURVE SMOOTH",
"243.689 560 OFFCURVE",
"184.995 511.156 OFFCURVE",
"185.355 430 CURVE",
"209.355 450 LINE",
"185.355 450 LINE",
"184.916 600 LINE",
"185 730 LINE",
"95 730 LINE"
);
}
);
width = 600;
},
{
layerId = "681EDAF7-11DB-44DD-9204-6ED8688B749D";
paths = (
{
closed = 1;
nodes = (
"423 -10 OFFCURVE",
"508 73 OFFCURVE",
"528 205 CURVE SMOOTH",
"551 345 LINE SMOOTH",
"571 476 OFFCURVE",
"512 560 OFFCURVE",
"402 560 CURVE SMOOTH",
"311 560 OFFCURVE",
"247 505 OFFCURVE",
"232 410 CURVE",
"272 445 LINE",
"237 445 LINE",
"264 580 LINE",
"288 730 LINE",
"138 730 LINE",
"22 0 LINE",
"167 0 LINE",
"184 105 LINE",
"218 105 LINE",
"189 140 LINE",
"174 45 OFFCURVE",
"220 -10 OFFCURVE",
"312 -10 CURVE SMOOTH"
);
},
{
closed = 1;
nodes = (
"223 120 OFFCURVE",
"196 152 OFFCURVE",
"205 210 CURVE SMOOTH",
"226 340 LINE SMOOTH",
"235 397 OFFCURVE",
"272 430 OFFCURVE",
"327 430 CURVE SMOOTH",
"383 430 OFFCURVE",
"409 397 OFFCURVE",
"400 340 CURVE SMOOTH",
"379 210 LINE SMOOTH",
"370 152 OFFCURVE",
"334 120 OFFCURVE",
"278 120 CURVE SMOOTH"
);
}
);
width = 600;
},
{
layerId = "03C02FE7-7458-4762-A27C-0F6E25AC479F";
paths = (
{
closed = 1;
nodes = (
"396 -10 OFFCURVE",
"477 68 OFFCURVE",
"497 194 CURVE SMOOTH",
"522 355 LINE SMOOTH",
"542 482 OFFCURVE",
"488 560 OFFCURVE",
"377 560 CURVE SMOOTH",
"286 560 OFFCURVE",
"220 507 OFFCURVE",
"208 424 CURVE",
"229 445 LINE",
"209 445 LINE",
"230 570 LINE",
"256 730 LINE",
"166 730 LINE",
"50 0 LINE",
"140 0 LINE",
"157 105 LINE",
"175 105 LINE",
"160 126 LINE",
"147 42 OFFCURVE",
"195 -10 OFFCURVE",
"286 -10 CURVE SMOOTH"
);
},
{
closed = 1;
nodes = (
"195 68 OFFCURVE",
"159 117 OFFCURVE",
"172 200 CURVE SMOOTH",
"195 350 LINE SMOOTH",
"209 433 OFFCURVE",
"260 482 OFFCURVE",
"334 482 CURVE SMOOTH",
"410 482 OFFCURVE",
"445 435 OFFCURVE",
"431 350 CURVE SMOOTH",
"408 200 LINE SMOOTH",
"394 115 OFFCURVE",
"345 68 OFFCURVE",
"269 68 CURVE SMOOTH"
);
}
);
width = 600;
},
{
layerId = "76E9374A-352D-4379-9771-A49E7E8AA0DC";
paths = (
{
closed = 1;
nodes = (
"377 -10 OFFCURVE",
"462 69 OFFCURVE",
"481 189 CURVE SMOOTH",
"508 360 LINE SMOOTH",
"527 480 OFFCURVE",
"468 560 OFFCURVE",
"358 560 CURVE SMOOTH",
"262 560 OFFCURVE",
"185 501 OFFCURVE",
"171 410 CURVE",
"209 475 LINE",
"191 475 LINE",
"208 580 LINE",
"232 730 LINE",
"182 730 LINE",
"66 0 LINE",
"116 0 LINE",
"128 75 LINE",
"156 75 LINE",
"128 140 LINE",
"114 49 OFFCURVE",
"172 -10 OFFCURVE",
"267 -10 CURVE SMOOTH"
);
},
{
closed = 1;
nodes = (
"174 33 OFFCURVE",
"130 91 OFFCURVE",
"146 189 CURVE SMOOTH",
"173 360 LINE SMOOTH",
"188 458 OFFCURVE",
"250 517 OFFCURVE",
"341 517 CURVE SMOOTH",
"430 517 OFFCURVE",
"474 458 OFFCURVE",
"458 360 CURVE SMOOTH",
"431 189 LINE SMOOTH",
"415 91 OFFCURVE",
"353 33 OFFCURVE",
"264 33 CURVE SMOOTH"
);
}
);
width = 600;
}
);
unicode = 0062;
},
{
glyphname = c;
layers = (
{
layerId = "681EDAF7-11DB-44DD-9204-6ED8688B749D";
paths = (
{
closed = 1;
nodes = (
"402 -10 OFFCURVE",
"508 68 OFFCURVE",
"533 195 CURVE",
"383 195 LINE",
"371 147 OFFCURVE",
"333 120 OFFCURVE",
"278 120 CURVE SMOOTH",
"218 120 OFFCURVE",
"190 152 OFFCURVE",
"199 210 CURVE SMOOTH",
"220 340 LINE SMOOTH",
"229 398 OFFCURVE",
"267 430 OFFCURVE",
"327 430 CURVE SMOOTH",
"381 430 OFFCURVE",
"412 402 OFFCURVE",
"408 355 CURVE",
"558 355 LINE",
"573 482 OFFCURVE",
"493 560 OFFCURVE",
"348 560 CURVE SMOOTH",
"201 560 OFFCURVE",
"91 473 OFFCURVE",
"70 340 CURVE SMOOTH",
"49 210 LINE SMOOTH",
"28 77 OFFCURVE",
"110 -10 OFFCURVE",
"257 -10 CURVE SMOOTH"
);
}
);
width = 600;
},
{
associatedMasterId = "76E9374A-352D-4379-9771-A49E7E8AA0DC";
layerId = "4D1F24A9-7F62-4711-AC2F-D8EB6C907C30";
name = public.background;
paths = (
{
closed = 1;
nodes = (
"381.651 480 OFFCURVE",
"424.119 437.921 OFFCURVE",
"428 370 CURVE",
"518 370 LINE",
"514.103 484 OFFCURVE",
"433.303 560 OFFCURVE",
"304 560 CURVE SMOOTH",
"171.264 560 OFFCURVE",
"88 477.281 OFFCURVE",
"88 350 CURVE SMOOTH",
"88 200 LINE SMOOTH",
"88 71 OFFCURVE",
"169.471 -10 OFFCURVE",
"304 -10 CURVE SMOOTH",
"433.303 -10 OFFCURVE",
"514.103 66 OFFCURVE",
"518 180 CURVE",
"428 180 LINE",
"424.204 111.673 OFFCURVE",
"382.196 70 OFFCURVE",
"304 70 CURVE SMOOTH",
"223.871 70 OFFCURVE",
"178 119.25 OFFCURVE",
"178 200 CURVE SMOOTH",
"178 351 LINE SMOOTH",
"178 430.343 OFFCURVE",
"224.657 480 OFFCURVE",
"304 480 CURVE SMOOTH"
);
}
);
width = 600;
},
{
hints = (
{
place = "{44, 46}";
type = Stem;
},
{
horizontal = 1;
place = "{-54, 36}";
type = Stem;
},
{
horizontal = 1;
place = "{436, 36}";
type = Stem;
}
);
layerId = "03C02FE7-7458-4762-A27C-0F6E25AC479F";
paths = (
{
closed = 1;
nodes = (
"385 -10 OFFCURVE",
"478 63 OFFCURVE",
"501 180 CURVE",
"411 180 LINE",
"395 110 OFFCURVE",
"345 70 OFFCURVE",
"271 70 CURVE SMOOTH",
"192 70 OFFCURVE",
"155 117 OFFCURVE",
"168 200 CURVE SMOOTH",
"192 351 LINE SMOOTH",
"205 433 OFFCURVE",
"257 480 OFFCURVE",
"336 480 CURVE SMOOTH",
"410 480 OFFCURVE",
"448 440 OFFCURVE",
"441 370 CURVE",
"531 370 LINE",
"545 487 OFFCURVE",
"476 560 OFFCURVE",
"349 560 CURVE SMOOTH",
"216 560 OFFCURVE",
"122 481 OFFCURVE",
"101 350 CURVE SMOOTH",
"78 200 LINE SMOOTH",
"57 69 OFFCURVE",
"125 -10 OFFCURVE",
"258 -10 CURVE SMOOTH"
);
}
);
width = 600;
},
{
layerId = "76E9374A-352D-4379-9771-A49E7E8AA0DC";
paths = (
{
closed = 1;
nodes = (
"377 -10 OFFCURVE",
"466 64 OFFCURVE",
"485 180 CURVE",
"435 180 LINE",
"420 90 OFFCURVE",
"355 34 OFFCURVE",
"263 34 CURVE SMOOTH",
"172 34 OFFCURVE",
"126 94 OFFCURVE",
"141 190 CURVE SMOOTH",
"168 360 LINE SMOOTH",
"183 457 OFFCURVE",
"249 516 OFFCURVE",
"340 516 CURVE SMOOTH",
"432 516 OFFCURVE",
"479 460 OFFCURVE",
"465 370 CURVE",
"515 370 LINE",
"533 486 OFFCURVE",
"468 560 OFFCURVE",
"347 560 CURVE SMOOTH",
"227 560 OFFCURVE",
"137 481 OFFCURVE",
"118 360 CURVE SMOOTH",
"91 190 LINE SMOOTH",
"72 68 OFFCURVE",
"135 -10 OFFCURVE",
"256 -10 CURVE SMOOTH"
);
}
);
width = 600;
}
);
unicode = 0063;
},
{
glyphname = d;
layers = (
{
layerId = "681EDAF7-11DB-44DD-9204-6ED8688B749D";
paths = (
{
closed = 1;
nodes = (
"289 -10 OFFCURVE",
"352 45 OFFCURVE",
"367 140 CURVE",
"327 105 LINE",
"362 105 LINE",
"345 0 LINE",
"490 0 LINE",
"606 730 LINE",
"456 730 LINE",
"432 580 LINE",
"415 445 LINE",
"381 445 LINE",
"410 410 LINE",
"425 505 OFFCURVE",
"379 560 OFFCURVE",
"288 560 CURVE SMOOTH",
"177 560 OFFCURVE",
"91 476 OFFCURVE",
"71 345 CURVE SMOOTH",
"48 205 LINE SMOOTH",
"28 73 OFFCURVE",
"86 -10 OFFCURVE",
"197 -10 CURVE SMOOTH"
);
},
{
closed = 1;
nodes = (
"216 120 OFFCURVE",
"190 152 OFFCURVE",
"199 210 CURVE SMOOTH",
"220 340 LINE SMOOTH",
"229 397 OFFCURVE",
"265 430 OFFCURVE",
"321 430 CURVE SMOOTH",
"377 430 OFFCURVE",
"403 397 OFFCURVE",
"394 340 CURVE SMOOTH",
"373 210 LINE SMOOTH",
"364 152 OFFCURVE",
"327 120 OFFCURVE",
"272 120 CURVE SMOOTH"
);
}
);
width = 600;
},
{
associatedMasterId = "76E9374A-352D-4379-9771-A49E7E8AA0DC";
layerId = "4D1F24A9-7F62-4711-AC2F-D8EB6C907C30";
name = public.background;
paths = (
{
closed = 1;
nodes = (
"371.943 482 OFFCURVE",
"416 432.82 OFFCURVE",
"416 350 CURVE SMOOTH",
"416 200 LINE SMOOTH",
"416 117.18 OFFCURVE",
"371.943 68 OFFCURVE",
"298 68 CURVE SMOOTH",
"222.114 68 OFFCURVE",
"180 115.11 OFFCURVE",
"180 200 CURVE SMOOTH",
"180 350 LINE SMOOTH",
"180 434.89 OFFCURVE",
"222.114 482 OFFCURVE",
"298 482 CURVE SMOOTH"
);
},
{
closed = 1;
nodes = (
"506 730 LINE",
"416 730 LINE",
"416.084 570 LINE",
"417.645 475 LINE",
"382.645 475 LINE",
"410.645 430 LINE",
"411.007 511.617 OFFCURVE",
"357.762 560 OFFCURVE",
"267.582 560 CURVE SMOOTH",
"157.172 560 OFFCURVE",
"90 482.456 OFFCURVE",
"90 355 CURVE SMOOTH",
"90 194 LINE SMOOTH",
"90 68.183 OFFCURVE",
"158.218 -10 OFFCURVE",
"268 -10 CURVE SMOOTH",
"357.854 -10 OFFCURVE",
"411 38.315 OFFCURVE",
"411 120 CURVE",
"383 80 LINE",
"418 80 LINE",
"418 0 LINE",
"506 0 LINE"
);
}
);
width = 600;
},
{
hints = (
{
place = "{36, 46}";
type = Stem;
},
{
place = "{378, -19}";
type = Stem;
},
{
place = "{378, 46}";
type = Stem;
},
{
horizontal = 1;
place = "{-54, 34}";
type = Stem;
},
{
horizontal = 1;
place = "{438, 34}";
type = Stem;
},
{
horizontal = 1;
place = "{686, -20}";
target = down;
type = TopGhost;
}
);
layerId = "03C02FE7-7458-4762-A27C-0F6E25AC479F";
paths = (
{
closed = 1;
nodes = (
"314 -10 OFFCURVE",
"379 42 OFFCURVE",
"392 126 CURVE",
"371 105 LINE",
"389 105 LINE",
"372 0 LINE",
"462 0 LINE",
"578 730 LINE",
"488 730 LINE",
"462 570 LINE",
"444 445 LINE",
"424 445 LINE",
"439 424 LINE",
"452 507 OFFCURVE",
"403 560 OFFCURVE",
"312 560 CURVE SMOOTH",
"202 560 OFFCURVE",
"122 482 OFFCURVE",
"102 355 CURVE SMOOTH",
"77 194 LINE SMOOTH",
"57 68 OFFCURVE",
"113 -10 OFFCURVE",
"222 -10 CURVE SMOOTH"
);
},
{
closed = 1;
nodes = (
"189 68 OFFCURVE",
"154 115 OFFCURVE",
"168 200 CURVE SMOOTH",
"191 350 LINE SMOOTH",
"205 435 OFFCURVE",
"254 482 OFFCURVE",
"330 482 CURVE SMOOTH",
"404 482 OFFCURVE",
"441 433 OFFCURVE",
"427 350 CURVE SMOOTH",
"404 200 LINE SMOOTH",
"391 117 OFFCURVE",
"339 68 OFFCURVE",
"265 68 CURVE SMOOTH"
);
}
);
width = 600;
},
{
layerId = "76E9374A-352D-4379-9771-A49E7E8AA0DC";
paths = (
{
closed = 1;
nodes = (
"337 -10 OFFCURVE",
"414 49 OFFCURVE",
"428 140 CURVE",
"380 75 LINE",
"408 75 LINE",
"396 0 LINE",
"446 0 LINE",
"562 730 LINE",
"512 730 LINE",
"488 580 LINE",
"471 475 LINE",
"453 475 LINE",
"471 410 LINE",
"485 501 OFFCURVE",
"427 560 OFFCURVE",
"332 560 CURVE SMOOTH",
"222 560 OFFCURVE",
"137 480 OFFCURVE",
"118 360 CURVE SMOOTH",
"91 189 LINE SMOOTH",
"72 69 OFFCURVE",
"132 -10 OFFCURVE",
"242 -10 CURVE SMOOTH"
);
},
{
closed = 1;
nodes = (
"170 33 OFFCURVE",
"125 91 OFFCURVE",
"141 189 CURVE SMOOTH",
"168 360 LINE SMOOTH",
"184 458 OFFCURVE",
"246 517 OFFCURVE",
"335 517 CURVE SMOOTH",
"426 517 OFFCURVE",
"468 458 OFFCURVE",
"453 360 CURVE SMOOTH",
"426 189 LINE SMOOTH",
"410 91 OFFCURVE",
"348 33 OFFCURVE",
"259 33 CURVE SMOOTH"
);
}
);
width = 600;
}
);
unicode = 0064;
},
{
color = (153,255,154,255);
glyphname = eth;
layers = (
{
layerId = "681EDAF7-11DB-44DD-9204-6ED8688B749D";
paths = (
{
closed = 1;
nodes = (
"416 -10 OFFCURVE",
"528 83 OFFCURVE",
"553 237 CURVE SMOOTH",
"569 336 OFFCURVE",
"545 439 OFFCURVE",
"484 537 CURVE SMOOTH",
"365 730 LINE",
"204 730 LINE",
"350 489 LINE SMOOTH",
"413 386 OFFCURVE",
"404 365 OFFCURVE",
"404 365 CURVE",
"398 365 LINE",
"398 365 OFFCURVE",
"364 446 OFFCURVE",
"269 446 CURVE SMOOTH",
"149 446 OFFCURVE",
"51 355 OFFCURVE",
"31 226 CURVE SMOOTH",
"9 84 OFFCURVE",
"97 -10 OFFCURVE",
"254 -10 CURVE SMOOTH"
);
},
{
closed = 1;
nodes = (
"207 115 OFFCURVE",
"171 158 OFFCURVE",
"181 225 CURVE SMOOTH",
"192 292 OFFCURVE",
"242 335 OFFCURVE",
"309 335 CURVE SMOOTH",
"375 335 OFFCURVE",
"411 291 OFFCURVE",
"401 225 CURVE SMOOTH",
"390 158 OFFCURVE",
"341 115 OFFCURVE",
"274 115 CURVE SMOOTH"
);
},
{
closed = 1;
nodes = (
"549 632 LINE",
"565 737 LINE",
"156 597 LINE",
"140 492 LINE"
);
}
);
width = 600;
},
{
hints = (
{
place = "{26, 46}";
type = Stem;
},
{
place = "{396, 46}";
type = Stem;
},
{
horizontal = 1;
place = "{-54, 36}";
type = Stem;
},
{
horizontal = 1;
place = "{316, 32}";
type = Stem;
}
);
layerId = "03C02FE7-7458-4762-A27C-0F6E25AC479F";
paths = (
{
closed = 1;
nodes = (
"395 -10 OFFCURVE",
"498 80 OFFCURVE",
"521 223 CURVE SMOOTH",
"534 304 OFFCURVE",
"515 404 OFFCURVE",
"466 493 CURVE SMOOTH",
"335 730 LINE",
"238 730 LINE",
"377 480 LINE SMOOTH",
"416 411 OFFCURVE",
"425 380 OFFCURVE",
"425 380 CURVE",
"411 380 LINE",
"411 380 OFFCURVE",
"386 436 OFFCURVE",
"306 436 CURVE SMOOTH",
"179 436 OFFCURVE",
"81 348 OFFCURVE",
"60 215 CURVE SMOOTH",
"39 82 OFFCURVE",
"118 -10 OFFCURVE",
"253 -10 CURVE SMOOTH"
);
},
{
closed = 1;
nodes = (
"184 70 OFFCURVE",
"136 129 OFFCURVE",
"150 215 CURVE SMOOTH",
"164 302 OFFCURVE",
"229 360 OFFCURVE",
"312 360 CURVE SMOOTH",
"397 360 OFFCURVE",
"444 302 OFFCURVE",
"430 215 CURVE SMOOTH",
"416 128 OFFCURVE",
"351 70 OFFCURVE",
"266 70 CURVE SMOOTH"
);
},
{
closed = 1;
nodes = (
"526 657 LINE",
"538 735 LINE",
"169 575 LINE",
"156 497 LINE"
);
}
);
width = 600;
},
{
layerId = "76E9374A-352D-4379-9771-A49E7E8AA0DC";
paths = (
{
closed = 1;
nodes = (
"390 -10 OFFCURVE",
"489 74 OFFCURVE",
"510 211 CURVE SMOOTH",
"524 303 OFFCURVE",
"500 398 OFFCURVE",
"435 511 CURVE SMOOTH",
"308 730 LINE",
"258 730 LINE",
"394 491 LINE SMOOTH",
"450 392 OFFCURVE",
"456 347 OFFCURVE",
"456 347 CURVE",
"453 347 LINE",
"453 347 OFFCURVE",
"415 436 OFFCURVE",
"315 436 CURVE SMOOTH",
"186 436 OFFCURVE",
"91 350 OFFCURVE",
"70 215 CURVE SMOOTH",
"49 83 OFFCURVE",
"125 -10 OFFCURVE",
"254 -10 CURVE SMOOTH"
);
},
{
closed = 1;
nodes = (
"163 40 OFFCURVE",
"108 110 OFFCURVE",
"125 215 CURVE SMOOTH",
"142 322 OFFCURVE",
"217 390 OFFCURVE",
"318 390 CURVE SMOOTH",
"413 390 OFFCURVE",
"471 318 OFFCURVE",
"455 216 CURVE SMOOTH",
"438 109 OFFCURVE",
"362 40 OFFCURVE",
"262 40 CURVE SMOOTH"
);
},
{
closed = 1;
nodes = (
"528 669 LINE",
"535 715 LINE",
"166 555 LINE",
"159 509 LINE"
);
}
);
width = 600;
}
);
unicode = 00F0;
},
{
glyphname = dcaron;
layers = (
{
components = (
{
alignment = -1;
name = d;
transform = "{1, 0, 0, 1, -10, 0}";
}
);
layerId = "681EDAF7-11DB-44DD-9204-6ED8688B749D";
paths = (
{
closed = 1;
nodes = (
"561 610 LINE",
"626 756 LINE",
"536 756 LINE",
"491 610 LINE"
);
}
);
width = 600;
},
{
components = (
{
alignment = -1;
name = d;
transform = "{1, 0, 0, 1, -20, 0}";
}
);
hints = (
{
place = "{16, 46}";
type = Stem;
},
{
place = "{358, -19}";
type = Stem;
},
{
place = "{358, 46}";
type = Stem;
},
{
horizontal = 1;
place = "{-54, 34}";
type = Stem;
},
{
horizontal = 1;
place = "{438, 34}";
type = Stem;
},
{
horizontal = 1;
place = "{686, -20}";
target = down;
type = TopGhost;
}
);
layerId = "03C02FE7-7458-4762-A27C-0F6E25AC479F";
paths = (
{
closed = 1;
nodes = (
"540 610 LINE",
"610 756 LINE",
"520 756 LINE",
"470 610 LINE"
);
}
);
width = 600;
},
{
components = (
{
alignment = -1;
name = d;
transform = "{1, 0, 0, 1, -10, 0}";
}
);
layerId = "76E9374A-352D-4379-9771-A49E7E8AA0DC";
paths = (
{
closed = 1;
nodes = (
"521 610 LINE",
"591 756 LINE",
"526 756 LINE",
"476 610 LINE"
);
}
);
width = 600;
}
);
unicode = 010F;
},
{
glyphname = dcroat;
layers = (
{
hints = (
{
place = "{4, 106}";
type = Stem;
},
{
place = "{348, 101}";
type = Stem;
},
{
horizontal = 1;
place = "{-54, 87}";
type = Stem;
},
{
horizontal = 1;
place = "{386, 86}";
type = Stem;
},
{
horizontal = 1;
place = "{536, 46}";
type = Stem;
},
{
horizontal = 1;
place = "{686, -20}";
target = down;
type = TopGhost;
}
);
layerId = "681EDAF7-11DB-44DD-9204-6ED8688B749D";
paths = (
{
closed = 1;
nodes = (
"289 -10 OFFCURVE",
"352 45 OFFCURVE",
"367 140 CURVE",
"327 105 LINE",
"362 105 LINE",
"345 0 LINE",
"490 0 LINE",
"606 730 LINE",
"456 730 LINE",
"422 520 LINE",
"406 385 LINE",
"371 385 LINE",
"400 350 LINE",
"415 445 OFFCURVE",
"369 500 OFFCURVE",
"278 500 CURVE SMOOTH",
"168 500 OFFCURVE",
"82 416 OFFCURVE",
"61 285 CURVE SMOOTH",
"48 205 LINE SMOOTH",
"28 73 OFFCURVE",
"86 -10 OFFCURVE",
"197 -10 CURVE SMOOTH"
);
},
{
closed = 1;
nodes = (
"216 120 OFFCURVE",
"190 152 OFFCURVE",
"199 210 CURVE SMOOTH",
"210 280 LINE SMOOTH",
"219 337 OFFCURVE",
"256 370 OFFCURVE",
"312 370 CURVE SMOOTH",
"367 370 OFFCURVE",
"393 337 OFFCURVE",
"384 280 CURVE SMOOTH",
"373 210 LINE SMOOTH",
"364 152 OFFCURVE",
"327 120 OFFCURVE",
"272 120 CURVE SMOOTH"
);
},
{
closed = 1;
nodes = (
"644 555 LINE",
"658 645 LINE",
"298 645 LINE",
"284 555 LINE"
);
}
);
width = 600;
},
{
hints = (
{
place = "{36, 298}";
type = Stem;
},
{
place = "{383, 41}";
type = Stem;
},
{
horizontal = 1;
place = "{-54, 448}";
type = Stem;
},
{
horizontal = 1;
place = "{24, 448}";
type = Stem;
},
{
horizontal = 1;
place = "{556, 31}";
type = Stem;
},
{
place = "{36, 46}";
type = Stem;
},
{
place = "{378, -19}";
type = Stem;
},
{
place = "{378, 46}";
type = Stem;
},
{
horizontal = 1;
place = "{-54, 34}";
type = Stem;
},
{
horizontal = 1;
place = "{438, 34}";
type = Stem;
},
{
horizontal = 1;
place = "{686, -20}";
target = down;
type = TopGhost;
}
);
layerId = "03C02FE7-7458-4762-A27C-0F6E25AC479F";
paths = (
{
closed = 1;
nodes = (
"314 -10 OFFCURVE",
"379 42 OFFCURVE",
"392 126 CURVE",
"371 105 LINE",
"389 105 LINE",
"372 0 LINE",
"462 0 LINE",
"578 730 LINE",
"488 730 LINE",
"453 510 LINE",
"435 385 LINE",
"415 385 LINE",
"429 364 LINE",
"443 447 OFFCURVE",
"394 500 OFFCURVE",
"303 500 CURVE SMOOTH",
"192 500 OFFCURVE",
"113 422 OFFCURVE",
"93 295 CURVE SMOOTH",
"77 194 LINE SMOOTH",
"57 68 OFFCURVE",
"113 -10 OFFCURVE",
"222 -10 CURVE SMOOTH"
);
},
{
closed = 1;
nodes = (
"189 68 OFFCURVE",
"154 115 OFFCURVE",
"168 200 CURVE SMOOTH",
"182 290 LINE SMOOTH",
"195 375 OFFCURVE",
"245 422 OFFCURVE",
"321 422 CURVE SMOOTH",
"395 422 OFFCURVE",
"431 373 OFFCURVE",
"418 290 CURVE SMOOTH",
"404 200 LINE SMOOTH",
"391 117 OFFCURVE",
"339 68 OFFCURVE",
"265 68 CURVE SMOOTH"
);
},
{
closed = 1;
nodes = (
"646 570 LINE",
"658 645 LINE",
"308 645 LINE",
"296 570 LINE"
);
}
);
width = 600;
},
{
layerId = "76E9374A-352D-4379-9771-A49E7E8AA0DC";
paths = (
{
closed = 1;
nodes = (
"337 -10 OFFCURVE",
"414 49 OFFCURVE",
"428 140 CURVE",
"380 75 LINE",
"408 75 LINE",
"396 0 LINE",
"446 0 LINE",
"562 730 LINE",
"512 730 LINE",
"478 520 LINE",
"462 415 LINE",
"444 415 LINE",
"461 350 LINE",
"476 441 OFFCURVE",
"418 500 OFFCURVE",
"322 500 CURVE SMOOTH",
"212 500 OFFCURVE",
"127 420 OFFCURVE",
"109 300 CURVE SMOOTH",
"91 189 LINE SMOOTH",
"72 69 OFFCURVE",
"132 -10 OFFCURVE",
"242 -10 CURVE SMOOTH"
);
},
{
closed = 1;
nodes = (
"170 33 OFFCURVE",
"125 91 OFFCURVE",
"141 189 CURVE SMOOTH",
"159 300 LINE SMOOTH",
"174 398 OFFCURVE",
"236 457 OFFCURVE",
"325 457 CURVE SMOOTH",
"417 457 OFFCURVE",
"459 398 OFFCURVE",
"444 300 CURVE SMOOTH",
"426 189 LINE SMOOTH",
"410 91 OFFCURVE",
"348 33 OFFCURVE",
"259 33 CURVE SMOOTH"
);
},
{
closed = 1;
nodes = (
"639 586 LINE",
"646 631 LINE",
"316 631 LINE",
"309 586 LINE"
);
}
);
width = 600;
}
);
unicode = 0111;
},
{
glyphname = e;
layers = (
{
associatedMasterId = "76E9374A-352D-4379-9771-A49E7E8AA0DC";
layerId = "4D1F24A9-7F62-4711-AC2F-D8EB6C907C30";
name = public.background;
paths = (
{
closed = 1;
nodes = (
"419.146 -10 OFFCURVE",
"498.023 44.345 OFFCURVE",
"509 134 CURVE",
"420 143 LINE",
"410.7 93.487 OFFCURVE",
"367.864 66 OFFCURVE",
"300 66 CURVE SMOOTH",
"217.536 66 OFFCURVE",
"176 112.991 OFFCURVE",
"176 200 CURVE SMOOTH",
"176 253 LINE",
"512 253 LINE",
"512 350 LINE SMOOTH",
"512 477.352 OFFCURVE",
"430.384 560 OFFCURVE",
"300 560 CURVE SMOOTH",
"169.912 560 OFFCURVE",
"88 477.063 OFFCURVE",
"88 350 CURVE SMOOTH",
"88 200 LINE SMOOTH",
"88 72.648 OFFCURVE",
"169.616 -10 OFFCURVE",
"300 -10 CURVE SMOOTH"
);
},
{
closed = 1;
nodes = (
"176 321 LINE",
"176 350 LINE SMOOTH",
"176 437.27 OFFCURVE",
"217.808 485 OFFCURVE",
"300 485 CURVE SMOOTH",
"382.192 485 OFFCURVE",
"424 437.27 OFFCURVE",
"424 350 CURVE SMOOTH",
"424 313 LINE",
"431 321 LINE"
);
}
);
width = 600;
},
{
layerId = "681EDAF7-11DB-44DD-9204-6ED8688B749D";
paths = (
{
closed = 1;
nodes = (
"374 -10 OFFCURVE",
"476 54 OFFCURVE",
"515 150 CURVE",
"368 150 LINE",
"355 122 OFFCURVE",
"323 105 OFFCURVE",
"276 105 CURVE SMOOTH",
"208 105 OFFCURVE",
"181 141 OFFCURVE",
"192 210 CURVE SMOOTH",
"197 240 LINE",
"534 240 LINE",
"550 340 LINE SMOOTH",
"571 472 OFFCURVE",
"492 560 OFFCURVE",
"346 560 CURVE SMOOTH",
"199 560 OFFCURVE",
"91 472 OFFCURVE",
"70 340 CURVE SMOOTH",
"49 210 LINE SMOOTH",
"28 78 OFFCURVE",
"108 -10 OFFCURVE",
"255 -10 CURVE SMOOTH"
);
},
{
closed = 1;
nodes = (
"414 325 LINE",
"210 325 LINE",
"213 340 LINE SMOOTH",
"224 408 OFFCURVE",
"262 445 OFFCURVE",
"327 445 CURVE SMOOTH",
"393 445 OFFCURVE",
"418 408 OFFCURVE",
"407 340 CURVE SMOOTH",
"403 315 LINE"
);
}
);
width = 600;
},
{
layerId = "03C02FE7-7458-4762-A27C-0F6E25AC479F";
paths = (
{
closed = 1;
nodes = (
"371 -10 OFFCURVE",
"459 48 OFFCURVE",
"486 140 CURVE",
"396 140 LINE",
"378 91 OFFCURVE",
"335 66 OFFCURVE",
"266 66 CURVE SMOOTH",
"184 66 OFFCURVE",
"152 113 OFFCURVE",
"166 200 CURVE SMOOTH",
"174 253 LINE",
"506 253 LINE",
"521 350 LINE SMOOTH",
"542 477 OFFCURVE",
"475 560 OFFCURVE",
"345 560 CURVE SMOOTH",
"215 560 OFFCURVE",
"122 477 OFFCURVE",
"101 350 CURVE SMOOTH",
"78 200 LINE SMOOTH",
"58 73 OFFCURVE",
"124 -10 OFFCURVE",
"254 -10 CURVE SMOOTH"
);
},
{
closed = 1;
nodes = (
"436 321 LINE",
"185 321 LINE",
"189 350 LINE SMOOTH",
"203 437 OFFCURVE",
"251 485 OFFCURVE",
"333 485 CURVE SMOOTH",
"415 485 OFFCURVE",
"447 437 OFFCURVE",
"433 350 CURVE SMOOTH",
"428 313 LINE"
);
}
);
width = 600;
},
{
layerId = "76E9374A-352D-4379-9771-A49E7E8AA0DC";
paths = (
{
closed = 1;
nodes = (
"358 -10 OFFCURVE",
"438 46 OFFCURVE",
"471 135 CURVE",
"421 135 LINE",
"393 72 OFFCURVE",
"337 34 OFFCURVE",
"262 34 CURVE SMOOTH",
"169 34 OFFCURVE",
"126 94 OFFCURVE",
"141 190 CURVE SMOOTH",
"153 265 LINE",
"493 265 LINE",
"508 360 LINE SMOOTH",
"527 481 OFFCURVE",
"466 560 OFFCURVE",
"346 560 CURVE SMOOTH",
"224 560 OFFCURVE",
"137 481 OFFCURVE",
"118 360 CURVE SMOOTH",
"91 190 LINE SMOOTH",
"72 68 OFFCURVE",
"133 -10 OFFCURVE",
"255 -10 CURVE SMOOTH"
);
},
{
closed = 1;
nodes = (
"461 308 LINE",
"160 308 LINE",
"168 360 LINE SMOOTH",
"183 457 OFFCURVE",
"245 516 OFFCURVE",
"339 516 CURVE SMOOTH",
"431 516 OFFCURVE",
"473 456 OFFCURVE",
"458 360 CURVE SMOOTH",
"448 299 LINE"
);
}
);
width = 600;
}
);
unicode = 0065;
},
{
glyphname = uni0259;
layers = (
{
hints = (
{
horizontal = 1;
place = "{-54, 71}";
type = Stem;
},
{
horizontal = 1;
place = "{401, 71}";
type = Stem;
},
{
place = "{4, 99}";
type = Stem;
},
{
place = "{363, 99}";
type = Stem;
}
);
layerId = "681EDAF7-11DB-44DD-9204-6ED8688B749D";
paths = (
{
closed = 1;
nodes = (
"400 -10 OFFCURVE",
"508 78 OFFCURVE",
"529 210 CURVE SMOOTH",
"550 340 LINE SMOOTH",
"571 472 OFFCURVE",
"491 560 OFFCURVE",
"344 560 CURVE SMOOTH",
"225 560 OFFCURVE",
"123 496 OFFCURVE",
"84 400 CURVE",
"231 400 LINE",
"245 428 OFFCURVE",
"277 445 OFFCURVE",
"323 445 CURVE SMOOTH",
"391 445 OFFCURVE",
"418 409 OFFCURVE",
"407 340 CURVE SMOOTH",
"402 310 LINE",
"65 310 LINE",
"49 210 LINE SMOOTH",
"28 78 OFFCURVE",
"108 -10 OFFCURVE",
"253 -10 CURVE SMOOTH"
);
},
{
closed = 1;
nodes = (
"206 105 OFFCURVE",
"182 142 OFFCURVE",
"192 210 CURVE SMOOTH",
"196 235 LINE",
"185 225 LINE",
"389 225 LINE",
"386 210 LINE SMOOTH",
"375 142 OFFCURVE",
"337 105 OFFCURVE",
"272 105 CURVE SMOOTH"
);
}
);
width = 600;
},
{
hints = (
{
place = "{36, 46}";
type = Stem;
},
{
place = "{386, 46}";
type = Stem;
},
{
horizontal = 1;
place = "{-54, 36}";
type = Stem;
},
{
horizontal = 1;
place = "{205, 31}";
type = Stem;
},
{
horizontal = 1;
place = "{436, 36}";
type = Stem;
},
{
horizontal = 1;
place = "{-54, 33}";
type = Stem;
},
{
horizontal = 1;
place = "{440, 32}";
type = Stem;
},
{
place = "{36, 45}";
type = Stem;
},
{
place = "{387, 45}";
type = Stem;
}
);
layerId = "03C02FE7-7458-4762-A27C-0F6E25AC479F";
paths = (
{
closed = 1;
nodes = (
"385 -10 OFFCURVE",
"478 73 OFFCURVE",
"498 200 CURVE SMOOTH",
"521 350 LINE SMOOTH",
"542 477 OFFCURVE",
"475 560 OFFCURVE",
"345 560 CURVE SMOOTH",
"228 560 OFFCURVE",
"140 502 OFFCURVE",
"113 410 CURVE",
"203 410 LINE",
"221 459 OFFCURVE",
"264 484 OFFCURVE",
"333 484 CURVE SMOOTH",
"415 484 OFFCURVE",
"447 437 OFFCURVE",
"433 350 CURVE SMOOTH",
"425 297 LINE",
"93 297 LINE",
"78 200 LINE SMOOTH",
"58 73 OFFCURVE",
"124 -10 OFFCURVE",
"254 -10 CURVE SMOOTH"
);
},
{
closed = 1;
nodes = (
"184 65 OFFCURVE",
"152 113 OFFCURVE",
"166 200 CURVE SMOOTH",
"172 237 LINE",
"163 229 LINE",
"414 229 LINE",
"410 200 LINE SMOOTH",
"396 113 OFFCURVE",
"348 65 OFFCURVE",
"266 65 CURVE SMOOTH"
);
}
);
width = 600;
},
{
layerId = "76E9374A-352D-4379-9771-A49E7E8AA0DC";
paths = (
{
closed = 1;
nodes = (
"375 -10 OFFCURVE",
"462 69 OFFCURVE",
"481 190 CURVE SMOOTH",
"508 360 LINE SMOOTH",
"527 482 OFFCURVE",
"467 560 OFFCURVE",
"344 560 CURVE SMOOTH",
"241 560 OFFCURVE",
"161 504 OFFCURVE",
"128 415 CURVE",
"178 415 LINE",
"206 478 OFFCURVE",
"263 516 OFFCURVE",
"337 516 CURVE SMOOTH",
"430 516 OFFCURVE",
"473 456 OFFCURVE",
"458 360 CURVE SMOOTH",
"446 285 LINE",
"106 285 LINE",
"91 190 LINE SMOOTH",
"72 69 OFFCURVE",
"133 -10 OFFCURVE",
"253 -10 CURVE SMOOTH"
);
},
{
closed = 1;
nodes = (
"169 34 OFFCURVE",
"126 94 OFFCURVE",
"141 190 CURVE SMOOTH",
"151 251 LINE",
"138 242 LINE",
"439 242 LINE",
"431 190 LINE SMOOTH",
"416 93 OFFCURVE",
"354 34 OFFCURVE",
"260 34 CURVE SMOOTH"
);
}
);
width = 600;
}
);
unicode = 0259;
},
{
color = (154,153,255,255);
glyphname = f;
layers = (
{
layerId = "681EDAF7-11DB-44DD-9204-6ED8688B749D";
paths = (
{
closed = 1;
nodes = (
"48 -180 LINE SMOOTH",
"186 -180 OFFCURVE",
"286 -96 OFFCURVE",
"307 40 CURVE SMOOTH",
"364 395 LINE",
"564 395 LINE",
"585 530 LINE",
"385 530 LINE",
"390 560 LINE SMOOTH",
"394 584 OFFCURVE",
"410 600 OFFCURVE",
"436 600 CURVE SMOOTH",
"596 600 LINE",
"617 730 LINE",
"452 730 LINE SMOOTH",
"339 730 OFFCURVE",
"256 665 OFFCURVE",
"240 565 CURVE SMOOTH",
"235 530 LINE",
"90 530 LINE",
"69 395 LINE",
"214 395 LINE",
"158 45 LINE SMOOTH",
"150 -9 OFFCURVE",
"114 -40 OFFCURVE",
"60 -40 CURVE SMOOTH",
"-50 -40 LINE",
"-73 -180 LINE"
);
}
);
width = 600;
},
{
layerId = "03C02FE7-7458-4762-A27C-0F6E25AC479F";
paths = (
{
closed = 1;
nodes = (
"16 -180 LINE SMOOTH",
"151 -180 OFFCURVE",
"250 -98 OFFCURVE",
"271 31 CURVE SMOOTH",
"338 457 LINE",
"563 457 LINE",
"576 539 LINE",
"351 539 LINE",
"360 593 LINE SMOOTH",
"366 628 OFFCURVE",
"388 648 OFFCURVE",
"424 648 CURVE SMOOTH",
"594 648 LINE",
"607 730 LINE",
"437 730 LINE SMOOTH",
"348 730 OFFCURVE",
"283 677 OFFCURVE",
"270 592 CURVE SMOOTH",
"261 539 LINE",
"101 539 LINE",
"88 457 LINE",
"248 457 LINE",
"181 31 LINE SMOOTH",
"168 -51 OFFCURVE",
"113 -97 OFFCURVE",
"30 -97 CURVE SMOOTH",
"-44 -97 LINE",
"-58 -180 LINE"
);
}
);
width = 600;
},
{
layerId = "76E9374A-352D-4379-9771-A49E7E8AA0DC";
paths = (
{
closed = 1;
nodes = (
"23 -180 LINE SMOOTH",
"145 -180 OFFCURVE",
"229 -109 OFFCURVE",
"248 10 CURVE SMOOTH",
"326 505 LINE",
"559 505 LINE",
"566 550 LINE",
"333 550 LINE",
"342 605 LINE SMOOTH",
"350 656 OFFCURVE",
"383 685 OFFCURVE",
"434 685 CURVE SMOOTH",
"587 685 LINE",
"595 730 LINE",
"442 730 LINE SMOOTH",
"361 730 OFFCURVE",
"304 683 OFFCURVE",
"292 605 CURVE SMOOTH",
"283 550 LINE",
"113 550 LINE",
"106 505 LINE",
"276 505 LINE",
"198 10 LINE SMOOTH",
"183 -84 OFFCURVE",
"125 -135 OFFCURVE",
"31 -135 CURVE SMOOTH",
"-35 -135 LINE",
"-43 -180 LINE"
);
}
);
width = 600;
}
);
unicode = 0066;
},
{
color = (255,204,153,255);
glyphname = g;
layers = (
{
associatedMasterId = "76E9374A-352D-4379-9771-A49E7E8AA0DC";
layerId = "4D1F24A9-7F62-4711-AC2F-D8EB6C907C30";
name = public.background;
paths = (
{
closed = 1;
nodes = (
"415.047 -190 OFFCURVE",
"490 -120.965 OFFCURVE",
"490 -15 CURVE SMOOTH",
"490 550 LINE",
"440 550 LINE",
"440 475 LINE",
"421.814 475 LINE",
"450 410 LINE",
"450 500.764 OFFCURVE",
"382.605 560 OFFCURVE",
"287 560 CURVE SMOOTH",
"177.139 560 OFFCURVE",
"105 479.726 OFFCURVE",
"105 360 CURVE SMOOTH",
"105 249 LINE SMOOTH",
"105 128.765 OFFCURVE",
"177.101 50 OFFCURVE",
"287.163 50 CURVE SMOOTH",
"382.656 50 OFFCURVE",
"450.002 109.322 OFFCURVE",
"449.875 200.063 CURVE",
"412.077 135 LINE",
"440 135 LINE",
"440 20 LINE",
"440 -15 LINE SMOOTH",
"440 -95.205 OFFCURVE",
"386.3 -145 OFFCURVE",
"300 -145 CURVE SMOOTH",
"215.64 -145 OFFCURVE",
"162.997 -100.771 OFFCURVE",
"163.236 -30.094 CURVE",
"116.253 -29.69 LINE",
"115.699 -126.768 OFFCURVE",
"188.175 -190 OFFCURVE",
"300 -190 CURVE SMOOTH"
);
},
{
closed = 1;
nodes = (
"208.368 93 OFFCURVE",
"155 151.43 OFFCURVE",
"155 249 CURVE SMOOTH",
"155 360 LINE SMOOTH",
"155 457.937 OFFCURVE",
"207.781 517 OFFCURVE",
"296.96 517 CURVE SMOOTH",
"388.309 517 OFFCURVE",
"440 457.537 OFFCURVE",
"440 360 CURVE SMOOTH",
"440 249 LINE SMOOTH",
"440 150.982 OFFCURVE",
"387.03 93 OFFCURVE",
"297.485 93 CURVE SMOOTH"
);
}
);
width = 600;
},
{
layerId = "681EDAF7-11DB-44DD-9204-6ED8688B749D";
paths = (
{
closed = 1;
nodes = (
"232 -180 LINE SMOOTH",
"373 -180 OFFCURVE",
"473 -106 OFFCURVE",
"492 14 CURVE SMOOTH",
"577 550 LINE",
"427 550 LINE",
"415 445 LINE",
"380 445 LINE",
"410 410 LINE",
"425 505 OFFCURVE",
"379 560 OFFCURVE",
"288 560 CURVE SMOOTH",
"177 560 OFFCURVE",
"91 476 OFFCURVE",
"71 345 CURVE SMOOTH",
"55 245 LINE SMOOTH",
"34 113 OFFCURVE",
"93 30 OFFCURVE",
"204 30 CURVE SMOOTH",
"295 30 OFFCURVE",
"358 85 OFFCURVE",
"374 180 CURVE",
"333 145 LINE",
"368 145 LINE",
"349 40 LINE",
"346 19 LINE SMOOTH",
"338 -31 OFFCURVE",
"302 -60 OFFCURVE",
"246 -60 CURVE SMOOTH",
"91 -60 LINE",
"72 -180 LINE"
);
},
{
closed = 1;
nodes = (
"222 160 OFFCURVE",
"196 192 OFFCURVE",
"206 250 CURVE SMOOTH",
"220 340 LINE SMOOTH",
"229 397 OFFCURVE",
"265 430 OFFCURVE",
"321 430 CURVE SMOOTH",
"376 430 OFFCURVE",
"403 397 OFFCURVE",
"394 340 CURVE SMOOTH",
"380 250 LINE SMOOTH",
"370 192 OFFCURVE",
"333 160 OFFCURVE",
"278 160 CURVE SMOOTH"
);
}
);
width = 600;
},
{
layerId = "03C02FE7-7458-4762-A27C-0F6E25AC479F";
paths = (
{
closed = 1;
nodes = (
"262 -180 LINE SMOOTH",
"369 -180 OFFCURVE",
"442 -119 OFFCURVE",
"458 -20 CURVE SMOOTH",
"548 550 LINE",
"461 550 LINE",
"449 475 LINE",
"414 475 LINE",
"435 430 LINE",
"448 512 OFFCURVE",
"403 560 OFFCURVE",
"313 560 CURVE SMOOTH",
"203 560 OFFCURVE",
"122 482 OFFCURVE",
"102 356 CURVE SMOOTH",
"84 240 LINE SMOOTH",
"64 113 OFFCURVE",
"119 35 OFFCURVE",
"230 35 CURVE SMOOTH",
"320 35 OFFCURVE",
"380 83 OFFCURVE",
"393 165 CURVE",
"358 120 LINE",
"393 120 LINE",
"379 50 LINE",
"368 -20 LINE SMOOTH",
"359 -73 OFFCURVE",
"330 -98 OFFCURVE",
"276 -98 CURVE SMOOTH",
"101 -98 LINE",
"88 -180 LINE"
);
},
{
closed = 1;
nodes = (
"196 113 OFFCURVE",
"161 160 OFFCURVE",
"175 245 CURVE SMOOTH",
"191 350 LINE SMOOTH",
"205 435 OFFCURVE",
"254 482 OFFCURVE",
"330 482 CURVE SMOOTH",
"404 482 OFFCURVE",
"441 433 OFFCURVE",
"427 350 CURVE SMOOTH",
"411 245 LINE SMOOTH",
"398 162 OFFCURVE",
"346 113 OFFCURVE",
"272 113 CURVE SMOOTH"
);
}
);
width = 600;
},
{
layerId = "76E9374A-352D-4379-9771-A49E7E8AA0DC";
paths = (
{
closed = 1;
nodes = (
"246 -180 LINE SMOOTH",
"358 -180 OFFCURVE",
"426 -124 OFFCURVE",
"444 -15 CURVE SMOOTH",
"533 550 LINE",
"483 550 LINE",
"471 475 LINE",
"453 475 LINE",
"471 410 LINE",
"485 501 OFFCURVE",
"427 560 OFFCURVE",
"332 560 CURVE SMOOTH",
"222 560 OFFCURVE",
"137 480 OFFCURVE",
"118 360 CURVE SMOOTH",
"99 239 LINE SMOOTH",
"80 119 OFFCURVE",
"139 40 OFFCURVE",
"249 40 CURVE SMOOTH",
"345 40 OFFCURVE",
"422 99 OFFCURVE",
"436 190 CURVE",
"388 125 LINE",
"416 125 LINE",
"401 30 LINE",
"394 -15 LINE SMOOTH",
"381 -94 OFFCURVE",
"332 -135 OFFCURVE",
"254 -135 CURVE SMOOTH",
"109 -135 LINE",
"101 -180 LINE"
);
},
{
closed = 1;
nodes = (
"177 83 OFFCURVE",
"133 141 OFFCURVE",
"149 239 CURVE SMOOTH",
"168 360 LINE SMOOTH",
"184 458 OFFCURVE",
"246 517 OFFCURVE",
"335 517 CURVE SMOOTH",
"426 517 OFFCURVE",
"469 458 OFFCURVE",
"453 360 CURVE SMOOTH",
"434 239 LINE SMOOTH",
"418 141 OFFCURVE",
"356 83 OFFCURVE",
"266 83 CURVE SMOOTH"
);
}
);
width = 600;
}
);
unicode = 0067;
},
{
glyphname = gcommaaccent;
layers = (
{
components = (
{
alignment = -1;
name = g;
}
);
layerId = "681EDAF7-11DB-44DD-9204-6ED8688B749D";
paths = (
{
closed = 1;
nodes = (
"286 640 LINE",
"381 785 LINE",
"251 785 LINE",
"136 640 LINE"
);
}
);
width = 600;
},
{
components = (
{
alignment = -1;
name = g;
}
);
layerId = "03C02FE7-7458-4762-A27C-0F6E25AC479F";
paths = (
{
closed = 1;
nodes = (
"271 640 LINE",
"366 785 LINE",
"271 785 LINE",
"166 640 LINE"
);
}
);
width = 600;
},
{
components = (
{
alignment = -1;
name = g;
}
);
layerId = "76E9374A-352D-4379-9771-A49E7E8AA0DC";
paths = (
{
closed = 1;
nodes = (
"251 640 LINE",
"341 785 LINE",
"291 785 LINE",
"186 640 LINE"
);
}
);
width = 600;
}
);
unicode = 0123;
},
{
glyphname = h;
layers = (
{
associatedMasterId = "76E9374A-352D-4379-9771-A49E7E8AA0DC";
layerId = "4D1F24A9-7F62-4711-AC2F-D8EB6C907C30";
name = public.background;
paths = (
{
closed = 1;
nodes = (
"66 0 LINE",
"216 0 LINE",
"216 340 LINE SMOOTH",
"216 397.84 OFFCURVE",
"246.211 430 OFFCURVE",
"300 430 CURVE SMOOTH",
"353.789 430 OFFCURVE",
"384 397.84 OFFCURVE",
"384 340 CURVE SMOOTH",
"384 0 LINE",
"534 0 LINE",
"534 355 LINE SMOOTH",
"534 477.627 OFFCURVE",
"465.61 560 OFFCURVE",
"363.8 560 CURVE SMOOTH",
"280.851 560 OFFCURVE",
"226 508.254 OFFCURVE",
"226 430 CURVE",
"255.217 475 LINE",
"208 475 LINE",
"216 550 LINE",
"216.176 730.693 LINE",
"66 730.693 LINE"
);
}
);
width = 600;
},
{
layerId = "681EDAF7-11DB-44DD-9204-6ED8688B749D";
paths = (
{
closed = 1;
nodes = (
"172 0 LINE",
"226 340 LINE SMOOTH",
"235 397 OFFCURVE",
"271 430 OFFCURVE",
"324 430 CURVE SMOOTH",
"378 430 OFFCURVE",
"405 397 OFFCURVE",
"396 340 CURVE SMOOTH",
"342 0 LINE",
"492 0 LINE",
"548 355 LINE SMOOTH",
"568 479 OFFCURVE",
"511 560 OFFCURVE",
"403 560 CURVE SMOOTH",
"312 560 OFFCURVE",
"247 503 OFFCURVE",
"232 410 CURVE",
"282 445 LINE",
"237 445 LINE",
"259 550 LINE",
"288 730 LINE",
"138 730 LINE",
"22 0 LINE"
);
}
);
width = 600;
},
{
hints = (
{
place = "{44, 46}";
type = Stem;
},
{
place = "{109, -19}";
type = Stem;
},
{
place = "{379, 46}";
type = Stem;
},
{
horizontal = 1;
place = "{440, 32}";
type = Stem;
},
{
horizontal = 1;
place = "{676, -20}";
target = down;
type = TopGhost;
},
{
horizontal = 1;
place = "{-44, 21}";
target = up;
type = BottomGhost;
}
);
layerId = "03C02FE7-7458-4762-A27C-0F6E25AC479F";
paths = (
{
closed = 1;
nodes = (
"140 0 LINE",
"195 350 LINE SMOOTH",
"209 435 OFFCURVE",
"261 484 OFFCURVE",
"335 484 CURVE SMOOTH",
"408 484 OFFCURVE",
"443 438 OFFCURVE",
"431 360 CURVE SMOOTH",
"374 0 LINE",
"464 0 LINE",
"523 370 LINE SMOOTH",
"541 487 OFFCURVE",
"483 560 OFFCURVE",
"373 560 CURVE SMOOTH",
"282 560 OFFCURVE",
"221 510 OFFCURVE",
"207 424 CURVE",
"229 445 LINE",
"210 445 LINE",
"227 550 LINE",
"256 730 LINE",
"166 730 LINE",
"50 0 LINE"
);
}
);
width = 600;
},
{
layerId = "76E9374A-352D-4379-9771-A49E7E8AA0DC";
paths = (
{
closed = 1;
nodes = (
"116 0 LINE",
"173 360 LINE SMOOTH",
"188 457 OFFCURVE",
"253 517 OFFCURVE",
"341 517 CURVE SMOOTH",
"427 517 OFFCURVE",
"471 459 OFFCURVE",
"455 360 CURVE SMOOTH",
"398 0 LINE",
"448 0 LINE",
"506 367 LINE SMOOTH",
"525 485 OFFCURVE",
"466 560 OFFCURVE",
"358 560 CURVE SMOOTH",
"262 560 OFFCURVE",
"188 501 OFFCURVE",
"174 410 CURVE",
"214 470 LINE",
"190 470 LINE",
"208 580 LINE",
"232 730 LINE",
"182 730 LINE",
"66 0 LINE"
);
}
);
width = 600;
}
);
unicode = 0068;
},
{
glyphname = hbar;
layers = (
{
components = (
{
alignment = -1;
name = "tshe-cy";
}
);
guideLines = (
{
position = "{-88, -188}";
}
);
layerId = "681EDAF7-11DB-44DD-9204-6ED8688B749D";
width = 600;
},
{
components = (
{
alignment = -1;
name = "tshe-cy";
}
);
guideLines = (
{
position = "{-88, 730}";
}
);
hints = (
{
place = "{44, 46}";
type = Stem;
},
{
place = "{379, 46}";
type = Stem;
},
{
horizontal = 1;
place = "{440, 32}";
type = Stem;
},
{
horizontal = 1;
place = "{556, 31}";
type = Stem;
},
{
horizontal = 1;
place = "{-44, 21}";
target = up;
type = BottomGhost;
},
{
horizontal = 1;
place = "{686, -20}";
target = down;
type = TopGhost;
},
{
place = "{109, -19}";
type = Stem;
},
{
horizontal = 1;
place = "{676, -20}";
target = down;
type = TopGhost;
}
);
layerId = "03C02FE7-7458-4762-A27C-0F6E25AC479F";
width = 600;
},
{
associatedMasterId = "76E9374A-352D-4379-9771-A49E7E8AA0DC";
layerId = "4D1F24A9-7F62-4711-AC2F-D8EB6C907C30";
name = public.background;
paths = (
{
closed = 1;
nodes = (
"40 615 LINE",
"280 615 LINE",
"280 660 LINE",
"40 660 LINE"
);
},
{
closed = 1;
nodes = (
"110 0 LINE",
"160 0 LINE",
"160 350 LINE SMOOTH",
"160 446.708 OFFCURVE",
"214.955 507 OFFCURVE",
"303.104 507 CURVE SMOOTH",
"388.997 507 OFFCURVE",
"442 448.507 OFFCURVE",
"442 350 CURVE SMOOTH",
"442 0 LINE",
"492 0 LINE",
"492 357 LINE SMOOTH",
"492 474.743 OFFCURVE",
"420.945 550 OFFCURVE",
"312.904 550 CURVE SMOOTH",
"217.033 550 OFFCURVE",
"153 491.072 OFFCURVE",
"153 400 CURVE",
"183.323 460.223 LINE",
"160 460 LINE",
"160 570.366 LINE",
"160 730 LINE",
"110 730 LINE"
);
}
);
width = 600;
},
{
components = (
{
alignment = -1;
name = "tshe-cy";
}
);
layerId = "76E9374A-352D-4379-9771-A49E7E8AA0DC";
width = 600;
}
);
unicode = 0127;
},
{
glyphname = i;
layers = (
{
hints = (
{
place = "{306, 126}";
type = Stem;
},
{
place = "{282, 117}";
type = Stem;
},
{
horizontal = 1;
place = "{371, 91}";
type = Stem;
},
{
horizontal = 1;
place = "{-44, 92}";
type = Stem;
}
);
layerId = "681EDAF7-11DB-44DD-9204-6ED8688B749D";
paths = (
{
closed = 1;
nodes = (
"516 0 LINE",
"538 136 LINE",
"378 136 LINE",
"443 550 LINE",
"138 550 LINE",
"117 415 LINE",
"282 415 LINE",
"238 136 LINE",
"48 136 LINE",
"26 0 LINE"
);
},
{
closed = 1;
nodes = (
"389 625 LINE SMOOTH",
"435 625 OFFCURVE",
"469 652 OFFCURVE",
"476 695 CURVE SMOOTH",
"483 737 OFFCURVE",
"457 765 OFFCURVE",
"412 765 CURVE SMOOTH",
"392 765 LINE SMOOTH",
"347 765 OFFCURVE",
"313 737 OFFCURVE",
"306 695 CURVE SMOOTH",
"299 653 OFFCURVE",
"325 625 OFFCURVE",
"370 625 CURVE SMOOTH"
);
}
);
width = 600;
},
{
hints = (
{
place = "{251, 46}";
type = Stem;
},
{
horizontal = 1;
place = "{-44, 38}";
type = Stem;
},
{
horizontal = 1;
place = "{424, 38}";
type = Stem;
},
{
horizontal = 1;
place = "{601, 76}";
type = Stem;
},
{
place = "{206, 106}";
type = Stem;
}
);
layerId = "03C02FE7-7458-4762-A27C-0F6E25AC479F";
paths = (
{
closed = 1;
nodes = (
"506 0 LINE",
"519 82 LINE",
"334 82 LINE",
"408 550 LINE",
"148 550 LINE",
"135 468 LINE",
"305 468 LINE",
"244 82 LINE",
"49 82 LINE",
"36 0 LINE"
);
},
{
closed = 1;
nodes = (
"378 645 LINE SMOOTH",
"417 645 OFFCURVE",
"447 668 OFFCURVE",
"453 704 CURVE SMOOTH",
"458 740 OFFCURVE",
"436 765 OFFCURVE",
"397 765 CURVE SMOOTH",
"377 765 LINE SMOOTH",
"338 765 OFFCURVE",
"308 740 OFFCURVE",
"303 704 CURVE SMOOTH",
"297 667 OFFCURVE",
"319 645 OFFCURVE",
"358 645 CURVE SMOOTH"
);
}
);
width = 600;
},
{
layerId = "76E9374A-352D-4379-9771-A49E7E8AA0DC";
paths = (
{
closed = 1;
nodes = (
"491 0 LINE",
"498 45 LINE",
"309 45 LINE",
"389 550 LINE",
"163 550 LINE",
"156 505 LINE",
"332 505 LINE",
"259 45 LINE",
"58 45 LINE",
"51 0 LINE"
);
},
{
closed = 1;
nodes = (
"374 650 LINE SMOOTH",
"407 650 OFFCURVE",
"432 672 OFFCURVE",
"438 705 CURVE SMOOTH",
"443 738 OFFCURVE",
"424 760 OFFCURVE",
"391 760 CURVE SMOOTH",
"386 760 LINE SMOOTH",
"353 760 OFFCURVE",
"328 738 OFFCURVE",
"323 705 CURVE SMOOTH",
"317 672 OFFCURVE",
"336 650 OFFCURVE",
"369 650 CURVE SMOOTH"
);
}
);
width = 600;
}
);
unicode = 0069;
},
{
glyphname = idotless;
layers = (
{
layerId = "681EDAF7-11DB-44DD-9204-6ED8688B749D";
paths = (
{
closed = 1;
nodes = (
"521 0 LINE",
"543 136 LINE",
"388 136 LINE",
"453 550 LINE",
"133 550 LINE",
"112 415 LINE",
"292 415 LINE",
"248 136 LINE",
"44 136 LINE",
"22 0 LINE"
);
}
);
width = 600;
},
{
hints = (
{
place = "{251, 46}";
type = Stem;
},
{
horizontal = 1;
place = "{-44, 38}";
type = Stem;
},
{
horizontal = 1;
place = "{424, 38}";
type = Stem;
}
);
layerId = "03C02FE7-7458-4762-A27C-0F6E25AC479F";
paths = (
{
closed = 1;
nodes = (
"501 0 LINE",
"514 82 LINE",
"354 82 LINE",
"428 550 LINE",
"158 550 LINE",
"145 468 LINE",
"325 468 LINE",
"264 82 LINE",
"59 82 LINE",
"46 0 LINE"
);
}
);
width = 600;
},
{
layerId = "76E9374A-352D-4379-9771-A49E7E8AA0DC";
paths = (
{
closed = 1;
nodes = (
"491 0 LINE",
"498 45 LINE",
"309 45 LINE",
"389 550 LINE",
"163 550 LINE",
"156 505 LINE",
"332 505 LINE",
"259 45 LINE",
"58 45 LINE",
"51 0 LINE"
);
}
);
width = 600;
}
);
unicode = 0131;
},
{
glyphname = j;
layers = (
{
hints = (
{
place = "{288, 186}";
type = Stem;
},
{
place = "{381, 126}";
type = Stem;
},
{
horizontal = 1;
place = "{-224, 96}";
type = Stem;
},
{
horizontal = 1;
place = "{366, 96}";
type = Stem;
}
);
layerId = "681EDAF7-11DB-44DD-9204-6ED8688B749D";
paths = (
{
closed = 1;
nodes = (
"178 -180 LINE SMOOTH",
"316 -180 OFFCURVE",
"416 -96 OFFCURVE",
"437 40 CURVE SMOOTH",
"518 550 LINE",
"153 550 LINE",
"131 410 LINE",
"346 410 LINE",
"288 45 LINE SMOOTH",
"280 -9 OFFCURVE",
"244 -40 OFFCURVE",
"190 -40 CURVE SMOOTH",
"30 -40 LINE",
"7 -180 LINE"
);
},
{
closed = 1;
nodes = (
"464 625 LINE SMOOTH",
"510 625 OFFCURVE",
"544 652 OFFCURVE",
"551 695 CURVE SMOOTH",
"558 737 OFFCURVE",
"532 765 OFFCURVE",
"487 765 CURVE SMOOTH",
"467 765 LINE SMOOTH",
"422 765 OFFCURVE",
"388 737 OFFCURVE",
"381 695 CURVE SMOOTH",
"374 653 OFFCURVE",
"400 625 OFFCURVE",
"445 625 CURVE SMOOTH"
);
}
);
width = 600;
},
{
hints = (
{
place = "{261, 106}";
type = Stem;
},
{
place = "{301, 46}";
type = Stem;
},
{
horizontal = 1;
place = "{-214, 39}";
type = Stem;
},
{
horizontal = 1;
place = "{424, 38}";
type = Stem;
},
{
horizontal = 1;
place = "{601, 76}";
type = Stem;
}
);
layerId = "03C02FE7-7458-4762-A27C-0F6E25AC479F";
paths = (
{
closed = 1;
nodes = (
"141 -180 LINE SMOOTH",
"284 -180 OFFCURVE",
"374 -105 OFFCURVE",
"396 31 CURVE SMOOTH",
"478 550 LINE",
"158 550 LINE",
"145 468 LINE",
"375 468 LINE",
"306 31 LINE SMOOTH",
"293 -51 OFFCURVE",
"238 -97 OFFCURVE",
"155 -97 CURVE SMOOTH",
"26 -97 LINE",
"12 -180 LINE"
);
},
{
closed = 1;
nodes = (
"453 645 LINE SMOOTH",
"492 645 OFFCURVE",
"522 668 OFFCURVE",
"528 704 CURVE SMOOTH",
"533 740 OFFCURVE",
"511 765 OFFCURVE",
"472 765 CURVE SMOOTH",
"452 765 LINE SMOOTH",
"413 765 OFFCURVE",
"383 740 OFFCURVE",
"378 704 CURVE SMOOTH",
"372 667 OFFCURVE",
"394 645 OFFCURVE",
"433 645 CURVE SMOOTH"
);
}
);
width = 600;
},
{
layerId = "76E9374A-352D-4379-9771-A49E7E8AA0DC";
paths = (
{
closed = 1;
nodes = (
"157 -180 LINE SMOOTH",
"279 -180 OFFCURVE",
"363 -109 OFFCURVE",
"382 10 CURVE SMOOTH",
"467 550 LINE",
"167 550 LINE",
"160 505 LINE",
"410 505 LINE",
"332 10 LINE SMOOTH",
"317 -84 OFFCURVE",
"259 -135 OFFCURVE",
"165 -135 CURVE SMOOTH",
"30 -135 LINE",
"22 -180 LINE"
);
},
{
closed = 1;
nodes = (
"453 645 LINE SMOOTH",
"486 645 OFFCURVE",
"512 667 OFFCURVE",
"517 700 CURVE SMOOTH",
"522 733 OFFCURVE",
"504 755 OFFCURVE",
"471 755 CURVE SMOOTH",
"466 755 LINE SMOOTH",
"433 755 OFFCURVE",
"407 733 OFFCURVE",
"402 700 CURVE SMOOTH",
"397 667 OFFCURVE",
"415 645 OFFCURVE",
"448 645 CURVE SMOOTH"
);
}
);
width = 600;
}
);
unicode = 006A;
},
{
glyphname = uni0237;
layers = (
{
layerId = "681EDAF7-11DB-44DD-9204-6ED8688B749D";
paths = (
{
closed = 1;
nodes = (
"178 -180 LINE SMOOTH",
"316 -180 OFFCURVE",
"416 -96 OFFCURVE",
"437 40 CURVE SMOOTH",
"518 550 LINE",
"153 550 LINE",
"131 410 LINE",
"346 410 LINE",
"288 45 LINE SMOOTH",
"280 -9 OFFCURVE",
"244 -40 OFFCURVE",
"190 -40 CURVE SMOOTH",
"30 -40 LINE",
"7 -180 LINE"
);
}
);
width = 600;
},
{
hints = (
{
place = "{301, 46}";
type = Stem;
},
{
horizontal = 1;
place = "{-209, 39}";
type = Stem;
},
{
horizontal = 1;
place = "{424, 38}";
type = Stem;
},
{
place = "{261, 106}";
type = Stem;
},
{
horizontal = 1;
place = "{-214, 39}";
type = Stem;
},
{
horizontal = 1;
place = "{601, 76}";
type = Stem;
}
);
layerId = "03C02FE7-7458-4762-A27C-0F6E25AC479F";
paths = (
{
closed = 1;
nodes = (
"141 -180 LINE SMOOTH",
"277 -180 OFFCURVE",
"375 -98 OFFCURVE",
"396 31 CURVE SMOOTH",
"478 550 LINE",
"158 550 LINE",
"145 468 LINE",
"375 468 LINE",
"306 31 LINE SMOOTH",
"293 -51 OFFCURVE",
"238 -97 OFFCURVE",
"155 -97 CURVE SMOOTH",
"26 -97 LINE",
"12 -180 LINE"
);
}
);
width = 600;
},
{
associatedMasterId = "76E9374A-352D-4379-9771-A49E7E8AA0DC";
layerId = "4D1F24A9-7F62-4711-AC2F-D8EB6C907C30";
name = public.background;
paths = (
{
closed = 1;
nodes = (
"174 550 LINE",
"174 500 LINE",
"342 500 LINE",
"400 500 LINE",
"400 446 LINE",
"400 0 LINE SMOOTH",
"400 -77 OFFCURVE",
"349 -125 OFFCURVE",
"265 -125 CURVE SMOOTH",
"181 -125 OFFCURVE",
"130 -77 OFFCURVE",
"130 0 CURVE SMOOTH",
"130 30 LINE",
"75 30 LINE",
"75 0 LINE SMOOTH",
"75 -109 OFFCURVE",
"147 -175 OFFCURVE",
"265 -175 CURVE SMOOTH",
"383 -175 OFFCURVE",
"456 -108 OFFCURVE",
"456 0 CURVE SMOOTH",
"455 550 LINE"
);
}
);
width = 600;
},
{
layerId = "76E9374A-352D-4379-9771-A49E7E8AA0DC";
paths = (
{
closed = 1;
nodes = (
"157 -180 LINE SMOOTH",
"279 -180 OFFCURVE",
"363 -109 OFFCURVE",
"382 10 CURVE SMOOTH",
"467 550 LINE",
"167 550 LINE",
"160 505 LINE",
"410 505 LINE",
"332 10 LINE SMOOTH",
"317 -84 OFFCURVE",
"259 -135 OFFCURVE",
"165 -135 CURVE SMOOTH",
"30 -135 LINE",
"22 -180 LINE"
);
}
);
width = 600;
}
);
unicode = 0237;
},
{
color = (153,255,154,255);
glyphname = k;
layers = (
{
layerId = "681EDAF7-11DB-44DD-9204-6ED8688B749D";
paths = (
{
closed = 1;
nodes = (
"175 0 LINE",
"209 216 LINE",
"285 216 LINE",
"366 0 LINE",
"532 0 LINE",
"421 277 LINE",
"618 550 LINE",
"450 550 LINE",
"302 342 LINE",
"229 342 LINE",
"291 730 LINE",
"141 730 LINE",
"25 0 LINE"
);
}
);
width = 600;
},
{
associatedMasterId = "76E9374A-352D-4379-9771-A49E7E8AA0DC";
hints = (
{
place = "{93, 90}";
type = Stem;
},
{
horizontal = 1;
place = "{240, 80}";
type = Stem;
},
{
horizontal = 1;
place = "{0, 21}";
target = up;
type = BottomGhost;
},
{
horizontal = 1;
place = "{720, -20}";
target = down;
type = TopGhost;
}
);
layerId = "4D1F24A9-7F62-4711-AC2F-D8EB6C907C30";
name = public.background;
paths = (
{
closed = 1;
nodes = (
"184 730 LINE",
"184 289 LINE",
"199 289 LINE",
"430 550 LINE",
"540 550 LINE",
"296 283 LINE",
"544 0 LINE",
"434 0 LINE",
"199 271 LINE",
"184 271 LINE",
"184 0 LINE",
"94 0 LINE",
"94 730 LINE"
);
}
);
width = 600;
},
{
layerId = "03C02FE7-7458-4762-A27C-0F6E25AC479F";
paths = (
{
closed = 1;
nodes = (
"143 0 LINE",
"182 245 LINE",
"280 245 LINE",
"401 0 LINE",
"502 0 LINE",
"360 284 LINE",
"587 550 LINE",
"482 550 LINE",
"286 323 LINE",
"194 323 LINE",
"259 730 LINE",
"169 730 LINE",
"53 0 LINE"
);
}
);
width = 600;
},
{
layerId = "76E9374A-352D-4379-9771-A49E7E8AA0DC";
paths = (
{
closed = 1;
nodes = (
"119 0 LINE",
"161 264 LINE",
"297 264 LINE",
"428 0 LINE",
"486 0 LINE",
"343 285 LINE",
"570 550 LINE",
"508 550 LINE",
"302 309 LINE",
"168 309 LINE",
"235 730 LINE",
"185 730 LINE",
"69 0 LINE"
);
}
);
width = 600;
}
);
unicode = 006B;
},
{
glyphname = l;
layers = (
{
associatedMasterId = "76E9374A-352D-4379-9771-A49E7E8AA0DC";
layerId = "4D1F24A9-7F62-4711-AC2F-D8EB6C907C30";
name = public.background;
paths = (
{
closed = 1;
nodes = (
"110 729.694 LINE",
"330 729.694 LINE",
"330 45 LINE",
"525 45 LINE",
"525 0 LINE",
"85 0 LINE",
"85 45 LINE",
"280 45 LINE",
"280 684.694 LINE",
"110 684.694 LINE"
);
}
);
width = 600;
},
{
layerId = "681EDAF7-11DB-44DD-9204-6ED8688B749D";
paths = (
{
closed = 1;
nodes = (
"521 0 LINE",
"542 135 LINE",
"382 135 LINE SMOOTH",
"346 135 OFFCURVE",
"326 159 OFFCURVE",
"332 195 CURVE SMOOTH",
"417 730 LINE",
"97 730 LINE",
"75 595 LINE",
"245 595 LINE",
"182 195 LINE SMOOTH",
"163 78 OFFCURVE",
"229 0 OFFCURVE",
"346 0 CURVE SMOOTH"
);
}
);
width = 600;
},
{
layerId = "03C02FE7-7458-4762-A27C-0F6E25AC479F";
paths = (
{
closed = 1;
nodes = (
"506 0 LINE",
"519 82 LINE",
"334 82 LINE SMOOTH",
"291 82 OFFCURVE",
"268 110 OFFCURVE",
"276 155 CURVE SMOOTH",
"367 730 LINE",
"112 730 LINE",
"99 648 LINE",
"264 648 LINE",
"186 155 LINE SMOOTH",
"171 61 OFFCURVE",
"224 0 OFFCURVE",
"321 0 CURVE SMOOTH"
);
}
);
width = 600;
},
{
layerId = "76E9374A-352D-4379-9771-A49E7E8AA0DC";
paths = (
{
closed = 1;
nodes = (
"496 0 LINE",
"503 45 LINE",
"328 45 LINE SMOOTH",
"269 45 OFFCURVE",
"243 76 OFFCURVE",
"252 135 CURVE SMOOTH",
"347 730 LINE",
"122 730 LINE",
"115 685 LINE",
"290 685 LINE",
"202 135 LINE SMOOTH",
"189 48 OFFCURVE",
"231 0 OFFCURVE",
"321 0 CURVE SMOOTH"
);
}
);
width = 600;
}
);
unicode = 006C;
},
{
color = (153,255,154,255);
glyphname = lslash;
layers = (
{
components = (
{
alignment = -1;
name = l;
}
);
guideLines = (
{
position = "{-88, 710}";
}
);
layerId = "681EDAF7-11DB-44DD-9204-6ED8688B749D";
paths = (
{
closed = 1;
nodes = (
"503 420 LINE",
"525 560 LINE",
"115 370 LINE",
"92 230 LINE"
);
}
);
width = 600;
},
{
components = (
{
alignment = -1;
name = l;
}
);
hints = (
{
place = "{178, 46}";
type = Stem;
},
{
horizontal = 1;
place = "{-44, 38}";
type = Stem;
},
{
horizontal = 1;
place = "{604, 38}";
type = Stem;
}
);
layerId = "03C02FE7-7458-4762-A27C-0F6E25AC479F";
paths = (
{
closed = 1;
nodes = (
"502 480 LINE",
"515 560 LINE",
"105 310 LINE",
"92 230 LINE"
);
}
);
width = 600;
},
{
components = (
{
alignment = -1;
name = l;
}
);
layerId = "76E9374A-352D-4379-9771-A49E7E8AA0DC";
paths = (
{
closed = 1;
nodes = (
"504 495 LINE",
"513 550 LINE",
"103 295 LINE",
"94 240 LINE"
);
}
);
width = 600;
}
);
unicode = 0142;
},
{
glyphname = m;
layers = (
{
layerId = "681EDAF7-11DB-44DD-9204-6ED8688B749D";
paths = (
{
closed = 1;
nodes = (
"127 0 LINE",
"191 403 LINE SMOOTH",
"196 438 OFFCURVE",
"209 458 OFFCURVE",
"236 458 CURVE SMOOTH",
"263 458 OFFCURVE",
"275 439 OFFCURVE",
"269 403 CURVE SMOOTH",
"205 0 LINE",
"308 0 LINE",
"372 403 LINE SMOOTH",
"377 438 OFFCURVE",
"392 458 OFFCURVE",
"419 458 CURVE SMOOTH",
"446 458 OFFCURVE",
"456 439 OFFCURVE",
"450 403 CURVE SMOOTH",
"386 0 LINE",
"515 0 LINE",
"582 420 LINE SMOOTH",
"595 506 OFFCURVE",
"558 560 OFFCURVE",
"492 560 CURVE SMOOTH",
"433 560 OFFCURVE",
"389 519 OFFCURVE",
"379 456 CURVE",
"390 470 LINE",
"362 470 LINE",
"373 425 LINE",
"386 506 OFFCURVE",
"361 560 OFFCURVE",
"304 560 CURVE SMOOTH",
"249 560 OFFCURVE",
"203 519 OFFCURVE",
"193 456 CURVE",
"214 470 LINE",
"190 470 LINE",
"203 550 LINE",
"85 550 LINE",
"-2 0 LINE"
);
}
);
width = 600;
},
{
hints = (
{
place = "{18, 34}";
type = Stem;
},
{
place = "{217, 34}";
type = Stem;
},
{
place = "{416, 34}";
type = Stem;
},
{
horizontal = 1;
place = "{447, 25}";
type = Stem;
},
{
horizontal = 1;
place = "{-44, 21}";
target = up;
type = BottomGhost;
}
);
layerId = "03C02FE7-7458-4762-A27C-0F6E25AC479F";
paths = (
{
closed = 1;
nodes = (
"105 0 LINE",
"172 420 LINE SMOOTH",
"179 465 OFFCURVE",
"202 491 OFFCURVE",
"239 491 CURVE SMOOTH",
"276 491 OFFCURVE",
"294 465 OFFCURVE",
"286 419 CURVE SMOOTH",
"220 0 LINE",
"292 0 LINE",
"359 420 LINE SMOOTH",
"366 465 OFFCURVE",
"391 491 OFFCURVE",
"428 491 CURVE SMOOTH",
"465 491 OFFCURVE",
"480 464 OFFCURVE",
"473 419 CURVE SMOOTH",
"407 0 LINE",
"490 0 LINE",
"556 418 LINE SMOOTH",
"570 503 OFFCURVE",
"538 560 OFFCURVE",
"470 560 CURVE SMOOTH",
"414 560 OFFCURVE",
"370 521 OFFCURVE",
"361 460 CURVE",
"384 484 LINE",
"342 484 LINE",
"360 430 LINE",
"373 513 OFFCURVE",
"346 560 OFFCURVE",
"285 560 CURVE SMOOTH",
"229 560 OFFCURVE",
"188 521 OFFCURVE",
"178 460 CURVE",
"196 484 LINE",
"178 484 LINE",
"188 550 LINE",
"109 550 LINE",
"22 0 LINE"
);
}
);
width = 600;
},
{
layerId = "76E9374A-352D-4379-9771-A49E7E8AA0DC";
paths = (
{
closed = 1;
nodes = (
"84 0 LINE",
"151 425 LINE",
"163 482 OFFCURVE",
"199 518 OFFCURVE",
"243 518 CURVE SMOOTH",
"288 518 OFFCURVE",
"308 482 OFFCURVE",
"299 425 CURVE SMOOTH",
"232 0 LINE",
"280 0 LINE",
"347 425 LINE SMOOTH",
"356 481 OFFCURVE",
"392 518 OFFCURVE",
"439 518 CURVE SMOOTH",
"483 518 OFFCURVE",
"504 482 OFFCURVE",
"495 425 CURVE SMOOTH",
"428 0 LINE",
"477 0 LINE",
"545 431 LINE SMOOTH",
"558 511 OFFCURVE",
"527 560 OFFCURVE",
"461 560 CURVE SMOOTH",
"402 560 OFFCURVE",
"361 521 OFFCURVE",
"353 461 CURVE",
"357 475 LINE",
"349 475 LINE",
"351 461 LINE",
"353 524 OFFCURVE",
"322 560 OFFCURVE",
"265 560 CURVE SMOOTH",
"206 560 OFFCURVE",
"164 521 OFFCURVE",
"156 461 CURVE",
"160 475 LINE",
"154 475 LINE",
"166 550 LINE",
"122 550 LINE",
"35 0 LINE"
);
}
);
width = 600;
}
);
unicode = 006D;
},
{
glyphname = n;
layers = (
{
associatedMasterId = "76E9374A-352D-4379-9771-A49E7E8AA0DC";
layerId = "4D1F24A9-7F62-4711-AC2F-D8EB6C907C30";
name = public.background;
paths = (
{
closed = 1;
nodes = (
"66 0 LINE",
"216 0 LINE",
"216 340 LINE SMOOTH",
"216 397.087 OFFCURVE",
"246.719 430 OFFCURVE",
"300 430 CURVE SMOOTH",
"354.027 430 OFFCURVE",
"386 396.54 OFFCURVE",
"386 340 CURVE SMOOTH",
"386 0 LINE",
"536 0 LINE",
"536 355 LINE SMOOTH",
"536 479.204 OFFCURVE",
"466.112 560 OFFCURVE",
"358.676 560 CURVE SMOOTH",
"271.261 560 OFFCURVE",
"221 506.7 OFFCURVE",
"221 414 CURVE",
"255.217 475 LINE",
"211 475 LINE",
"211 550 LINE",
"66 550 LINE"
);
}
);
width = 600;
},
{
layerId = "681EDAF7-11DB-44DD-9204-6ED8688B749D";
paths = (
{
closed = 1;
nodes = (
"172 0 LINE",
"226 340 LINE SMOOTH",
"235 397 OFFCURVE",
"271 430 OFFCURVE",
"324 430 CURVE SMOOTH",
"378 430 OFFCURVE",
"405 397 OFFCURVE",
"396 340 CURVE SMOOTH",
"342 0 LINE",
"492 0 LINE",
"548 355 LINE SMOOTH",
"567 477 OFFCURVE",
"509 560 OFFCURVE",
"403 560 CURVE SMOOTH",
"312 560 OFFCURVE",
"247 503 OFFCURVE",
"232 410 CURVE",
"282 445 LINE",
"237 445 LINE",
"254 550 LINE",
"109 550 LINE",
"22 0 LINE"
);
}
);
width = 600;
},
{
layerId = "03C02FE7-7458-4762-A27C-0F6E25AC479F";
paths = (
{
closed = 1;
nodes = (
"140 0 LINE",
"195 350 LINE SMOOTH",
"209 435 OFFCURVE",
"261 484 OFFCURVE",
"335 484 CURVE SMOOTH",
"408 484 OFFCURVE",
"443 438 OFFCURVE",
"431 360 CURVE SMOOTH",
"374 0 LINE",
"464 0 LINE",
"523 370 LINE SMOOTH",
"541 484 OFFCURVE",
"481 560 OFFCURVE",
"373 560 CURVE SMOOTH",
"282 560 OFFCURVE",
"221 510 OFFCURVE",
"207 424 CURVE",
"229 445 LINE",
"210 445 LINE",
"227 550 LINE",
"137 550 LINE",
"50 0 LINE"
);
}
);
width = 600;
},
{
layerId = "76E9374A-352D-4379-9771-A49E7E8AA0DC";
paths = (
{
closed = 1;
nodes = (
"116 0 LINE",
"173 360 LINE SMOOTH",
"188 457 OFFCURVE",
"253 517 OFFCURVE",
"341 517 CURVE SMOOTH",
"428 517 OFFCURVE",
"471 458 OFFCURVE",
"455 360 CURVE SMOOTH",
"398 0 LINE",
"448 0 LINE",
"506 367 LINE SMOOTH",
"524 482 OFFCURVE",
"464 560 OFFCURVE",
"358 560 CURVE SMOOTH",
"260 560 OFFCURVE",
"188 499 OFFCURVE",
"173 404 CURVE",
"211 455 LINE",
"188 455 LINE",
"203 550 LINE",
"153 550 LINE",
"66 0 LINE"
);
}
);
width = 600;
}
);
unicode = 006E;
},
{
color = (153,255,154,255);
glyphname = napostrophe;
layers = (
{
components = (
{
alignment = -1;
name = n;
}
);
layerId = "681EDAF7-11DB-44DD-9204-6ED8688B749D";
paths = (
{
closed = 1;
nodes = (
"190 645 LINE",
"328 791 LINE",
"178 791 LINE",
"60 645 LINE"
);
}
);
width = 600;
},
{
components = (
{
alignment = -1;
name = n;
}
);
hints = (
{
horizontal = 1;
place = "{747, -20}";
target = down;
type = TopGhost;
},
{
horizontal = 1;
place = "{601, 21}";
target = up;
type = BottomGhost;
}
);
layerId = "03C02FE7-7458-4762-A27C-0F6E25AC479F";
paths = (
{
closed = 1;
nodes = (
"178 645 LINE",
"306 791 LINE",
"201 791 LINE",
"83 645 LINE"
);
}
);
width = 600;
},
{
components = (
{
alignment = -1;
name = n;
}
);
layerId = "76E9374A-352D-4379-9771-A49E7E8AA0DC";
paths = (
{
closed = 1;
nodes = (
"163 645 LINE",
"291 791 LINE",
"226 791 LINE",
"113 645 LINE"
);
}
);
width = 600;
}
);
unicode = 0149;
},
{
color = (154,153,255,255);
glyphname = eng;
layers = (
{
layerId = "681EDAF7-11DB-44DD-9204-6ED8688B749D";
paths = (
{
closed = 1;
nodes = (
"223 -180 LINE SMOOTH",
"364 -180 OFFCURVE",
"477 -96 OFFCURVE",
"496 25 CURVE SMOOTH",
"548 355 LINE SMOOTH",
"568 479 OFFCURVE",
"511 560 OFFCURVE",
"403 560 CURVE SMOOTH",
"312 560 OFFCURVE",
"247 503 OFFCURVE",
"232 410 CURVE",
"282 445 LINE",
"237 445 LINE",
"254 550 LINE",
"109 550 LINE",
"22 0 LINE",
"172 0 LINE",
"226 340 LINE SMOOTH",
"235 397 OFFCURVE",
"271 430 OFFCURVE",
"324 430 CURVE SMOOTH",
"378 430 OFFCURVE",
"405 397 OFFCURVE",
"396 340 CURVE SMOOTH",
"348 41 LINE SMOOTH",
"341 -7 OFFCURVE",
"307 -35 OFFCURVE",
"256 -35 CURVE SMOOTH",
"196 -35 LINE",
"173 -180 LINE"
);
}
);
width = 600;
},
{
hints = (
{
place = "{44, 46}";
type = Stem;
},
{
place = "{379, 46}";
type = Stem;
},
{
horizontal = 1;
place = "{-214, 38}";
type = Stem;
},
{
horizontal = 1;
place = "{438, 34}";
type = Stem;
}
);
layerId = "03C02FE7-7458-4762-A27C-0F6E25AC479F";
paths = (
{
closed = 1;
nodes = (
"230 -180 LINE SMOOTH",
"354 -180 OFFCURVE",
"448 -103 OFFCURVE",
"466 15 CURVE SMOOTH",
"523 370 LINE SMOOTH",
"541 487 OFFCURVE",
"483 560 OFFCURVE",
"373 560 CURVE SMOOTH",
"282 560 OFFCURVE",
"221 510 OFFCURVE",
"207 424 CURVE",
"229 445 LINE",
"210 445 LINE",
"227 550 LINE",
"137 550 LINE",
"50 0 LINE",
"140 0 LINE",
"195 350 LINE SMOOTH",
"209 435 OFFCURVE",
"261 484 OFFCURVE",
"335 484 CURVE SMOOTH",
"408 484 OFFCURVE",
"443 438 OFFCURVE",
"431 360 CURVE SMOOTH",
"376 15 LINE SMOOTH",
"365 -55 OFFCURVE",
"314 -98 OFFCURVE",
"243 -98 CURVE SMOOTH",
"180 -98 LINE",
"167 -180 LINE"
);
}
);
width = 600;
},
{
layerId = "76E9374A-352D-4379-9771-A49E7E8AA0DC";
paths = (
{
closed = 1;
nodes = (
"213 -180 LINE SMOOTH",
"339 -180 OFFCURVE",
"432 -104 OFFCURVE",
"450 15 CURVE SMOOTH",
"506 367 LINE SMOOTH",
"525 485 OFFCURVE",
"466 560 OFFCURVE",
"358 560 CURVE SMOOTH",
"260 560 OFFCURVE",
"188 499 OFFCURVE",
"173 404 CURVE",
"211 455 LINE",
"188 455 LINE",
"203 550 LINE",
"153 550 LINE",
"66 0 LINE",
"116 0 LINE",
"173 360 LINE SMOOTH",
"188 457 OFFCURVE",
"253 517 OFFCURVE",
"341 517 CURVE SMOOTH",
"427 517 OFFCURVE",
"471 459 OFFCURVE",
"455 360 CURVE SMOOTH",
"400 15 LINE SMOOTH",
"386 -78 OFFCURVE",
"317 -135 OFFCURVE",
"221 -135 CURVE SMOOTH",
"180 -135 LINE",
"172 -180 LINE"
);
}
);
width = 600;
}
);
unicode = 014B;
},
{
color = (153,255,154,255);
glyphname = o;
layers = (
{
associatedMasterId = "76E9374A-352D-4379-9771-A49E7E8AA0DC";
layerId = "4D1F24A9-7F62-4711-AC2F-D8EB6C907C30";
name = public.background;
paths = (
{
closed = 1;
nodes = (
"239.874 120 OFFCURVE",
"206 152.432 OFFCURVE",
"206 210 CURVE SMOOTH",
"206 340 LINE SMOOTH",
"206 397.849 OFFCURVE",
"239.1 430 OFFCURVE",
"300 430 CURVE SMOOTH",
"360.981 430 OFFCURVE",
"394 397.772 OFFCURVE",
"394 340 CURVE SMOOTH",
"394 210 LINE SMOOTH",
"394 152.163 OFFCURVE",
"360.407 120 OFFCURVE",
"300 120 CURVE SMOOTH"
);
},
{
closed = 1;
nodes = (
"447.33 -10 OFFCURVE",
"544 77.704 OFFCURVE",
"544 210 CURVE SMOOTH",
"544 340 LINE SMOOTH",
"544 472.281 OFFCURVE",
"447.313 560 OFFCURVE",
"300 560 CURVE SMOOTH",
"152.687 560 OFFCURVE",
"56 472.281 OFFCURVE",
"56 340 CURVE SMOOTH",
"56 210 LINE SMOOTH",
"56 77.704 OFFCURVE",
"152.67 -10 OFFCURVE",
"300 -10 CURVE SMOOTH"
);
}
);
width = 600;
},
{
hints = (
{
horizontal = 1;
place = "{386, 86}";
type = Stem;
},
{
horizontal = 1;
place = "{-54, 86}";
type = Stem;
},
{
place = "{49, 127}";
type = Stem;
},
{
place = "{400, 85}";
type = Stem;
}
);
layerId = "681EDAF7-11DB-44DD-9204-6ED8688B749D";
paths = (
{
closed = 1;
nodes = (
"401 -10 OFFCURVE",
"508 78 OFFCURVE",
"529 210 CURVE SMOOTH",
"550 340 LINE SMOOTH",
"571 472 OFFCURVE",
"492 560 OFFCURVE",
"345 560 CURVE SMOOTH",
"198 560 OFFCURVE",
"91 472 OFFCURVE",
"70 340 CURVE SMOOTH",
"49 210 LINE SMOOTH",
"28 78 OFFCURVE",
"107 -10 OFFCURVE",
"254 -10 CURVE SMOOTH"
);
},
{
closed = 1;
nodes = (
"217 120 OFFCURVE",
"190 152 OFFCURVE",
"199 210 CURVE SMOOTH",
"220 340 LINE SMOOTH",
"229 398 OFFCURVE",
"266 430 OFFCURVE",
"324 430 CURVE SMOOTH",
"382 430 OFFCURVE",
"409 398 OFFCURVE",
"400 340 CURVE SMOOTH",
"379 210 LINE SMOOTH",
"370 152 OFFCURVE",
"333 120 OFFCURVE",
"275 120 CURVE SMOOTH"
);
}
);
width = 600;
},
{
layerId = "03C02FE7-7458-4762-A27C-0F6E25AC479F";
paths = (
{
closed = 1;
nodes = (
"391 -10 OFFCURVE",
"476 63 OFFCURVE",
"498 200 CURVE SMOOTH",
"522 351 LINE SMOOTH",
"542 481 OFFCURVE",
"475 560 OFFCURVE",
"345 560 CURVE SMOOTH",
"214 560 OFFCURVE",
"122 481 OFFCURVE",
"101 350 CURVE SMOOTH",
"78 200 LINE SMOOTH",
"57 69 OFFCURVE",
"124 -10 OFFCURVE",
"254 -10 CURVE SMOOTH"
);
},
{
closed = 1;
nodes = (
"189 70 OFFCURVE",
"154 115 OFFCURVE",
"168 200 CURVE SMOOTH",
"191 350 LINE SMOOTH",
"205 435 OFFCURVE",
"254 480 OFFCURVE",
"332 480 CURVE SMOOTH",
"410 480 OFFCURVE",
"445 435 OFFCURVE",
"431 350 CURVE SMOOTH",
"408 200 LINE SMOOTH",
"395 117 OFFCURVE",
"344 70 OFFCURVE",
"267 70 CURVE SMOOTH"
);
}
);
width = 600;
},
{
layerId = "76E9374A-352D-4379-9771-A49E7E8AA0DC";
paths = (
{
closed = 1;
nodes = (
"373 -10 OFFCURVE",
"462 68 OFFCURVE",
"481 190 CURVE SMOOTH",
"508 360 LINE SMOOTH",
"527 481 OFFCURVE",
"463 560 OFFCURVE",
"345 560 CURVE SMOOTH",
"227 560 OFFCURVE",
"137 481 OFFCURVE",
"118 360 CURVE SMOOTH",
"91 190 LINE SMOOTH",
"72 68 OFFCURVE",
"136 -10 OFFCURVE",
"254 -10 CURVE SMOOTH"
);
},
{
closed = 1;
nodes = (
"170 34 OFFCURVE",
"125 91 OFFCURVE",
"141 190 CURVE SMOOTH",
"168 360 LINE SMOOTH",
"184 458 OFFCURVE",
"247 516 OFFCURVE",
"338 516 CURVE SMOOTH",
"429 516 OFFCURVE",
"474 458 OFFCURVE",
"458 360 CURVE SMOOTH",
"431 190 LINE SMOOTH",
"415 91 OFFCURVE",
"353 34 OFFCURVE",
"261 34 CURVE SMOOTH"
);
}
);
width = 600;
}
);
unicode = 006F;
},
{
glyphname = ohorn;
layers = (
{
hints = (
{
horizontal = 1;
place = "{386, 86}";
type = Stem;
},
{
horizontal = 1;
place = "{-54, 87}";
type = Stem;
},
{
place = "{4, 106}";
type = Stem;
},
{
place = "{358, 106}";
type = Stem;
}
);
layerId = "681EDAF7-11DB-44DD-9204-6ED8688B749D";
paths = (
{
closed = 1;
nodes = (
"402 -10 OFFCURVE",
"508 78 OFFCURVE",
"529 210 CURVE SMOOTH",
"550 340 LINE SMOOTH",
"571 472 OFFCURVE",
"492 560 OFFCURVE",
"345 560 CURVE SMOOTH",
"197 560 OFFCURVE",
"91 472 OFFCURVE",
"70 340 CURVE SMOOTH",
"49 210 LINE SMOOTH",
"28 78 OFFCURVE",
"107 -10 OFFCURVE",
"254 -10 CURVE SMOOTH"
);
},
{
closed = 1;
nodes = (
"217 120 OFFCURVE",
"190 152 OFFCURVE",
"199 210 CURVE SMOOTH",
"220 340 LINE SMOOTH",
"229 398 OFFCURVE",
"266 430 OFFCURVE",
"324 430 CURVE SMOOTH",
"382 430 OFFCURVE",
"409 398 OFFCURVE",
"400 340 CURVE SMOOTH",
"379 210 LINE SMOOTH",
"370 152 OFFCURVE",
"333 120 OFFCURVE",
"275 120 CURVE SMOOTH"
);
},
{
closed = 1;
nodes = (
"463 420 LINE SMOOTH",
"547 420 OFFCURVE",
"612 478 OFFCURVE",
"625 565 CURVE SMOOTH",
"641 660 LINE",
"531 660 LINE",
"515 559 LINE SMOOTH",
"511 536 OFFCURVE",
"493 520 OFFCURVE",
"471 520 CURVE SMOOTH",
"438 520 LINE",
"423 420 LINE"
);
}
);
width = 600;
},
{
associatedMasterId = "76E9374A-352D-4379-9771-A49E7E8AA0DC";
layerId = "4D1F24A9-7F62-4711-AC2F-D8EB6C907C30";
name = public.background;
paths = (
{
closed = 1;
nodes = (
"300.842 550 LINE",
"300.842 490 LINE",
"485.071 490 LINE SMOOTH",
"548.329 490 OFFCURVE",
"590.5 528 OFFCURVE",
"590.5 585 CURVE SMOOTH",
"590.5 655 LINE",
"520.5 655 LINE",
"520.5 585 LINE SMOOTH",
"520.5 562.104 OFFCURVE",
"508.396 550 OFFCURVE",
"485.5 550 CURVE SMOOTH"
);
}
);
width = 600;
},
{
hints = (
{
place = "{36, 46}";
type = Stem;
},
{
place = "{386, 46}";
type = Stem;
},
{
horizontal = 1;
place = "{-54, 36}";
type = Stem;
},
{
horizontal = 1;
place = "{436, 36}";
type = Stem;
}
);
layerId = "03C02FE7-7458-4762-A27C-0F6E25AC479F";
paths = (
{
closed = 1;
nodes = (
"385 -10 OFFCURVE",
"477 69 OFFCURVE",
"498 200 CURVE SMOOTH",
"522 351 LINE SMOOTH",
"542 481 OFFCURVE",
"475 560 OFFCURVE",
"345 560 CURVE SMOOTH",
"214 560 OFFCURVE",
"122 481 OFFCURVE",
"101 350 CURVE SMOOTH",
"78 200 LINE SMOOTH",
"57 69 OFFCURVE",
"124 -10 OFFCURVE",
"254 -10 CURVE SMOOTH"
);
},
{
closed = 1;
nodes = (
"189 70 OFFCURVE",
"154 115 OFFCURVE",
"168 200 CURVE SMOOTH",
"191 350 LINE SMOOTH",
"205 435 OFFCURVE",
"254 480 OFFCURVE",
"332 480 CURVE SMOOTH",
"410 480 OFFCURVE",
"445 435 OFFCURVE",
"431 350 CURVE SMOOTH",
"408 200 LINE SMOOTH",
"394 115 OFFCURVE",
"345 70 OFFCURVE",
"267 70 CURVE SMOOTH"
);
},
{
closed = 1;
nodes = (
"465 459 LINE SMOOTH",
"533 459 OFFCURVE",
"586 501 OFFCURVE",
"596 564 CURVE SMOOTH",
"611 660 LINE",
"536 660 LINE",
"522 569 LINE SMOOTH",
"517 541 OFFCURVE",
"497 524 OFFCURVE",
"470 524 CURVE SMOOTH",
"434 524 LINE",
"424 459 LINE"
);
}
);
width = 600;
},
{
layerId = "76E9374A-352D-4379-9771-A49E7E8AA0DC";
paths = (
{
closed = 1;
nodes = (
"373 -10 OFFCURVE",
"462 68 OFFCURVE",
"481 190 CURVE SMOOTH",
"508 360 LINE SMOOTH",
"527 481 OFFCURVE",
"463 560 OFFCURVE",
"345 560 CURVE SMOOTH",
"227 560 OFFCURVE",
"137 481 OFFCURVE",
"118 360 CURVE SMOOTH",
"91 190 LINE SMOOTH",
"72 68 OFFCURVE",
"136 -10 OFFCURVE",
"254 -10 CURVE SMOOTH"
);
},
{
closed = 1;
nodes = (
"170 34 OFFCURVE",
"125 91 OFFCURVE",
"141 190 CURVE SMOOTH",
"168 360 LINE SMOOTH",
"184 458 OFFCURVE",
"247 516 OFFCURVE",
"338 516 CURVE SMOOTH",
"429 516 OFFCURVE",
"474 458 OFFCURVE",
"458 360 CURVE SMOOTH",
"431 190 LINE SMOOTH",
"415 91 OFFCURVE",
"353 34 OFFCURVE",
"261 34 CURVE SMOOTH"
);
},
{
closed = 1;
nodes = (
"477 515 LINE SMOOTH",
"528 515 OFFCURVE",
"568 549 OFFCURVE",
"576 600 CURVE SMOOTH",
"586 660 LINE",
"546 660 LINE",
"536 600 LINE SMOOTH",
"531 570 OFFCURVE",
"510 550 OFFCURVE",
"483 550 CURVE SMOOTH",
"398 550 LINE",
"393 515 LINE"
);
}
);
width = 600;
}
);
unicode = 01A1;
},
{
color = (153,255,154,255);
glyphname = oslash;
layers = (
{
components = (
{
alignment = -1;
name = o;
}
);
layerId = "681EDAF7-11DB-44DD-9204-6ED8688B749D";
paths = (
{
closed = 1;
nodes = (
"91 -30 LINE",
"624 590 LINE",
"509 590 LINE",
"-24 -30 LINE"
);
}
);
width = 600;
},
{
components = (
{
alignment = -1;
name = o;
}
);
hints = (
{
place = "{36, 46}";
type = Stem;
},
{
place = "{386, 46}";
type = Stem;
},
{
horizontal = 1;
place = "{-54, 36}";
type = Stem;
},
{
horizontal = 1;
place = "{436, 36}";
type = Stem;
}
);
layerId = "03C02FE7-7458-4762-A27C-0F6E25AC479F";
paths = (
{
closed = 1;
nodes = (
"76 -30 LINE",
"614 590 LINE",
"523 590 LINE",
"-14 -30 LINE"
);
}
);
width = 600;
},
{
components = (
{
alignment = -1;
name = o;
}
);
layerId = "76E9374A-352D-4379-9771-A49E7E8AA0DC";
paths = (
{
closed = 1;
nodes = (
"59 -30 LINE",
"590 590 LINE",
"541 590 LINE",
"10 -30 LINE"
);
}
);
width = 600;
}
);
unicode = 00F8;
},
{
color = 3;
glyphname = oe;
layers = (
{
layerId = "681EDAF7-11DB-44DD-9204-6ED8688B749D";
paths = (
{
closed = 1;
nodes = (
"236 -10 OFFCURVE",
"262 65 OFFCURVE",
"262 65 CURVE",
"270 65 LINE",
"270 65 OFFCURVE",
"269 -10 OFFCURVE",
"374 -10 CURVE SMOOTH",
"461 -10 OFFCURVE",
"529 50 OFFCURVE",
"543 140 CURVE",
"428 140 LINE",
"423 106 OFFCURVE",
"403 87 OFFCURVE",
"374 87 CURVE SMOOTH",
"344 87 OFFCURVE",
"330 107 OFFCURVE",
"335 140 CURVE SMOOTH",
"353 250 LINE",
"561 250 LINE",
"586 410 LINE SMOOTH",
"600 500 OFFCURVE",
"552 560 OFFCURVE",
"465 560 CURVE SMOOTH",
"360 560 OFFCURVE",
"337 485 OFFCURVE",
"337 485 CURVE",
"329 485 LINE",
"329 485 OFFCURVE",
"327 560 OFFCURVE",
"225 560 CURVE SMOOTH",
"138 560 OFFCURVE",
"70 500 OFFCURVE",
"56 410 CURVE SMOOTH",
"13 140 LINE SMOOTH",
"-1 50 OFFCURVE",
"47 -10 OFFCURVE",
"134 -10 CURVE SMOOTH"
);
},
{
closed = 1;
nodes = (
"137 87 OFFCURVE",
"123 107 OFFCURVE",
"128 140 CURVE SMOOTH",
"171 410 LINE SMOOTH",
"176 443 OFFCURVE",
"197 463 OFFCURVE",
"226 463 CURVE SMOOTH",
"255 463 OFFCURVE",
"269 444 OFFCURVE",
"264 410 CURVE SMOOTH",
"221 140 LINE SMOOTH",
"216 106 OFFCURVE",
"196 87 OFFCURVE",
"167 87 CURVE SMOOTH"
);
},
{
closed = 1;
nodes = (
"378 410 LINE SMOOTH",
"383 443 OFFCURVE",
"404 463 OFFCURVE",
"433 463 CURVE SMOOTH",
"462 463 OFFCURVE",
"476 444 OFFCURVE",
"471 410 CURVE SMOOTH",
"458 330 LINE",
"365 330 LINE"
);
}
);
width = 600;
},
{
hints = (
{
place = "{-9, 41}";
type = Stem;
},
{
place = "{213, 42}";
type = Stem;
},
{
place = "{436, 41}";
type = Stem;
},
{
horizontal = 1;
place = "{-54, 33}";
type = Stem;
},
{
horizontal = 1;
place = "{206, 29}";
type = Stem;
},
{
horizontal = 1;
place = "{439, 33}";
type = Stem;
},
{
horizontal = 1;
place = "{-54, 91}";
type = Stem;
}
);
layerId = "03C02FE7-7458-4762-A27C-0F6E25AC479F";
paths = (
{
closed = 1;
nodes = (
"244 -10 OFFCURVE",
"265 70 OFFCURVE",
"265 70 CURVE",
"269 70 LINE",
"269 70 OFFCURVE",
"264 -10 OFFCURVE",
"374 -10 CURVE SMOOTH",
"448 -10 OFFCURVE",
"512 42 OFFCURVE",
"538 125 CURVE",
"453 125 LINE",
"441 90 OFFCURVE",
"411 67 OFFCURVE",
"377 67 CURVE SMOOTH",
"336 67 OFFCURVE",
"315 99 OFFCURVE",
"323 150 CURVE SMOOTH",
"339 250 LINE",
"561 250 LINE",
"584 400 LINE SMOOTH",
"600 498 OFFCURVE",
"554 560 OFFCURVE",
"465 560 CURVE SMOOTH",
"355 560 OFFCURVE",
"334 480 OFFCURVE",
"334 480 CURVE",
"330 480 LINE",
"330 480 OFFCURVE",
"335 560 OFFCURVE",
"225 560 CURVE SMOOTH",
"136 560 OFFCURVE",
"70 498 OFFCURVE",
"54 400 CURVE SMOOTH",
"15 150 LINE SMOOTH",
"-1 52 OFFCURVE",
"45 -10 OFFCURVE",
"134 -10 CURVE SMOOTH"
);
},
{
closed = 1;
nodes = (
"114 67 OFFCURVE",
"92 99 OFFCURVE",
"100 150 CURVE SMOOTH",
"139 400 LINE SMOOTH",
"147 451 OFFCURVE",
"179 483 OFFCURVE",
"222 483 CURVE SMOOTH",
"263 483 OFFCURVE",
"284 451 OFFCURVE",
"276 400 CURVE SMOOTH",
"237 150 LINE SMOOTH",
"229 99 OFFCURVE",
"198 67 OFFCURVE",
"157 67 CURVE SMOOTH"
);
},
{
closed = 1;
nodes = (
"362 400 LINE SMOOTH",
"370 451 OFFCURVE",
"401 483 OFFCURVE",
"442 483 CURVE SMOOTH",
"485 483 OFFCURVE",
"507 451 OFFCURVE",
"499 400 CURVE SMOOTH",
"487 323 LINE",
"350 323 LINE"
);
}
);
width = 600;
},
{
layerId = "76E9374A-352D-4379-9771-A49E7E8AA0DC";
paths = (
{
closed = 1;
nodes = (
"239 -10 OFFCURVE",
"269 75 OFFCURVE",
"269 75 CURVE",
"272 75 LINE",
"272 75 OFFCURVE",
"275 -10 OFFCURVE",
"380 -10 CURVE SMOOTH",
"461 -10 OFFCURVE",
"527 43 OFFCURVE",
"547 125 CURVE",
"492 125 LINE",
"478 72 OFFCURVE",
"437 40 OFFCURVE",
"385 40 CURVE SMOOTH",
"328 40 OFFCURVE",
"299 79 OFFCURVE",
"308 140 CURVE SMOOTH",
"327 260 LINE",
"562 260 LINE",
"586 410 LINE SMOOTH",
"600 501 OFFCURVE",
"555 560 OFFCURVE",
"468 560 CURVE SMOOTH",
"371 560 OFFCURVE",
"335 474 OFFCURVE",
"335 474 CURVE",
"333 474 LINE",
"333 474 OFFCURVE",
"330 560 OFFCURVE",
"225 560 CURVE SMOOTH",
"137 560 OFFCURVE",
"70 500 OFFCURVE",
"56 408 CURVE SMOOTH",
"13 139 LINE SMOOTH",
"-1 48 OFFCURVE",
"43 -10 OFFCURVE",
"128 -10 CURVE SMOOTH"
);
},
{
closed = 1;
nodes = (
"88 40 OFFCURVE",
"59 79 OFFCURVE",
"68 139 CURVE SMOOTH",
"111 408 LINE SMOOTH",
"120 470 OFFCURVE",
"163 510 OFFCURVE",
"220 510 CURVE SMOOTH",
"276 510 OFFCURVE",
"306 471 OFFCURVE",
"296 410 CURVE SMOOTH",
"253 140 LINE SMOOTH",
"244 79 OFFCURVE",
"201 40 OFFCURVE",
"145 40 CURVE SMOOTH"
);
},
{
closed = 1;
nodes = (
"351 410 LINE SMOOTH",
"361 471 OFFCURVE",
"402 510 OFFCURVE",
"457 510 CURVE SMOOTH",
"512 510 OFFCURVE",
"541 471 OFFCURVE",
"531 410 CURVE SMOOTH",
"515 310 LINE",
"335 310 LINE"
);
}
);
width = 600;
}
);
unicode = 0153;
},
{
glyphname = p;
layers = (
{
associatedMasterId = "76E9374A-352D-4379-9771-A49E7E8AA0DC";
layerId = "4D1F24A9-7F62-4711-AC2F-D8EB6C907C30";
name = public.background;
paths = (
{
closed = 1;
nodes = (
"228.057 68 OFFCURVE",
"184 117.18 OFFCURVE",
"184 200 CURVE SMOOTH",
"184 350 LINE SMOOTH",
"184 432.82 OFFCURVE",
"228.057 482 OFFCURVE",
"302 482 CURVE SMOOTH",
"377.886 482 OFFCURVE",
"420 434.89 OFFCURVE",
"420 350 CURVE SMOOTH",
"420 200 LINE SMOOTH",
"420 115.11 OFFCURVE",
"377.886 68 OFFCURVE",
"302 68 CURVE SMOOTH"
);
},
{
closed = 1;
nodes = (
"94 -180 LINE",
"184 -180 LINE",
"183.916 -20 LINE",
"182.355 75 LINE",
"217.355 75 LINE",
"189.355 120 LINE",
"188.993 38.383 OFFCURVE",
"242.238 -10 OFFCURVE",
"332.418 -10 CURVE SMOOTH",
"442.828 -10 OFFCURVE",
"510 67.544 OFFCURVE",
"510 195 CURVE SMOOTH",
"510 356 LINE SMOOTH",
"510 481.818 OFFCURVE",
"441.782 560 OFFCURVE",
"332 560 CURVE SMOOTH",
"242.146 560 OFFCURVE",
"189 511.685 OFFCURVE",
"189 430 CURVE",
"217 475 LINE",
"182 475 LINE",
"182 550 LINE",
"94 550 LINE"
);
}
);
width = 600;
},
{
layerId = "681EDAF7-11DB-44DD-9204-6ED8688B749D";
paths = (
{
closed = 1;
nodes = (
"143 -180 LINE",
"167 -30 LINE",
"184 105 LINE",
"218 105 LINE",
"189 140 LINE",
"174 45 OFFCURVE",
"220 -10 OFFCURVE",
"312 -10 CURVE SMOOTH",
"422 -10 OFFCURVE",
"508 74 OFFCURVE",
"528 205 CURVE SMOOTH",
"551 345 LINE SMOOTH",
"571 476 OFFCURVE",
"513 560 OFFCURVE",
"402 560 CURVE SMOOTH",
"311 560 OFFCURVE",
"247 505 OFFCURVE",
"232 410 CURVE",
"272 445 LINE",
"237 445 LINE",
"254 550 LINE",
"109 550 LINE",
"-7 -180 LINE"
);
},
{
closed = 1;
nodes = (
"223 120 OFFCURVE",
"196 153 OFFCURVE",
"205 210 CURVE SMOOTH",
"226 340 LINE SMOOTH",
"235 397 OFFCURVE",
"272 430 OFFCURVE",
"327 430 CURVE SMOOTH",
"383 430 OFFCURVE",
"409 398 OFFCURVE",
"400 340 CURVE SMOOTH",
"379 210 LINE SMOOTH",
"370 152 OFFCURVE",
"334 120 OFFCURVE",
"278 120 CURVE SMOOTH"
);
}
);
width = 600;
},
{
layerId = "03C02FE7-7458-4762-A27C-0F6E25AC479F";
paths = (
{
closed = 1;
nodes = (
"111 -180 LINE",
"137 -20 LINE",
"155 105 LINE",
"175 105 LINE",
"160 126 LINE",
"147 43 OFFCURVE",
"196 -10 OFFCURVE",
"287 -10 CURVE SMOOTH",
"397 -10 OFFCURVE",
"477 68 OFFCURVE",
"497 195 CURVE SMOOTH",
"522 356 LINE SMOOTH",
"542 482 OFFCURVE",
"486 560 OFFCURVE",
"377 560 CURVE SMOOTH",
"285 560 OFFCURVE",
"221 508 OFFCURVE",
"207 424 CURVE",
"228 445 LINE",
"210 445 LINE",
"227 550 LINE",
"137 550 LINE",
"21 -180 LINE"
);
},
{
closed = 1;
nodes = (
"195 68 OFFCURVE",
"159 117 OFFCURVE",
"172 200 CURVE SMOOTH",
"195 350 LINE SMOOTH",
"209 433 OFFCURVE",
"260 482 OFFCURVE",
"334 482 CURVE SMOOTH",
"410 482 OFFCURVE",
"445 435 OFFCURVE",
"431 350 CURVE SMOOTH",
"408 200 LINE SMOOTH",
"394 115 OFFCURVE",
"345 68 OFFCURVE",
"269 68 CURVE SMOOTH"
);
}
);
width = 600;
},
{
layerId = "76E9374A-352D-4379-9771-A49E7E8AA0DC";
paths = (
{
closed = 1;
nodes = (
"87 -180 LINE",
"116 0 LINE",
"128 75 LINE",
"146 75 LINE",
"128 140 LINE",
"114 50 OFFCURVE",
"170 -10 OFFCURVE",
"267 -10 CURVE SMOOTH",
"377 -10 OFFCURVE",
"462 70 OFFCURVE",
"481 190 CURVE SMOOTH",
"508 361 LINE SMOOTH",
"527 481 OFFCURVE",
"468 560 OFFCURVE",
"358 560 CURVE SMOOTH",
"259 560 OFFCURVE",
"185 500 OFFCURVE",
"171 410 CURVE",
"219 475 LINE",
"191 475 LINE",
"203 550 LINE",
"153 550 LINE",
"37 -180 LINE"
);
},
{
closed = 1;
nodes = (
"174 33 OFFCURVE",
"130 91 OFFCURVE",
"146 190 CURVE SMOOTH",
"173 361 LINE SMOOTH",
"189 459 OFFCURVE",
"251 517 OFFCURVE",
"340 517 CURVE SMOOTH",
"430 517 OFFCURVE",
"474 459 OFFCURVE",
"458 361 CURVE SMOOTH",
"431 190 LINE SMOOTH",
"415 91 OFFCURVE",
"353 33 OFFCURVE",
"264 33 CURVE SMOOTH"
);
}
);
width = 600;
}
);
unicode = 0070;
},
{
glyphname = thorn;
layers = (
{
components = (
{
alignment = -1;
name = b;
}
);
layerId = "681EDAF7-11DB-44DD-9204-6ED8688B749D";
paths = (
{
closed = 1;
nodes = (
"144 -170 LINE",
"175 50 LINE",
"30 50 LINE",
"-6 -170 LINE"
);
}
);
width = 600;
},
{
components = (
{
alignment = -1;
name = b;
transform = "{1, 0, 0, 1, -5, 0}";
}
);
hints = (
{
place = "{39, 46}";
type = Stem;
},
{
place = "{104, -19}";
type = Stem;
},
{
place = "{381, 46}";
type = Stem;
},
{
horizontal = 1;
place = "{-54, 34}";
type = Stem;
},
{
horizontal = 1;
place = "{438, 34}";
type = Stem;
},
{
horizontal = 1;
place = "{686, -20}";
target = down;
type = TopGhost;
}
);
layerId = "03C02FE7-7458-4762-A27C-0F6E25AC479F";
paths = (
{
closed = 1;
nodes = (
"108 -170 LINE",
"144 59 LINE",
"55 59 LINE",
"18 -170 LINE"
);
}
);
width = 600;
},
{
components = (
{
alignment = -1;
name = b;
}
);
layerId = "76E9374A-352D-4379-9771-A49E7E8AA0DC";
paths = (
{
closed = 1;
nodes = (
"87 -180 LINE",
"125 59 LINE",
"76 59 LINE",
"38 -180 LINE"
);
}
);
width = 600;
}
);
unicode = 00FE;
},
{
glyphname = q;
layers = (
{
layerId = "681EDAF7-11DB-44DD-9204-6ED8688B749D";
paths = (
{
closed = 1;
nodes = (
"461 -180 LINE",
"577 550 LINE",
"432 550 LINE",
"415 445 LINE",
"381 445 LINE",
"410 410 LINE",
"425 505 OFFCURVE",
"379 560 OFFCURVE",
"287 560 CURVE SMOOTH",
"176 560 OFFCURVE",
"91 476 OFFCURVE",
"71 345 CURVE SMOOTH",
"48 205 LINE SMOOTH",
"28 74 OFFCURVE",
"87 -10 OFFCURVE",
"197 -10 CURVE SMOOTH",
"289 -10 OFFCURVE",
"352 45 OFFCURVE",
"367 140 CURVE",
"327 105 LINE",
"362 105 LINE",
"335 -30 LINE",
"311 -180 LINE"
);
},
{
closed = 1;
nodes = (
"216 120 OFFCURVE",
"190 152 OFFCURVE",
"199 210 CURVE SMOOTH",
"220 340 LINE SMOOTH",
"229 398 OFFCURVE",
"265 430 OFFCURVE",
"321 430 CURVE SMOOTH",
"377 430 OFFCURVE",
"403 397 OFFCURVE",
"394 340 CURVE SMOOTH",
"373 210 LINE SMOOTH",
"364 153 OFFCURVE",
"327 120 OFFCURVE",
"272 120 CURVE SMOOTH"
);
}
);
width = 600;
},
{
hints = (
{
place = "{44, 46}";
type = Stem;
},
{
place = "{386, -19}";
type = Stem;
},
{
place = "{386, 46}";
type = Stem;
},
{
horizontal = 1;
place = "{-54, 34}";
type = Stem;
},
{
horizontal = 1;
place = "{438, 34}";
type = Stem;
},
{
horizontal = 1;
place = "{-214, 21}";
target = up;
type = BottomGhost;
}
);
layerId = "03C02FE7-7458-4762-A27C-0F6E25AC479F";
paths = (
{
closed = 1;
nodes = (
"433 -180 LINE",
"549 550 LINE",
"459 550 LINE",
"442 445 LINE",
"424 445 LINE",
"439 424 LINE",
"452 508 OFFCURVE",
"404 560 OFFCURVE",
"313 560 CURVE SMOOTH",
"203 560 OFFCURVE",
"122 482 OFFCURVE",
"102 356 CURVE SMOOTH",
"77 195 LINE SMOOTH",
"57 68 OFFCURVE",
"112 -10 OFFCURVE",
"222 -10 CURVE SMOOTH",
"313 -10 OFFCURVE",
"379 43 OFFCURVE",
"392 126 CURVE",
"370 105 LINE",
"390 105 LINE",
"369 -20 LINE",
"343 -180 LINE"
);
},
{
closed = 1;
nodes = (
"189 68 OFFCURVE",
"154 115 OFFCURVE",
"168 200 CURVE SMOOTH",
"191 350 LINE SMOOTH",
"205 435 OFFCURVE",
"254 482 OFFCURVE",
"330 482 CURVE SMOOTH",
"404 482 OFFCURVE",
"441 433 OFFCURVE",
"427 350 CURVE SMOOTH",
"404 200 LINE SMOOTH",
"391 117 OFFCURVE",
"339 68 OFFCURVE",
"265 68 CURVE SMOOTH"
);
}
);
width = 600;
},
{
layerId = "76E9374A-352D-4379-9771-A49E7E8AA0DC";
paths = (
{
closed = 1;
nodes = (
"417 -180 LINE",
"533 550 LINE",
"483 550 LINE",
"471 475 LINE",
"443 475 LINE",
"471 410 LINE",
"485 501 OFFCURVE",
"427 560 OFFCURVE",
"332 560 CURVE SMOOTH",
"222 560 OFFCURVE",
"137 481 OFFCURVE",
"118 361 CURVE SMOOTH",
"91 190 LINE SMOOTH",
"72 70 OFFCURVE",
"132 -10 OFFCURVE",
"241 -10 CURVE SMOOTH",
"337 -10 OFFCURVE",
"414 49 OFFCURVE",
"428 140 CURVE",
"390 75 LINE",
"408 75 LINE",
"391 -30 LINE",
"367 -180 LINE"
);
},
{
closed = 1;
nodes = (
"169 33 OFFCURVE",
"126 92 OFFCURVE",
"141 190 CURVE SMOOTH",
"168 361 LINE SMOOTH",
"184 459 OFFCURVE",
"246 517 OFFCURVE",
"335 517 CURVE SMOOTH",
"425 517 OFFCURVE",
"469 459 OFFCURVE",
"453 361 CURVE SMOOTH",
"426 190 LINE SMOOTH",
"411 92 OFFCURVE",
"350 33 OFFCURVE",
"258 33 CURVE SMOOTH"
);
}
);
width = 600;
}
);
unicode = 0071;
},
{
glyphname = r;
layers = (
{
associatedMasterId = "76E9374A-352D-4379-9771-A49E7E8AA0DC";
layerId = "4D1F24A9-7F62-4711-AC2F-D8EB6C907C30";
name = public.background;
paths = (
{
closed = 1;
nodes = (
"459.755 560 OFFCURVE",
"535 481.6 OFFCURVE",
"535 364 CURVE SMOOTH",
"535 318 LINE",
"445 318 LINE",
"445 356 LINE SMOOTH",
"445 438.763 OFFCURVE",
"402.944 484 OFFCURVE",
"326 484 CURVE SMOOTH",
"246.41 484 OFFCURVE",
"202 436.009 OFFCURVE",
"202 350 CURVE SMOOTH",
"202 0 LINE",
"112 0 LINE",
"112 550 LINE",
"197 550 LINE",
"192 475 LINE",
"236 475 LINE",
"201 430 LINE",
"201 508.155 OFFCURVE",
"258.661 560 OFFCURVE",
"347.091 560 CURVE SMOOTH"
);
}
);
width = 600;
},
{
layerId = "681EDAF7-11DB-44DD-9204-6ED8688B749D";
paths = (
{
closed = 1;
nodes = (
"188 0 LINE",
"242 340 LINE SMOOTH",
"251 400 OFFCURVE",
"288 435 OFFCURVE",
"344 435 CURVE SMOOTH",
"400 435 OFFCURVE",
"429 400 OFFCURVE",
"420 340 CURVE SMOOTH",
"414 305 LINE",
"574 305 LINE",
"581 350 LINE SMOOTH",
"603 483 OFFCURVE",
"544 560 OFFCURVE",
"422 560 CURVE SMOOTH",
"318 560 OFFCURVE",
"252 499 OFFCURVE",
"233 381 CURVE",
"286 445 LINE",
"248 445 LINE",
"265 550 LINE",
"125 550 LINE",
"38 0 LINE"
);
}
);
width = 600;
},
{
hints = (
{
place = "{68, 46}";
type = Stem;
},
{
place = "{412, 46}";
type = Stem;
},
{
horizontal = 1;
place = "{281, 191}";
type = Stem;
},
{
horizontal = 1;
place = "{437, 35}";
type = Stem;
},
{
horizontal = 1;
place = "{-44, 21}";
target = up;
type = BottomGhost;
}
);
layerId = "03C02FE7-7458-4762-A27C-0F6E25AC479F";
paths = (
{
closed = 1;
nodes = (
"158 0 LINE",
"213 350 LINE SMOOTH",
"227 435 OFFCURVE",
"280 484 OFFCURVE",
"356 484 CURVE SMOOTH",
"433 484 OFFCURVE",
"468 436 OFFCURVE",
"454 350 CURVE SMOOTH",
"450 325 LINE",
"540 325 LINE",
"546 358 LINE SMOOTH",
"565 482 OFFCURVE",
"505 560 OFFCURVE",
"389 560 CURVE SMOOTH",
"288 560 OFFCURVE",
"227 499 OFFCURVE",
"208 380 CURVE",
"247 445 LINE",
"226 445 LINE",
"243 550 LINE",
"155 550 LINE",
"68 0 LINE"
);
}
);
width = 600;
},
{
layerId = "76E9374A-352D-4379-9771-A49E7E8AA0DC";
paths = (
{
closed = 1;
nodes = (
"133 0 LINE",
"190 360 LINE SMOOTH",
"206 459 OFFCURVE",
"268 517 OFFCURVE",
"358 517 CURVE SMOOTH",
"448 517 OFFCURVE",
"492 459 OFFCURVE",
"476 360 CURVE SMOOTH",
"471 330 LINE",
"526 330 LINE",
"531 360 LINE SMOOTH",
"551 483 OFFCURVE",
"489 560 OFFCURVE",
"373 560 CURVE SMOOTH",
"274 560 OFFCURVE",
"206 504 OFFCURVE",
"191 410 CURVE",
"230 475 LINE",
"208 475 LINE",
"220 550 LINE",
"170 550 LINE",
"83 0 LINE"
);
}
);
width = 600;
}
);
unicode = 0072;
},
{
glyphname = s;
layers = (
{
associatedMasterId = "76E9374A-352D-4379-9771-A49E7E8AA0DC";
layerId = "4D1F24A9-7F62-4711-AC2F-D8EB6C907C30";
name = public.background;
paths = (
{
closed = 1;
nodes = (
"277 -10 LINE SMOOTH",
"164 -10 OFFCURVE",
"94 47 OFFCURVE",
"84 135 CURVE",
"174 135 LINE",
"182 96 OFFCURVE",
"218 70 OFFCURVE",
"277 70 CURVE SMOOTH",
"321 70 LINE SMOOTH",
"392 70 OFFCURVE",
"426 103 OFFCURVE",
"426 151 CURVE SMOOTH",
"426 198 OFFCURVE",
"393.943 224.624 OFFCURVE",
"333 234 CURVE SMOOTH",
"255 246 LINE SMOOTH",
"147.091 262.601 OFFCURVE",
"95 310 OFFCURVE",
"95 403 CURVE SMOOTH",
"95 501 OFFCURVE",
"158 560 OFFCURVE",
"283 560 CURVE SMOOTH",
"328 560 LINE SMOOTH",
"433 560 OFFCURVE",
"500 505 OFFCURVE",
"513 421 CURVE",
"423 421 LINE",
"415 456 OFFCURVE",
"382 480 OFFCURVE",
"328 480 CURVE SMOOTH",
"283 480 LINE SMOOTH",
"215 480 OFFCURVE",
"185 452 OFFCURVE",
"185 402 CURVE SMOOTH",
"185 357 OFFCURVE",
"210.132 337.903 OFFCURVE",
"268 329 CURVE SMOOTH",
"346 317 LINE SMOOTH",
"463.832 298.872 OFFCURVE",
"516 251 OFFCURVE",
"516 155 CURVE SMOOTH",
"516 53 OFFCURVE",
"451 -10 OFFCURVE",
"321 -10 CURVE SMOOTH"
);
}
);
width = 600;
},
{
layerId = "681EDAF7-11DB-44DD-9204-6ED8688B749D";
paths = (
{
closed = 1;
nodes = (
"275 -10 LINE SMOOTH",
"425 -10 OFFCURVE",
"514 52 OFFCURVE",
"532 164 CURVE SMOOTH",
"548 267 OFFCURVE",
"489 314 OFFCURVE",
"354 332 CURVE SMOOTH",
"286 341 LINE SMOOTH",
"241 347 OFFCURVE",
"224 362 OFFCURVE",
"229 393 CURVE SMOOTH",
"234 426 OFFCURVE",
"258 443 OFFCURVE",
"308 443 CURVE SMOOTH",
"346 443 LINE SMOOTH",
"389 443 OFFCURVE",
"414 425 OFFCURVE",
"410 398 CURVE",
"560 398 LINE",
"576 496 OFFCURVE",
"499 560 OFFCURVE",
"365 560 CURVE SMOOTH",
"327 560 LINE SMOOTH",
"186 560 OFFCURVE",
"101 499 OFFCURVE",
"84 392 CURVE SMOOTH",
"68 290 OFFCURVE",
"121 246 OFFCURVE",
"255 229 CURVE SMOOTH",
"318 221 LINE SMOOTH",
"370 214 OFFCURVE",
"392 197 OFFCURVE",
"387 164 CURVE SMOOTH",
"381 128 OFFCURVE",
"349 107 OFFCURVE",
"294 107 CURVE SMOOTH",
"250 107 LINE SMOOTH",
"204 107 OFFCURVE",
"176 128 OFFCURVE",
"181 160 CURVE",
"31 160 LINE",
"15 58 OFFCURVE",
"95 -10 OFFCURVE",
"231 -10 CURVE SMOOTH"
);
}
);
width = 600;
},
{
hints = (
{
place = "{47, 47}";
type = Stem;
},
{
place = "{383, 47}";
type = Stem;
},
{
horizontal = 1;
place = "{-54, 36}";
type = Stem;
},
{
horizontal = 1;
place = "{436, 36}";
type = Stem;
}
);
layerId = "03C02FE7-7458-4762-A27C-0F6E25AC479F";
paths = (
{
closed = 1;
nodes = (
"274 -10 LINE SMOOTH",
"404 -10 OFFCURVE",
"479 53 OFFCURVE",
"496 155 CURVE SMOOTH",
"511 251 OFFCURVE",
"466 298 OFFCURVE",
"351 317 CURVE SMOOTH",
"279 329 LINE SMOOTH",
"223 338 OFFCURVE",
"201 357 OFFCURVE",
"208 402 CURVE SMOOTH",
"216 452 OFFCURVE",
"250 480 OFFCURVE",
"318 480 CURVE SMOOTH",
"356 480 LINE SMOOTH",
"410 480 OFFCURVE",
"439 456 OFFCURVE",
"442 421 CURVE",
"532 421 LINE",
"532 505 OFFCURVE",
"474 560 OFFCURVE",
"369 560 CURVE SMOOTH",
"331 560 LINE SMOOTH",
"206 560 OFFCURVE",
"133 501 OFFCURVE",
"118 403 CURVE SMOOTH",
"103 310 OFFCURVE",
"148 263 OFFCURVE",
"253 246 CURVE SMOOTH",
"325 234 LINE SMOOTH",
"384 224 OFFCURVE",
"412 198 OFFCURVE",
"405 151 CURVE SMOOTH",
"397 103 OFFCURVE",
"358 70 OFFCURVE",
"287 70 CURVE SMOOTH",
"245 70 LINE SMOOTH",
"186 70 OFFCURVE",
"154 96 OFFCURVE",
"152 135 CURVE",
"62 135 LINE",
"58 47 OFFCURVE",
"119 -10 OFFCURVE",
"232 -10 CURVE SMOOTH"
);
}
);
width = 600;
},
{
layerId = "76E9374A-352D-4379-9771-A49E7E8AA0DC";
paths = (
{
closed = 1;
nodes = (
"293 -10 LINE SMOOTH",
"395 -10 OFFCURVE",
"471 52 OFFCURVE",
"486 147 CURVE SMOOTH",
"499 228 OFFCURVE",
"454 286 OFFCURVE",
"372 298 CURVE SMOOTH",
"270 313 LINE SMOOTH",
"203 323 OFFCURVE",
"172 357 OFFCURVE",
"180 412 CURVE SMOOTH",
"190 475 OFFCURVE",
"244 515 OFFCURVE",
"320 515 CURVE SMOOTH",
"362 515 LINE SMOOTH",
"432 515 OFFCURVE",
"475 477 OFFCURVE",
"474 425 CURVE",
"524 425 LINE",
"527 506 OFFCURVE",
"469 560 OFFCURVE",
"369 560 CURVE SMOOTH",
"327 560 LINE SMOOTH",
"221 560 OFFCURVE",
"144 502 OFFCURVE",
"129 411 CURVE SMOOTH",
"116 329 OFFCURVE",
"162 277 OFFCURVE",
"254 264 CURVE SMOOTH",
"358 249 LINE SMOOTH",
"415 241 OFFCURVE",
"445 197 OFFCURVE",
"436 140 CURVE SMOOTH",
"426 76 OFFCURVE",
"373 35 OFFCURVE",
"301 35 CURVE SMOOTH",
"234 35 LINE SMOOTH",
"165 35 OFFCURVE",
"121 77 OFFCURVE",
"120 135 CURVE",
"70 135 LINE",
"66 50 OFFCURVE",
"126 -10 OFFCURVE",
"226 -10 CURVE SMOOTH"
);
}
);
width = 600;
}
);
unicode = 0073;
},
{
color = (154,153,255,255);
glyphname = germandbls;
layers = (
{
associatedMasterId = "76E9374A-352D-4379-9771-A49E7E8AA0DC";
layerId = "4D1F24A9-7F62-4711-AC2F-D8EB6C907C30";
name = public.background;
paths = (
{
closed = 1;
nodes = (
"80 0 LINE",
"215 0 LINE",
"215 516 LINE SMOOTH",
"215 574.288 OFFCURVE",
"252.293 605 OFFCURVE",
"305 605 CURVE SMOOTH",
"361.264 605 OFFCURVE",
"396 571.846 OFFCURVE",
"396 517 CURVE SMOOTH",
"396 462.203 OFFCURVE",
"361.327 428 OFFCURVE",
"305 428 CURVE SMOOTH",
"260 428 LINE",
"260 318 LINE",
"307 318 LINE SMOOTH",
"370.151 318 OFFCURVE",
"409 281.06 OFFCURVE",
"409 221 CURVE SMOOTH",
"409 161.22 OFFCURVE",
"370.513 125 OFFCURVE",
"307 125 CURVE SMOOTH",
"260 125 LINE",
"260 0 LINE",
"312 0 LINE SMOOTH",
"460.8 0 OFFCURVE",
"560 83.6 OFFCURVE",
"560 209 CURVE SMOOTH",
"560 299.764 OFFCURVE",
"498.4 364.164 OFFCURVE",
"406 370 CURVE",
"406 381 LINE",
"490.6 388.691 OFFCURVE",
"547 450.691 OFFCURVE",
"547 536 CURVE SMOOTH",
"547 652.4 OFFCURVE",
"450.6 730 OFFCURVE",
"306 730 CURVE SMOOTH",
"170.4 730 OFFCURVE",
"80 644.4 OFFCURVE",
"80 516 CURVE SMOOTH"
);
}
);
width = 600;
},
{
layerId = "681EDAF7-11DB-44DD-9204-6ED8688B749D";
paths = (
{
closed = 1;
nodes = (
"-72 -180 LINE SMOOTH",
"62 -180 OFFCURVE",
"155 -102 OFFCURVE",
"176 30 CURVE SMOOTH",
"253 516 LINE SMOOTH",
"262 574 OFFCURVE",
"304 605 OFFCURVE",
"357 605 CURVE SMOOTH",
"413 605 OFFCURVE",
"443 572 OFFCURVE",
"434 517 CURVE SMOOTH",
"425 462 OFFCURVE",
"385 428 OFFCURVE",
"329 428 CURVE SMOOTH",
"284 428 LINE",
"266 318 LINE",
"313 318 LINE SMOOTH",
"376 318 OFFCURVE",
"410 281 OFFCURVE",
"400 221 CURVE SMOOTH",
"391 161 OFFCURVE",
"347 125 OFFCURVE",
"283 125 CURVE SMOOTH",
"236 125 LINE",
"216 0 LINE",
"268 0 LINE SMOOTH",
"417 0 OFFCURVE",
"529 84 OFFCURVE",
"549 209 CURVE SMOOTH",
"567 322 OFFCURVE",
"494 397 OFFCURVE",
"369 395 CURVE",
"366 380 LINE",
"491 380 OFFCURVE",
"573 440 OFFCURVE",
"589 545 CURVE SMOOTH",
"607 659 OFFCURVE",
"526 730 OFFCURVE",
"378 730 CURVE SMOOTH",
"242 730 OFFCURVE",
"138 644 OFFCURVE",
"118 516 CURVE SMOOTH",
"42 35 LINE SMOOTH",
"33 -17 OFFCURVE",
"7 -40 OFFCURVE",
"-45 -40 CURVE SMOOTH",
"-105 -40 LINE",
"-128 -180 LINE"
);
}
);
width = 600;
},
{
hints = (
{
place = "{11, 46}";
type = Stem;
},
{
place = "{194, 47}";
type = Stem;
},
{
place = "{374, 46}";
type = Stem;
},
{
place = "{441, 46}";
type = Stem;
},
{
horizontal = 1;
place = "{-54, 36}";
type = Stem;
},
{
horizontal = 1;
place = "{426, 36}";
type = Stem;
},
{
horizontal = 1;
place = "{606, 36}";
type = Stem;
},
{
horizontal = 1;
place = "{-54, 96}";
type = Stem;
}
);
layerId = "03C02FE7-7458-4762-A27C-0F6E25AC479F";
paths = (
{
closed = 1;
nodes = (
"-89 -180 LINE SMOOTH",
"39 -180 OFFCURVE",
"123 -110 OFFCURVE",
"142 10 CURVE SMOOTH",
"226 534 LINE SMOOTH",
"238 611 OFFCURVE",
"291 658 OFFCURVE",
"365 658 CURVE SMOOTH",
"439 658 OFFCURVE",
"477 613 OFFCURVE",
"465 536 CURVE SMOOTH",
"454 465 OFFCURVE",
"400 413 OFFCURVE",
"326 413 CURVE SMOOTH",
"283 413 LINE",
"271 335 LINE",
"316 335 LINE SMOOTH",
"397 335 OFFCURVE",
"439 288 OFFCURVE",
"426 211 CURVE SMOOTH",
"414 134 OFFCURVE",
"356 82 OFFCURVE",
"276 82 CURVE SMOOTH",
"219 82 LINE",
"206 0 LINE",
"273 0 LINE SMOOTH",
"402 0 OFFCURVE",
"502 86 OFFCURVE",
"521 208 CURVE SMOOTH",
"539 325 OFFCURVE",
"476 400 OFFCURVE",
"361 398 CURVE",
"359 383 LINE",
"465 381 OFFCURVE",
"546 453 OFFCURVE",
"562 554 CURVE SMOOTH",
"581 674 OFFCURVE",
"506 740 OFFCURVE",
"378 740 CURVE SMOOTH",
"252 740 OFFCURVE",
"156 658 OFFCURVE",
"136 534 CURVE SMOOTH",
"52 10 LINE SMOOTH",
"40 -65 OFFCURVE",
"1 -97 OFFCURVE",
"-75 -97 CURVE SMOOTH",
"-109 -97 LINE",
"-123 -180 LINE"
);
}
);
width = 600;
},
{
layerId = "76E9374A-352D-4379-9771-A49E7E8AA0DC";
paths = (
{
closed = 1;
nodes = (
"-97 -180 LINE SMOOTH",
"19 -180 OFFCURVE",
"98 -113 OFFCURVE",
"116 0 CURVE SMOOTH",
"202 543 LINE SMOOTH",
"217 635 OFFCURVE",
"283 695 OFFCURVE",
"371 695 CURVE SMOOTH",
"463 695 OFFCURVE",
"507 637 OFFCURVE",
"492 545 CURVE SMOOTH",
"478 457 OFFCURVE",
"413 397 OFFCURVE",
"324 397 CURVE SMOOTH",
"284 397 LINE",
"277 352 LINE",
"317 352 LINE SMOOTH",
"422 352 OFFCURVE",
"468 297 OFFCURVE",
"453 200 CURVE SMOOTH",
"437 102 OFFCURVE",
"373 44 OFFCURVE",
"268 45 CURVE SMOOTH",
"206 45 LINE",
"199 0 LINE",
"261 0 LINE SMOOTH",
"393 0 OFFCURVE",
"484 80 OFFCURVE",
"504 208 CURVE SMOOTH",
"521 314 OFFCURVE",
"464 380 OFFCURVE",
"356 380 CURVE",
"355 370 LINE",
"449 370 OFFCURVE",
"526 444 OFFCURVE",
"543 550 CURVE SMOOTH",
"561 666 OFFCURVE",
"500 740 OFFCURVE",
"378 740 CURVE SMOOTH",
"261 740 OFFCURVE",
"171 661 OFFCURVE",
"152 543 CURVE SMOOTH",
"66 0 LINE SMOOTH",
"52 -91 OFFCURVE",
"2 -135 OFFCURVE",
"-89 -135 CURVE SMOOTH",
"-111 -135 LINE",
"-118 -180 LINE"
);
}
);
width = 600;
}
);
unicode = 00DF;
},
{
glyphname = longs;
layers = (
{
layerId = "681EDAF7-11DB-44DD-9204-6ED8688B749D";
paths = (
{
closed = 1;
nodes = (
"241 0 LINE",
"324 525 LINE SMOOTH",
"331 570 OFFCURVE",
"366 600 OFFCURVE",
"411 600 CURVE SMOOTH",
"586 600 LINE",
"607 730 LINE",
"422 730 LINE SMOOTH",
"291 730 OFFCURVE",
"194 650 OFFCURVE",
"174 525 CURVE SMOOTH",
"91 0 LINE"
);
}
);
width = 600;
},
{
hints = (
{
place = "{121, 46}";
type = Stem;
},
{
horizontal = 1;
place = "{596, 36}";
type = Stem;
},
{
horizontal = 1;
place = "{-44, 21}";
target = up;
type = BottomGhost;
}
);
layerId = "03C02FE7-7458-4762-A27C-0F6E25AC479F";
paths = (
{
closed = 1;
nodes = (
"211 0 LINE",
"301 570 LINE SMOOTH",
"309 618 OFFCURVE",
"346 650 OFFCURVE",
"393 650 CURVE SMOOTH",
"569 650 LINE",
"582 730 LINE",
"406 730 LINE SMOOTH",
"305 730 OFFCURVE",
"226 666 OFFCURVE",
"211 571 CURVE SMOOTH",
"121 0 LINE"
);
}
);
width = 600;
},
{
layerId = "76E9374A-352D-4379-9771-A49E7E8AA0DC";
paths = (
{
closed = 1;
nodes = (
"186 0 LINE",
"280 595 LINE SMOOTH",
"289 648 OFFCURVE",
"330 685 OFFCURVE",
"379 685 CURVE SMOOTH",
"559 685 LINE",
"567 730 LINE",
"388 730 LINE SMOOTH",
"304 730 OFFCURVE",
"243 678 OFFCURVE",
"230 595 CURVE SMOOTH",
"136 0 LINE"
);
}
);
width = 600;
}
);
unicode = 017F;
},
{
glyphname = t;
layers = (
{
hints = (
{
place = "{247, 106}";
type = Stem;
},
{
horizontal = 1;
place = "{-44, 91}";
type = Stem;
},
{
horizontal = 1;
place = "{371, 91}";
type = Stem;
},
{
horizontal = 1;
place = "{656, -20}";
target = down;
type = TopGhost;
}
);
layerId = "681EDAF7-11DB-44DD-9204-6ED8688B749D";
paths = (
{
closed = 1;
nodes = (
"481 0 LINE",
"502 135 LINE",
"352 135 LINE SMOOTH",
"323 135 OFFCURVE",
"310 151 OFFCURVE",
"315 180 CURVE SMOOTH",
"352 415 LINE",
"557 415 LINE",
"578 550 LINE",
"373 550 LINE",
"397 700 LINE",
"247 700 LINE",
"223 550 LINE",
"78 550 LINE",
"57 415 LINE",
"202 415 LINE",
"165 180 LINE SMOOTH",
"147 68 OFFCURVE",
"204 0 OFFCURVE",
"316 0 CURVE SMOOTH"
);
}
);
width = 600;
},
{
hints = (
{
place = "{176, 46}";
type = Stem;
},
{
horizontal = 1;
place = "{-44, 38}";
type = Stem;
},
{
horizontal = 1;
place = "{424, 38}";
type = Stem;
},
{
horizontal = 1;
place = "{676, -20}";
target = down;
type = TopGhost;
}
);
layerId = "03C02FE7-7458-4762-A27C-0F6E25AC479F";
paths = (
{
closed = 1;
nodes = (
"466 0 LINE",
"479 82 LINE",
"329 82 LINE SMOOTH",
"288 82 OFFCURVE",
"272 102 OFFCURVE",
"279 145 CURVE SMOOTH",
"330 468 LINE",
"550 468 LINE",
"563 550 LINE",
"343 550 LINE",
"367 700 LINE",
"277 700 LINE",
"253 550 LINE",
"98 550 LINE",
"85 468 LINE",
"240 468 LINE",
"189 145 LINE SMOOTH",
"174 53 OFFCURVE",
"221 0 OFFCURVE",
"316 0 CURVE SMOOTH"
);
}
);
width = 600;
},
{
layerId = "76E9374A-352D-4379-9771-A49E7E8AA0DC";
paths = (
{
closed = 1;
nodes = (
"451 0 LINE",
"458 45 LINE",
"323 45 LINE SMOOTH",
"271 45 OFFCURVE",
"248 73 OFFCURVE",
"256 125 CURVE SMOOTH",
"316 505 LINE",
"541 505 LINE",
"548 550 LINE",
"323 550 LINE",
"347 700 LINE",
"297 700 LINE",
"273 550 LINE",
"113 550 LINE",
"106 505 LINE",
"266 505 LINE",
"206 125 LINE SMOOTH",
"193 44 OFFCURVE",
"232 0 OFFCURVE",
"316 0 CURVE SMOOTH"
);
}
);
width = 600;
}
);
unicode = 0074;
},
{
color = (154,153,255,255);
glyphname = tbar;
layers = (
{
components = (
{
alignment = -1;
name = t;
}
);
layerId = "681EDAF7-11DB-44DD-9204-6ED8688B749D";
paths = (
{
closed = 1;
nodes = (
"481 220 LINE",
"499 335 LINE",
"79 335 LINE",
"61 220 LINE"
);
}
);
width = 600;
},
{
components = (
{
alignment = -1;
name = t;
}
);
guideLines = (
{
angle = 90;
position = "{452, 0}";
}
);
layerId = "03C02FE7-7458-4762-A27C-0F6E25AC479F";
paths = (
{
closed = 1;
nodes = (
"469 239 LINE",
"481 314 LINE",
"91 314 LINE",
"79 239 LINE"
);
}
);
width = 600;
},
{
components = (
{
alignment = -1;
name = t;
}
);
layerId = "76E9374A-352D-4379-9771-A49E7E8AA0DC";
paths = (
{
closed = 1;
nodes = (
"462 261 LINE",
"469 304 LINE",
"98 304 LINE",
"91 261 LINE"
);
}
);
width = 600;
}
);
unicode = 0167;
},
{
glyphname = tcaron;
layers = (
{
components = (
{
alignment = -1;
name = t;
}
);
layerId = "681EDAF7-11DB-44DD-9204-6ED8688B749D";
paths = (
{
closed = 1;
nodes = (
"446 620 LINE",
"536 775 LINE",
"416 775 LINE",
"336 620 LINE"
);
}
);
width = 600;
},
{
components = (
{
alignment = -1;
name = t;
}
);
hints = (
{
place = "{176, 46}";
type = Stem;
},
{
horizontal = 1;
place = "{-44, 38}";
type = Stem;
},
{
horizontal = 1;
place = "{424, 38}";
type = Stem;
},
{
horizontal = 1;
place = "{676, -20}";
target = down;
type = TopGhost;
}
);
layerId = "03C02FE7-7458-4762-A27C-0F6E25AC479F";
paths = (
{
closed = 1;
nodes = (
"408 620 LINE",
"508 776 LINE",
"418 776 LINE",
"328 620 LINE"
);
}
);
width = 600;
},
{
components = (
{
alignment = -1;
name = t;
}
);
layerId = "76E9374A-352D-4379-9771-A49E7E8AA0DC";
paths = (
{
closed = 1;
nodes = (
"391 620 LINE",
"491 776 LINE",
"426 776 LINE",
"346 620 LINE"
);
}
);
width = 600;
}
);
unicode = 0165;
},
{
glyphname = u;
layers = (
{
hints = (
{
place = "{54, 106}";
type = Stem;
},
{
place = "{376, 106}";
type = Stem;
},
{
horizontal = 1;
place = "{-54, 86}";
type = Stem;
}
);
layerId = "681EDAF7-11DB-44DD-9204-6ED8688B749D";
paths = (
{
closed = 1;
nodes = (
"400 -10 OFFCURVE",
"504 74 OFFCURVE",
"526 214 CURVE SMOOTH",
"579 550 LINE",
"429 550 LINE",
"376 215 LINE SMOOTH",
"366 153 OFFCURVE",
"330 120 OFFCURVE",
"275 120 CURVE SMOOTH",
"219 120 OFFCURVE",
"194 153 OFFCURVE",
"204 215 CURVE SMOOTH",
"257 550 LINE",
"107 550 LINE",
"54 214 LINE SMOOTH",
"32 75 OFFCURVE",
"106 -10 OFFCURVE",
"254 -10 CURVE SMOOTH"
);
}
);
width = 600;
},
{
hints = (
{
place = "{49, 46}";
type = Stem;
},
{
place = "{373, 46}";
type = Stem;
},
{
horizontal = 1;
place = "{-54, 35}";
type = Stem;
},
{
horizontal = 1;
place = "{506, -20}";
target = down;
type = TopGhost;
}
);
layerId = "03C02FE7-7458-4762-A27C-0F6E25AC479F";
paths = (
{
closed = 1;
nodes = (
"380 -10 OFFCURVE",
"474 71 OFFCURVE",
"495 200 CURVE SMOOTH",
"550 550 LINE",
"460 550 LINE",
"405 200 LINE SMOOTH",
"392 117 OFFCURVE",
"341 69 OFFCURVE",
"266 69 CURVE SMOOTH",
"192 69 OFFCURVE",
"158 117 OFFCURVE",
"171 200 CURVE SMOOTH",
"226 550 LINE",
"136 550 LINE",
"81 200 LINE SMOOTH",
"60 71 OFFCURVE",
"126 -10 OFFCURVE",
"253 -10 CURVE SMOOTH"
);
}
);
width = 600;
},
{
layerId = "76E9374A-352D-4379-9771-A49E7E8AA0DC";
paths = (
{
closed = 1;
nodes = (
"373 -10 OFFCURVE",
"459 68 OFFCURVE",
"479 194 CURVE SMOOTH",
"535 550 LINE",
"485 550 LINE",
"429 194 LINE SMOOTH",
"413 94 OFFCURVE",
"350 35 OFFCURVE",
"261 35 CURVE SMOOTH",
"172 35 OFFCURVE",
"129 94 OFFCURVE",
"145 194 CURVE SMOOTH",
"201 550 LINE",
"151 550 LINE",
"95 194 LINE SMOOTH",
"75 67 OFFCURVE",
"134 -10 OFFCURVE",
"253 -10 CURVE SMOOTH"
);
}
);
width = 600;
}
);
unicode = 0075;
},
{
color = (153,255,154,255);
glyphname = v;
layers = (
{
associatedMasterId = "76E9374A-352D-4379-9771-A49E7E8AA0DC";
layerId = "4D1F24A9-7F62-4711-AC2F-D8EB6C907C30";
name = public.background;
paths = (
{
closed = 1;
nodes = (
"236 0 LINE",
"364 0 LINE",
"540 550 LINE",
"449 550 LINE",
"336.901 180.159 LINE SMOOTH",
"318.716 120.162 OFFCURVE",
"309 75 OFFCURVE",
"309 75 CURVE",
"295 75 LINE",
"295 75 OFFCURVE",
"286.015 120.25 OFFCURVE",
"267.231 180.485 CURVE SMOOTH",
"152 550 LINE",
"60 550 LINE"
);
}
);
width = 600;
},
{
layerId = "681EDAF7-11DB-44DD-9204-6ED8688B749D";
paths = (
{
closed = 1;
nodes = (
"351 0 LINE",
"616 550 LINE",
"460 550 LINE",
"320 240 LINE SMOOTH",
"298 190 OFFCURVE",
"276 127 OFFCURVE",
"276 127 CURVE",
"276 127 OFFCURVE",
"272 190 OFFCURVE",
"265 241 CURVE SMOOTH",
"222 550 LINE",
"70 550 LINE",
"163 0 LINE"
);
}
);
width = 600;
},
{
layerId = "03C02FE7-7458-4762-A27C-0F6E25AC479F";
paths = (
{
closed = 1;
nodes = (
"317 0 LINE",
"583 550 LINE",
"489 550 LINE",
"316 180 LINE SMOOTH",
"288 120 OFFCURVE",
"267 69 OFFCURVE",
"267 69 CURVE",
"267 69 OFFCURVE",
"261 120 OFFCURVE",
"251 180 CURVE SMOOTH",
"192 550 LINE",
"103 550 LINE",
"195 0 LINE"
);
}
);
width = 600;
},
{
hints = (
{
horizontal = 1;
place = "{-44, 21}";
target = up;
type = BottomGhost;
},
{
horizontal = 1;
place = "{506, -20}";
target = down;
type = TopGhost;
}
);
layerId = "76E9374A-352D-4379-9771-A49E7E8AA0DC";
paths = (
{
closed = 1;
nodes = (
"287 0 LINE",
"567 550 LINE",
"514 550 LINE",
"310 140 LINE SMOOTH",
"285 90 OFFCURVE",
"262 37 OFFCURVE",
"262 37 CURVE",
"262 37 OFFCURVE",
"253 90 OFFCURVE",
"244 140 CURVE SMOOTH",
"169 550 LINE",
"119 550 LINE",
"225 0 LINE"
);
}
);
width = 600;
}
);
unicode = 0076;
},
{
color = (153,255,154,255);
glyphname = w;
layers = (
{
layerId = "681EDAF7-11DB-44DD-9204-6ED8688B749D";
paths = (
{
closed = 1;
nodes = (
"197 0 LINE",
"288 310 LINE SMOOTH",
"303 361 OFFCURVE",
"328 447 OFFCURVE",
"328 447 CURVE",
"328 447 OFFCURVE",
"324 361 OFFCURVE",
"323 310 CURVE SMOOTH",
"315 0 LINE",
"465 0 LINE",
"633 550 LINE",
"514 550 LINE",
"425 250 LINE SMOOTH",
"407 191 OFFCURVE",
"386 99 OFFCURVE",
"386 99 CURVE",
"386 99 OFFCURVE",
"390 189 OFFCURVE",
"391 250 CURVE SMOOTH",
"394 550 LINE",
"291 550 LINE",
"197 250 LINE SMOOTH",
"177 189 OFFCURVE",
"154 100 OFFCURVE",
"154 100 CURVE",
"154 100 OFFCURVE",
"162 190 OFFCURVE",
"164 250 CURVE SMOOTH",
"171 550 LINE",
"53 550 LINE",
"46 0 LINE"
);
}
);
width = 600;
},
{
layerId = "03C02FE7-7458-4762-A27C-0F6E25AC479F";
paths = (
{
closed = 1;
nodes = (
"178 0 LINE",
"300 380 LINE SMOOTH",
"316 431 OFFCURVE",
"332 485 OFFCURVE",
"332 485 CURVE",
"332 485 OFFCURVE",
"331 431 OFFCURVE",
"331 380 CURVE SMOOTH",
"330 0 LINE",
"429 0 LINE",
"608 550 LINE",
"531 550 LINE",
"412 160 LINE SMOOTH",
"400 120 OFFCURVE",
"383 65 OFFCURVE",
"383 65 CURVE",
"383 65 OFFCURVE",
"384 120 OFFCURVE",
"384 160 CURVE SMOOTH",
"383 550 LINE",
"300 550 LINE",
"176 160 LINE SMOOTH",
"164 120 OFFCURVE",
"147 65 OFFCURVE",
"147 65 CURVE",
"147 65 OFFCURVE",
"150 120 OFFCURVE",
"150 160 CURVE SMOOTH",
"156 550 LINE",
"78 550 LINE",
"79 0 LINE"
);
}
);
width = 600;
},
{
layerId = "76E9374A-352D-4379-9771-A49E7E8AA0DC";
paths = (
{
closed = 1;
nodes = (
"165 0 LINE",
"299 391 LINE SMOOTH",
"316 440 OFFCURVE",
"338 510 OFFCURVE",
"338 510 CURVE",
"338 510 OFFCURVE",
"338 440 OFFCURVE",
"339 391 CURVE SMOOTH",
"346 0 LINE",
"412 0 LINE",
"593 550 LINE",
"545 550 LINE",
"412 141 LINE SMOOTH",
"399 100 OFFCURVE",
"383 32 OFFCURVE",
"383 32 CURVE",
"383 32 OFFCURVE",
"384 100 OFFCURVE",
"382 140 CURVE SMOOTH",
"368 550 LINE",
"318 550 LINE",
"173 140 LINE SMOOTH",
"159 100 OFFCURVE",
"141 32 OFFCURVE",
"141 32 CURVE",
"141 32 OFFCURVE",
"144 100 OFFCURVE",
"143 141 CURVE SMOOTH",
"140 550 LINE",
"93 550 LINE",
"99 0 LINE"
);
}
);
width = 600;
}
);
unicode = 0077;
},
{
color = (153,255,154,255);
glyphname = x;
layers = (
{
associatedMasterId = "76E9374A-352D-4379-9771-A49E7E8AA0DC";
layerId = "4D1F24A9-7F62-4711-AC2F-D8EB6C907C30";
name = public.background;
paths = (
{
closed = 1;
nodes = (
"56 0 LINE",
"160 0 LINE",
"212.932 80.898 LINE SMOOTH",
"252.119 140.79 OFFCURVE",
"294 217 OFFCURVE",
"294 217 CURVE",
"307 217 LINE",
"307 217 OFFCURVE",
"346.654 141.358 OFFCURVE",
"386.75 79.982 CURVE SMOOTH",
"439 0 LINE",
"544 0 LINE",
"356 282 LINE",
"533 550 LINE",
"429 550 LINE",
"380.333 475 LINE SMOOTH",
"343.924 418.89 OFFCURVE",
"307 348 OFFCURVE",
"307 348 CURVE",
"294 348 LINE",
"294 348 OFFCURVE",
"257.112 419.352 OFFCURVE",
"221.286 475 CURVE SMOOTH",
"173 550 LINE",
"68 550 LINE",
"245 283 LINE"
);
},
{
closed = 1;
nodes = (
"55 0 LINE",
"160 0 LINE",
"287 190.777 LINE",
"287 222 LINE",
"316 222 LINE",
"315.75 190.101 LINE",
"439 0 LINE",
"545 0 LINE",
"356 282 LINE",
"534 550 LINE",
"429 550 LINE",
"314.441 371 LINE",
"314 344 LINE",
"287 344 LINE",
"287.499 371.384 LINE",
"173 550 LINE",
"67 550 LINE",
"245 283 LINE"
);
}
);
width = 600;
},
{
layerId = "681EDAF7-11DB-44DD-9204-6ED8688B749D";
paths = (
{
closed = 1;
nodes = (
"153 0 LINE",
"255 130 LINE SMOOTH",
"273 154 OFFCURVE",
"288 185 OFFCURVE",
"288 185 CURVE",
"288 185 OFFCURVE",
"296 154 OFFCURVE",
"308 130 CURVE SMOOTH",
"368 0 LINE",
"530 0 LINE",
"386 285 LINE",
"604 550 LINE",
"433 550 LINE",
"348 440 LINE SMOOTH",
"329 416 OFFCURVE",
"314 385 OFFCURVE",
"314 385 CURVE",
"314 385 OFFCURVE",
"307 416 OFFCURVE",
"296 440 CURVE SMOOTH",
"244 550 LINE",
"82 550 LINE",
"217 285 LINE",
"-18 0 LINE"
);
}
);
width = 600;
},
{
hints = (
{
horizontal = 1;
place = "{506, -20}";
target = down;
type = TopGhost;
},
{
horizontal = 1;
place = "{-44, 21}";
target = up;
type = BottomGhost;
}
);
layerId = "03C02FE7-7458-4762-A27C-0F6E25AC479F";
paths = (
{
closed = 1;
nodes = (
"119 0 LINE",
"262 180 LINE SMOOTH",
"278 201 OFFCURVE",
"295 229 OFFCURVE",
"295 229 CURVE",
"295 229 OFFCURVE",
"305 200 OFFCURVE",
"314 180 CURVE SMOOTH",
"399 0 LINE",
"501 0 LINE",
"357 282 LINE",
"577 550 LINE",
"469 550 LINE",
"337 380 LINE SMOOTH",
"321 360 OFFCURVE",
"308 335 OFFCURVE",
"308 335 CURVE",
"308 335 OFFCURVE",
"299 360 OFFCURVE",
"290 380 CURVE SMOOTH",
"212 550 LINE",
"110 550 LINE",
"246 283 LINE",
"11 0 LINE"
);
}
);
width = 600;
},
{
layerId = "76E9374A-352D-4379-9771-A49E7E8AA0DC";
paths = (
{
closed = 1;
nodes = (
"91 0 LINE",
"266 210 LINE SMOOTH",
"280 226 OFFCURVE",
"297 248 OFFCURVE",
"297 248 CURVE",
"297 248 OFFCURVE",
"310 227 OFFCURVE",
"318 210 CURVE SMOOTH",
"426 0 LINE",
"481 0 LINE",
"331 281 LINE",
"557 550 LINE",
"496 550 LINE",
"332 350 LINE SMOOTH",
"321 336 OFFCURVE",
"305 315 OFFCURVE",
"305 315 CURVE",
"305 315 OFFCURVE",
"295 335 OFFCURVE",
"287 350 CURVE SMOOTH",
"186 550 LINE",
"130 550 LINE",
"272 283 LINE",
"31 0 LINE"
);
}
);
width = 600;
}
);
unicode = 0078;
},
{
color = (154,153,255,255);
glyphname = y;
layers = (
{
layerId = "681EDAF7-11DB-44DD-9204-6ED8688B749D";
paths = (
{
closed = 1;
nodes = (
"232 -180 LINE SMOOTH",
"373 -180 OFFCURVE",
"473 -106 OFFCURVE",
"492 14 CURVE SMOOTH",
"577 550 LINE",
"427 550 LINE",
"380 250 LINE SMOOTH",
"370 192 OFFCURVE",
"333 160 OFFCURVE",
"278 160 CURVE SMOOTH",
"222 160 OFFCURVE",
"196 192 OFFCURVE",
"206 250 CURVE SMOOTH",
"253 550 LINE",
"103 550 LINE",
"55 245 LINE SMOOTH",
"34 113 OFFCURVE",
"93 30 OFFCURVE",
"204 30 CURVE SMOOTH",
"295 30 OFFCURVE",
"358 85 OFFCURVE",
"374 180 CURVE",
"333 145 LINE",
"368 145 LINE",
"349 40 LINE",
"349 36 OFFCURVE",
"347 23 OFFCURVE",
"346 19 CURVE SMOOTH",
"338 -31 OFFCURVE",
"302 -60 OFFCURVE",
"246 -60 CURVE SMOOTH",
"91 -60 LINE",
"72 -180 LINE"
);
}
);
width = 600;
},
{
hints = (
{
horizontal = 1;
place = "{-214, 21}";
target = up;
type = BottomGhost;
},
{
horizontal = 1;
place = "{506, -20}";
target = down;
type = TopGhost;
}
);
layerId = "03C02FE7-7458-4762-A27C-0F6E25AC479F";
paths = (
{
closed = 1;
nodes = (
"262 -180 LINE SMOOTH",
"368 -180 OFFCURVE",
"442 -119 OFFCURVE",
"458 -20 CURVE SMOOTH",
"548 550 LINE",
"461 550 LINE",
"411 245 LINE SMOOTH",
"398 162 OFFCURVE",
"346 113 OFFCURVE",
"272 113 CURVE SMOOTH",
"196 113 OFFCURVE",
"161 160 OFFCURVE",
"175 245 CURVE SMOOTH",
"223 550 LINE",
"133 550 LINE",
"84 240 LINE SMOOTH",
"64 113 OFFCURVE",
"119 35 OFFCURVE",
"230 35 CURVE SMOOTH",
"320 35 OFFCURVE",
"380 83 OFFCURVE",
"393 165 CURVE",
"358 120 LINE",
"393 120 LINE",
"379 50 LINE",
"377 36 OFFCURVE",
"370 -5 OFFCURVE",
"368 -20 CURVE SMOOTH",
"359 -73 OFFCURVE",
"330 -98 OFFCURVE",
"276 -98 CURVE SMOOTH",
"101 -98 LINE",
"88 -180 LINE"
);
}
);
width = 600;
},
{
layerId = "76E9374A-352D-4379-9771-A49E7E8AA0DC";
paths = (
{
closed = 1;
nodes = (
"246 -180 LINE SMOOTH",
"358 -180 OFFCURVE",
"426 -124 OFFCURVE",
"444 -15 CURVE SMOOTH",
"533 550 LINE",
"483 550 LINE",
"434 239 LINE SMOOTH",
"418 141 OFFCURVE",
"356 83 OFFCURVE",
"266 83 CURVE SMOOTH",
"177 83 OFFCURVE",
"133 141 OFFCURVE",
"149 239 CURVE SMOOTH",
"197 550 LINE",
"147 550 LINE",
"99 239 LINE SMOOTH",
"80 119 OFFCURVE",
"139 40 OFFCURVE",
"249 40 CURVE SMOOTH",
"345 40 OFFCURVE",
"422 99 OFFCURVE",
"436 190 CURVE",
"388 125 LINE",
"416 125 LINE",
"401 30 LINE SMOOTH",
"399 22 OFFCURVE",
"395 -6 OFFCURVE",
"394 -15 CURVE SMOOTH",
"381 -94 OFFCURVE",
"333 -135 OFFCURVE",
"254 -135 CURVE SMOOTH",
"109 -135 LINE",
"101 -180 LINE"
);
}
);
width = 600;
}
);
unicode = 0079;
},
{
color = (153,255,154,255);
glyphname = z;
layers = (
{
hints = (
{
horizontal = 1;
place = "{376, 86}";
type = Stem;
},
{
horizontal = 1;
place = "{-44, 86}";
type = Stem;
}
);
layerId = "681EDAF7-11DB-44DD-9204-6ED8688B749D";
paths = (
{
closed = 1;
nodes = (
"486 0 LINE",
"507 130 LINE",
"229 130 LINE",
"542 420 LINE",
"562 550 LINE",
"123 550 LINE",
"103 420 LINE",
"360 420 LINE",
"47 130 LINE",
"26 0 LINE"
);
}
);
width = 600;
},
{
hints = (
{
horizontal = 1;
place = "{-44, 37}";
type = Stem;
},
{
horizontal = 1;
place = "{425, 37}";
type = Stem;
}
);
layerId = "03C02FE7-7458-4762-A27C-0F6E25AC479F";
paths = (
{
closed = 1;
nodes = (
"466 0 LINE",
"479 81 LINE",
"158 81 LINE",
"528 461 LINE",
"542 550 LINE",
"141 550 LINE",
"128 469 LINE",
"424 469 LINE",
"60 89 LINE",
"46 0 LINE"
);
}
);
width = 600;
},
{
layerId = "76E9374A-352D-4379-9771-A49E7E8AA0DC";
paths = (
{
closed = 1;
nodes = (
"453 0 LINE",
"460 44 LINE",
"122 44 LINE",
"520 504 LINE",
"527 550 LINE",
"155 550 LINE",
"148 506 LINE",
"463 506 LINE",
"66 45 LINE",
"59 0 LINE"
);
}
);
width = 600;
}
);
unicode = 007A;
},
